G04*
G04 #@! TF.GenerationSoftware,Altium Limited,Altium Designer,21.9.2 (33)*
G04*
G04 Layer_Physical_Order=2*
G04 Layer_Color=36540*
%FSLAX25Y25*%
%MOIN*%
G70*
G04*
G04 #@! TF.SameCoordinates,C603DD54-685B-4B9A-A4C2-A7D413009CF4*
G04*
G04*
G04 #@! TF.FilePolarity,Positive*
G04*
G01*
G75*
%ADD145C,0.03960*%
%ADD147R,0.07087X0.07087*%
%ADD149C,0.01968*%
%ADD150C,0.02000*%
G36*
X223179Y233681D02*
X222069Y232939D01*
X220998Y231868D01*
X220157Y230609D01*
X219577Y229211D01*
X219282Y227726D01*
Y226211D01*
X219577Y224726D01*
X220157Y223327D01*
X220998Y222069D01*
X222069Y220998D01*
X223327Y220157D01*
X224726Y219577D01*
X226211Y219282D01*
X227726D01*
X229211Y219577D01*
X230609Y220157D01*
X231868Y220998D01*
X232939Y222069D01*
X233681Y223180D01*
X234181Y223028D01*
X234181Y13193D01*
X233681Y13041D01*
X232939Y14152D01*
X231868Y15223D01*
X230609Y16064D01*
X229211Y16643D01*
X227726Y16939D01*
X226211D01*
X224726Y16643D01*
X223327Y16064D01*
X222069Y15223D01*
X220998Y14152D01*
X220157Y12893D01*
X219577Y11494D01*
X219282Y10009D01*
Y8495D01*
X219577Y7010D01*
X220157Y5611D01*
X220998Y4352D01*
X222069Y3281D01*
X223180Y2539D01*
X223028Y2039D01*
X13193Y2039D01*
X13041Y2539D01*
X14152Y3281D01*
X15223Y4352D01*
X16064Y5611D01*
X16643Y7010D01*
X16939Y8495D01*
Y10009D01*
X16643Y11494D01*
X16064Y12893D01*
X15223Y14152D01*
X14152Y15223D01*
X12893Y16064D01*
X11494Y16643D01*
X10009Y16939D01*
X8495D01*
X7010Y16643D01*
X5611Y16064D01*
X4352Y15223D01*
X3281Y14152D01*
X2539Y13041D01*
X2039Y13193D01*
Y53079D01*
X24016D01*
X24128Y53101D01*
X24242Y53092D01*
X24592Y53131D01*
X24811Y53200D01*
X25038Y53232D01*
X25372Y53348D01*
X25569Y53465D01*
X25784Y53546D01*
X26082Y53734D01*
X26249Y53891D01*
X26440Y54019D01*
X26689Y54268D01*
X26817Y54459D01*
X26975Y54626D01*
X27162Y54925D01*
X27244Y55139D01*
X27360Y55337D01*
X27477Y55670D01*
X27509Y55897D01*
X27578Y56116D01*
X27617Y56467D01*
X27607Y56581D01*
X27630Y56693D01*
X27630Y140157D01*
X27607Y140269D01*
X27617Y140383D01*
X27578Y140734D01*
X27509Y140953D01*
X27477Y141180D01*
X27360Y141513D01*
X27244Y141711D01*
X27162Y141925D01*
X26975Y142224D01*
X26817Y142391D01*
X26689Y142582D01*
X26440Y142831D01*
X26249Y142959D01*
X26083Y143116D01*
X25784Y143304D01*
X25569Y143386D01*
X25371Y143502D01*
X25038Y143618D01*
X24811Y143650D01*
X24592Y143720D01*
X24242Y143759D01*
X24128Y143749D01*
X24016Y143771D01*
X2039D01*
X2039Y223028D01*
X2539Y223179D01*
X3281Y222069D01*
X4352Y220998D01*
X5611Y220157D01*
X7010Y219577D01*
X8495Y219282D01*
X10009D01*
X11494Y219577D01*
X12893Y220157D01*
X14152Y220998D01*
X15223Y222069D01*
X16064Y223327D01*
X16643Y224726D01*
X16939Y226211D01*
Y227726D01*
X16643Y229211D01*
X16064Y230609D01*
X15223Y231868D01*
X14152Y232939D01*
X13045Y233679D01*
X13196Y234179D01*
X22007Y234177D01*
X22057Y234131D01*
X22242Y234019D01*
X22404Y233875D01*
X23147Y233441D01*
X23352Y233370D01*
X23541Y233263D01*
X24359Y232995D01*
X24574Y232969D01*
X24781Y232905D01*
X25637Y232815D01*
X25745Y232824D01*
X25850Y232803D01*
X65220D01*
X65326Y232824D01*
X65433Y232815D01*
X66290Y232904D01*
X66498Y232969D01*
X66714Y232995D01*
X67532Y233264D01*
X67722Y233371D01*
X67927Y233443D01*
X68670Y233879D01*
X68833Y234023D01*
X69019Y234137D01*
X69067Y234181D01*
X151275Y234177D01*
X151325Y234131D01*
X151510Y234019D01*
X151672Y233875D01*
X152415Y233441D01*
X152620Y233370D01*
X152809Y233263D01*
X153627Y232995D01*
X153842Y232969D01*
X154049Y232905D01*
X154905Y232815D01*
X155012Y232824D01*
X155118Y232803D01*
X194488D01*
X194594Y232824D01*
X194701Y232815D01*
X195558Y232904D01*
X195765Y232969D01*
X195982Y232995D01*
X196800Y233264D01*
X196989Y233371D01*
X197195Y233443D01*
X197938Y233879D01*
X198100Y234023D01*
X198286Y234137D01*
X198335Y234181D01*
X223028Y234181D01*
X223179Y233681D01*
D02*
G37*
%LPC*%
G36*
X122715Y225896D02*
X122078D01*
X121490Y225652D01*
X121040Y225202D01*
X120797Y224614D01*
Y223978D01*
X121040Y223390D01*
X121490Y222939D01*
X122078Y222696D01*
X122715D01*
X123303Y222939D01*
X123753Y223390D01*
X123997Y223978D01*
Y224614D01*
X123753Y225202D01*
X123303Y225652D01*
X122715Y225896D01*
D02*
G37*
G36*
X117184Y225783D02*
X116548D01*
X115960Y225539D01*
X115509Y225089D01*
X115266Y224501D01*
Y223865D01*
X115509Y223277D01*
X115960Y222827D01*
X116548Y222583D01*
X117184D01*
X117772Y222827D01*
X118222Y223277D01*
X118466Y223865D01*
Y224501D01*
X118222Y225089D01*
X117772Y225539D01*
X117184Y225783D01*
D02*
G37*
G36*
X128923Y225614D02*
X128287D01*
X127698Y225370D01*
X127248Y224920D01*
X127005Y224332D01*
Y223695D01*
X127248Y223107D01*
X127698Y222657D01*
X128287Y222414D01*
X128923D01*
X129511Y222657D01*
X129961Y223107D01*
X130205Y223695D01*
Y224332D01*
X129961Y224920D01*
X129511Y225370D01*
X128923Y225614D01*
D02*
G37*
G36*
X93101Y225853D02*
X89258D01*
Y222009D01*
X93101D01*
Y225853D01*
D02*
G37*
G36*
X88258D02*
X84415D01*
Y222009D01*
X88258D01*
Y225853D01*
D02*
G37*
G36*
X109303Y225653D02*
X108212D01*
X107159Y225370D01*
X106214Y224825D01*
X105442Y224053D01*
X104897Y223109D01*
X104615Y222055D01*
Y220964D01*
X104897Y219910D01*
X105442Y218965D01*
X106214Y218194D01*
X107159Y217648D01*
X108212Y217366D01*
X109303D01*
X110357Y217648D01*
X111302Y218194D01*
X112073Y218965D01*
X112619Y219910D01*
X112901Y220964D01*
Y222055D01*
X112619Y223109D01*
X112073Y224053D01*
X111302Y224825D01*
X110357Y225370D01*
X109303Y225653D01*
D02*
G37*
G36*
X99303D02*
X98212D01*
X97159Y225370D01*
X96214Y224825D01*
X95442Y224053D01*
X94897Y223109D01*
X94615Y222055D01*
Y220964D01*
X94897Y219910D01*
X95442Y218965D01*
X96214Y218194D01*
X97159Y217648D01*
X98212Y217366D01*
X99303D01*
X100357Y217648D01*
X101302Y218194D01*
X102073Y218965D01*
X102619Y219910D01*
X102901Y220964D01*
Y222055D01*
X102619Y223109D01*
X102073Y224053D01*
X101302Y224825D01*
X100357Y225370D01*
X99303Y225653D01*
D02*
G37*
G36*
X93101Y221009D02*
X89258D01*
Y217166D01*
X93101D01*
Y221009D01*
D02*
G37*
G36*
X88258D02*
X84415D01*
Y217166D01*
X88258D01*
Y221009D01*
D02*
G37*
G36*
X230107Y209232D02*
X229470D01*
X228883Y208989D01*
X228432Y208539D01*
X228189Y207951D01*
Y207314D01*
X228432Y206726D01*
X228883Y206276D01*
X229470Y206032D01*
X230107D01*
X230695Y206276D01*
X231145Y206726D01*
X231389Y207314D01*
Y207951D01*
X231145Y208539D01*
X230695Y208989D01*
X230107Y209232D01*
D02*
G37*
G36*
X226419Y207469D02*
X225782D01*
X225194Y207226D01*
X224744Y206776D01*
X224500Y206188D01*
Y205551D01*
X224744Y204963D01*
X225194Y204513D01*
X225782Y204269D01*
X226419D01*
X227007Y204513D01*
X227457Y204963D01*
X227700Y205551D01*
Y206188D01*
X227457Y206776D01*
X227007Y207226D01*
X226419Y207469D01*
D02*
G37*
G36*
X136517Y206854D02*
X135881D01*
X135292Y206611D01*
X134842Y206161D01*
X134599Y205573D01*
Y204936D01*
X134842Y204348D01*
X135292Y203898D01*
X135881Y203654D01*
X136517D01*
X137105Y203898D01*
X137555Y204348D01*
X137799Y204936D01*
Y205573D01*
X137555Y206161D01*
X137105Y206611D01*
X136517Y206854D01*
D02*
G37*
G36*
X229991Y205451D02*
X229355D01*
X228766Y205208D01*
X228316Y204758D01*
X228073Y204170D01*
Y203533D01*
X228316Y202945D01*
X228766Y202495D01*
X229355Y202251D01*
X229991D01*
X230579Y202495D01*
X231029Y202945D01*
X231273Y203533D01*
Y204170D01*
X231029Y204758D01*
X230579Y205208D01*
X229991Y205451D01*
D02*
G37*
G36*
X130454Y205206D02*
X129818D01*
X129230Y204962D01*
X128780Y204512D01*
X128536Y203924D01*
Y203288D01*
X128780Y202700D01*
X129230Y202250D01*
X129818Y202006D01*
X130454D01*
X131043Y202250D01*
X131493Y202700D01*
X131736Y203288D01*
Y203924D01*
X131493Y204512D01*
X131043Y204962D01*
X130454Y205206D01*
D02*
G37*
G36*
X230051Y200711D02*
X229415D01*
X228827Y200467D01*
X228377Y200017D01*
X228133Y199429D01*
Y198793D01*
X228377Y198204D01*
X228827Y197754D01*
X229415Y197511D01*
X230051D01*
X230640Y197754D01*
X231090Y198204D01*
X231333Y198793D01*
Y199429D01*
X231090Y200017D01*
X230640Y200467D01*
X230051Y200711D01*
D02*
G37*
G36*
X25773Y197431D02*
X25136D01*
X24548Y197188D01*
X24377Y197017D01*
X24051Y196773D01*
X23724Y197017D01*
X23553Y197188D01*
X22965Y197431D01*
X22329D01*
X21741Y197188D01*
X21291Y196738D01*
X21047Y196150D01*
Y195513D01*
X21291Y194925D01*
X21741Y194475D01*
X22329Y194231D01*
X22965D01*
X23553Y194475D01*
X23724Y194646D01*
X24051Y194890D01*
X24377Y194646D01*
X24548Y194475D01*
X25136Y194231D01*
X25773D01*
X26361Y194475D01*
X26811Y194925D01*
X27054Y195513D01*
Y196150D01*
X26811Y196738D01*
X26361Y197188D01*
X25773Y197431D01*
D02*
G37*
G36*
X216798Y198772D02*
X216162D01*
X215574Y198528D01*
X215124Y198078D01*
X214880Y197490D01*
Y196854D01*
X215124Y196266D01*
X215574Y195816D01*
X216162Y195572D01*
X216798D01*
X217386Y195816D01*
X217836Y196266D01*
X218080Y196854D01*
Y197490D01*
X217836Y198078D01*
X217386Y198528D01*
X216798Y198772D01*
D02*
G37*
G36*
X230185Y196570D02*
X229548D01*
X228960Y196327D01*
X228510Y195877D01*
X228266Y195289D01*
Y194652D01*
X228510Y194064D01*
X228960Y193614D01*
X229548Y193370D01*
X230185D01*
X230773Y193614D01*
X231223Y194064D01*
X231466Y194652D01*
Y195289D01*
X231223Y195877D01*
X230773Y196327D01*
X230185Y196570D01*
D02*
G37*
G36*
X25773Y191808D02*
X25136D01*
X24548Y191564D01*
X24377Y191393D01*
X24051Y191150D01*
X23724Y191393D01*
X23553Y191564D01*
X22965Y191808D01*
X22329D01*
X21741Y191564D01*
X21291Y191114D01*
X21047Y190526D01*
Y189890D01*
X21291Y189302D01*
X21741Y188851D01*
X22329Y188608D01*
X22965D01*
X23553Y188851D01*
X23724Y189022D01*
X24051Y189266D01*
X24377Y189022D01*
X24548Y188851D01*
X25136Y188608D01*
X25773D01*
X26361Y188851D01*
X26811Y189302D01*
X27054Y189890D01*
Y190526D01*
X26811Y191114D01*
X26361Y191564D01*
X25773Y191808D01*
D02*
G37*
G36*
X216755Y193706D02*
X216118D01*
X215530Y193463D01*
X215080Y193012D01*
X214836Y192424D01*
Y191788D01*
X215080Y191200D01*
X215530Y190750D01*
X216118Y190506D01*
X216755D01*
X217343Y190750D01*
X217793Y191200D01*
X218036Y191788D01*
Y192424D01*
X217793Y193012D01*
X217343Y193463D01*
X216755Y193706D01*
D02*
G37*
G36*
X184333Y192715D02*
X183697D01*
X183109Y192472D01*
X182659Y192021D01*
X182415Y191433D01*
Y190797D01*
X182659Y190209D01*
X183109Y189759D01*
X183697Y189515D01*
X184333D01*
X184921Y189759D01*
X185371Y190209D01*
X185615Y190797D01*
Y191433D01*
X185371Y192021D01*
X184921Y192472D01*
X184333Y192715D01*
D02*
G37*
G36*
X32072Y190600D02*
X31435D01*
X30847Y190356D01*
X30397Y189906D01*
X30154Y189318D01*
Y188682D01*
X30397Y188094D01*
X30847Y187644D01*
X31435Y187400D01*
X32072D01*
X32660Y187644D01*
X33110Y188094D01*
X33354Y188682D01*
Y189318D01*
X33110Y189906D01*
X32660Y190356D01*
X32072Y190600D01*
D02*
G37*
G36*
X145720Y177597D02*
X145083D01*
X144495Y177353D01*
X144045Y176903D01*
X143801Y176315D01*
Y175679D01*
X144045Y175091D01*
X144495Y174641D01*
X145083Y174397D01*
X145720D01*
X146308Y174641D01*
X146758Y175091D01*
X147001Y175679D01*
Y176315D01*
X146758Y176903D01*
X146308Y177353D01*
X145720Y177597D01*
D02*
G37*
G36*
X34985Y175767D02*
X34348D01*
X33760Y175524D01*
X33310Y175074D01*
X33066Y174486D01*
Y173849D01*
X33310Y173261D01*
X33760Y172811D01*
X34348Y172567D01*
X34985D01*
X35573Y172811D01*
X36023Y173261D01*
X36266Y173849D01*
Y174486D01*
X36023Y175074D01*
X35573Y175524D01*
X34985Y175767D01*
D02*
G37*
G36*
X54024Y175514D02*
X53387D01*
X52799Y175271D01*
X52349Y174820D01*
X52106Y174232D01*
Y173596D01*
X52349Y173008D01*
X52799Y172558D01*
X53387Y172314D01*
X54024D01*
X54612Y172558D01*
X55062Y173008D01*
X55306Y173596D01*
Y174232D01*
X55062Y174820D01*
X54612Y175271D01*
X54024Y175514D01*
D02*
G37*
G36*
X138386Y177038D02*
X137750D01*
X137161Y176794D01*
X136711Y176344D01*
X136468Y175756D01*
Y175119D01*
X136711Y174531D01*
X137161Y174081D01*
X137645Y173881D01*
X137711Y173739D01*
X137752Y173555D01*
X137755Y173337D01*
X137403Y172985D01*
X137159Y172397D01*
Y171761D01*
X137403Y171173D01*
X137853Y170723D01*
X138441Y170479D01*
X139077D01*
X139665Y170723D01*
X140116Y171173D01*
X140359Y171761D01*
Y172086D01*
X140850Y172419D01*
X141147Y172296D01*
X141784D01*
X142372Y172539D01*
X142822Y172989D01*
X143066Y173577D01*
Y174214D01*
X142822Y174802D01*
X142372Y175252D01*
X141784Y175496D01*
X141147D01*
X140559Y175252D01*
X140109Y174802D01*
X139866Y174214D01*
Y174139D01*
X139515Y173813D01*
X139416Y173768D01*
X139359Y173798D01*
X139284Y174391D01*
X139424Y174531D01*
X139668Y175119D01*
Y175756D01*
X139424Y176344D01*
X138974Y176794D01*
X138386Y177038D01*
D02*
G37*
G36*
X109649Y173110D02*
X109012D01*
X108424Y172866D01*
X107974Y172416D01*
X107730Y171828D01*
Y171191D01*
X107974Y170603D01*
X108424Y170153D01*
X109012Y169910D01*
X109649D01*
X110237Y170153D01*
X110687Y170603D01*
X110930Y171191D01*
Y171828D01*
X110687Y172416D01*
X110237Y172866D01*
X109649Y173110D01*
D02*
G37*
G36*
X46520Y165213D02*
X45883D01*
X45295Y164969D01*
X44845Y164519D01*
X44602Y163931D01*
Y163295D01*
X44845Y162707D01*
X45295Y162257D01*
X45883Y162013D01*
X46520D01*
X47108Y162257D01*
X47558Y162707D01*
X47802Y163295D01*
Y163931D01*
X47558Y164519D01*
X47108Y164969D01*
X46520Y165213D01*
D02*
G37*
G36*
X127176Y164964D02*
X126540D01*
X125952Y164720D01*
X125502Y164270D01*
X125258Y163682D01*
Y163046D01*
X125502Y162458D01*
X125952Y162007D01*
X126540Y161764D01*
X127176D01*
X127765Y162007D01*
X128215Y162458D01*
X128458Y163046D01*
Y163682D01*
X128215Y164270D01*
X127765Y164720D01*
X127176Y164964D01*
D02*
G37*
G36*
X36885Y164771D02*
X36248D01*
X35660Y164527D01*
X35210Y164077D01*
X34966Y163489D01*
Y162853D01*
X35210Y162265D01*
X35660Y161814D01*
X36248Y161571D01*
X36885D01*
X37473Y161814D01*
X37923Y162265D01*
X38166Y162853D01*
Y163489D01*
X37923Y164077D01*
X37473Y164527D01*
X36885Y164771D01*
D02*
G37*
G36*
X100818Y156079D02*
X100182D01*
X99594Y155835D01*
X99144Y155385D01*
X98900Y154797D01*
Y154160D01*
X99144Y153572D01*
X99594Y153122D01*
X100182Y152879D01*
X100818D01*
X101406Y153122D01*
X101856Y153572D01*
X102100Y154160D01*
Y154797D01*
X101856Y155385D01*
X101406Y155835D01*
X100818Y156079D01*
D02*
G37*
G36*
X105862Y154509D02*
X105225D01*
X104637Y154265D01*
X104187Y153815D01*
X103943Y153227D01*
Y152591D01*
X104187Y152003D01*
X104637Y151552D01*
X105225Y151309D01*
X105862D01*
X106450Y151552D01*
X106900Y152003D01*
X107143Y152591D01*
Y153227D01*
X106900Y153815D01*
X106450Y154265D01*
X105862Y154509D01*
D02*
G37*
G36*
X141803Y152750D02*
X141166D01*
X140578Y152506D01*
X140128Y152056D01*
X139884Y151468D01*
Y150831D01*
X140128Y150243D01*
X140578Y149793D01*
X141166Y149550D01*
X141803D01*
X142391Y149793D01*
X142841Y150243D01*
X143084Y150831D01*
Y151468D01*
X142841Y152056D01*
X142391Y152506D01*
X141803Y152750D01*
D02*
G37*
G36*
X43450Y148700D02*
X42813D01*
X42225Y148456D01*
X41775Y148006D01*
X41532Y147418D01*
Y146782D01*
X41775Y146194D01*
X42225Y145744D01*
X42813Y145500D01*
X43450D01*
X44038Y145744D01*
X44488Y146194D01*
X44732Y146782D01*
Y147418D01*
X44488Y148006D01*
X44038Y148456D01*
X43450Y148700D01*
D02*
G37*
G36*
X158818Y146600D02*
X158182D01*
X157594Y146356D01*
X157144Y145906D01*
X156900Y145318D01*
Y144682D01*
X157144Y144094D01*
X157594Y143644D01*
X158182Y143400D01*
X158818D01*
X159406Y143644D01*
X159856Y144094D01*
X160100Y144682D01*
Y145318D01*
X159856Y145906D01*
X159406Y146356D01*
X158818Y146600D01*
D02*
G37*
G36*
X98525Y133100D02*
X97888D01*
X97300Y132856D01*
X96850Y132406D01*
X96607Y131818D01*
Y131182D01*
X96850Y130594D01*
X97300Y130144D01*
X97888Y129900D01*
X98525D01*
X99113Y130144D01*
X99563Y130594D01*
X99807Y131182D01*
Y131818D01*
X99563Y132406D01*
X99113Y132856D01*
X98525Y133100D01*
D02*
G37*
G36*
X162840Y106580D02*
X162160D01*
X161504Y106404D01*
X160916Y106064D01*
X160580Y105729D01*
X160080Y105933D01*
Y106580D01*
X154920D01*
Y101420D01*
X155281D01*
X155489Y100920D01*
X155275Y100707D01*
X154909Y100073D01*
X154756Y99500D01*
X157500D01*
Y98500D01*
X154756D01*
X154909Y97927D01*
X155275Y97293D01*
X155776Y96792D01*
X155837Y96720D01*
Y96280D01*
X155776Y96208D01*
X155275Y95707D01*
X154909Y95073D01*
X154756Y94500D01*
X157500D01*
Y93500D01*
X154756D01*
X154909Y92927D01*
X155275Y92293D01*
X155793Y91776D01*
X155970Y91673D01*
X155970Y91096D01*
X155916Y91065D01*
X155436Y90584D01*
X155096Y89996D01*
X154920Y89340D01*
Y88660D01*
X155096Y88004D01*
X155436Y87416D01*
X155916Y86936D01*
X155970Y86904D01*
X155970Y86327D01*
X155793Y86225D01*
X155275Y85707D01*
X154909Y85073D01*
X154756Y84500D01*
X157500D01*
Y84000D01*
X158000D01*
Y81256D01*
X158573Y81410D01*
X159207Y81775D01*
X159724Y82293D01*
X159827Y82470D01*
X160404Y82470D01*
X160435Y82416D01*
X160916Y81936D01*
X161504Y81596D01*
X161832Y81508D01*
X161866Y80981D01*
X161594Y80868D01*
X161144Y80418D01*
X160900Y79830D01*
Y79194D01*
X161144Y78606D01*
X161594Y78155D01*
X162182Y77912D01*
X162818D01*
X163406Y78155D01*
X163856Y78606D01*
X164100Y79194D01*
Y79830D01*
X163856Y80418D01*
X163406Y80868D01*
X163134Y80981D01*
X163168Y81508D01*
X163496Y81596D01*
X164084Y81936D01*
X164565Y82416D01*
X164904Y83004D01*
X165080Y83660D01*
Y84340D01*
X164904Y84996D01*
X164565Y85584D01*
X164084Y86064D01*
X163830Y86211D01*
Y86789D01*
X164084Y86936D01*
X164565Y87416D01*
X164904Y88004D01*
X165080Y88660D01*
Y89340D01*
X164904Y89996D01*
X164565Y90584D01*
X164084Y91065D01*
X163830Y91211D01*
Y91789D01*
X164084Y91935D01*
X164565Y92416D01*
X164904Y93004D01*
X165080Y93660D01*
Y94340D01*
X164904Y94996D01*
X164565Y95584D01*
X164084Y96065D01*
X163830Y96211D01*
Y96789D01*
X164084Y96935D01*
X164565Y97416D01*
X164904Y98004D01*
X165080Y98660D01*
Y99340D01*
X164904Y99996D01*
X164565Y100584D01*
X164084Y101065D01*
X163830Y101211D01*
Y101789D01*
X164084Y101936D01*
X164565Y102416D01*
X164904Y103004D01*
X165080Y103660D01*
Y104340D01*
X164904Y104996D01*
X164565Y105584D01*
X164084Y106064D01*
X163496Y106404D01*
X162840Y106580D01*
D02*
G37*
G36*
X212245Y106927D02*
X211608D01*
X211020Y106683D01*
X210570Y106233D01*
X210326Y105645D01*
Y105008D01*
X210570Y104420D01*
X211020Y103970D01*
X211608Y103727D01*
X212245D01*
X212833Y103970D01*
X213283Y104420D01*
X213526Y105008D01*
Y105645D01*
X213283Y106233D01*
X212833Y106683D01*
X212245Y106927D01*
D02*
G37*
G36*
X151762Y107407D02*
X151125D01*
X150537Y107163D01*
X150087Y106713D01*
X149844Y106125D01*
Y105489D01*
X150087Y104901D01*
X150537Y104451D01*
X151018Y104251D01*
X151083Y103859D01*
X151068Y103731D01*
X150876Y103651D01*
X150597Y103373D01*
X150403Y103567D01*
X149815Y103810D01*
X149179D01*
X148591Y103567D01*
X148141Y103116D01*
X147897Y102528D01*
Y101892D01*
X148141Y101304D01*
X148591Y100854D01*
X149179Y100610D01*
X149815D01*
X150403Y100854D01*
X150682Y101132D01*
X150876Y100938D01*
X151464Y100695D01*
X152100D01*
X152688Y100938D01*
X153138Y101388D01*
X153382Y101976D01*
Y102613D01*
X153138Y103201D01*
X152688Y103651D01*
X152207Y103850D01*
X152142Y104242D01*
X152158Y104371D01*
X152350Y104451D01*
X152800Y104901D01*
X153043Y105489D01*
Y106125D01*
X152800Y106713D01*
X152350Y107163D01*
X151762Y107407D01*
D02*
G37*
G36*
X187333Y105969D02*
X186696D01*
X186108Y105726D01*
X185658Y105275D01*
X185415Y104687D01*
Y104051D01*
X185658Y103463D01*
X186108Y103013D01*
X186696Y102769D01*
X187333D01*
X187921Y103013D01*
X188371Y103463D01*
X188614Y104051D01*
Y104687D01*
X188371Y105275D01*
X187921Y105726D01*
X187333Y105969D01*
D02*
G37*
G36*
X199552Y105927D02*
X198916D01*
X198328Y105684D01*
X197878Y105234D01*
X197634Y104646D01*
Y104009D01*
X197878Y103421D01*
X198328Y102971D01*
X198916Y102727D01*
X199552D01*
X200141Y102971D01*
X200591Y103421D01*
X200834Y104009D01*
Y104646D01*
X200591Y105234D01*
X200141Y105684D01*
X199552Y105927D01*
D02*
G37*
G36*
X194959Y105891D02*
X194323D01*
X193735Y105647D01*
X193285Y105197D01*
X193041Y104609D01*
Y103972D01*
X193285Y103384D01*
X193735Y102934D01*
X194323Y102691D01*
X194959D01*
X195547Y102934D01*
X195997Y103384D01*
X196241Y103972D01*
Y104609D01*
X195997Y105197D01*
X195547Y105647D01*
X194959Y105891D01*
D02*
G37*
G36*
X206318Y105805D02*
X205682D01*
X205094Y105562D01*
X204644Y105112D01*
X204400Y104524D01*
Y103887D01*
X204644Y103299D01*
X205094Y102849D01*
X205682Y102605D01*
X206318D01*
X206906Y102849D01*
X207356Y103299D01*
X207600Y103887D01*
Y104524D01*
X207356Y105112D01*
X206906Y105562D01*
X206318Y105805D01*
D02*
G37*
G36*
X173144Y99034D02*
X172508D01*
X171920Y98791D01*
X171470Y98340D01*
X171226Y97752D01*
Y97116D01*
X171470Y96528D01*
X171920Y96078D01*
X172508Y95834D01*
X173144D01*
X173732Y96078D01*
X174182Y96528D01*
X174426Y97116D01*
Y97752D01*
X174182Y98340D01*
X173732Y98791D01*
X173144Y99034D01*
D02*
G37*
G36*
X184067Y98962D02*
X183430D01*
X182842Y98719D01*
X182392Y98269D01*
X182148Y97681D01*
Y97044D01*
X182392Y96456D01*
X182842Y96006D01*
X183430Y95762D01*
X184067D01*
X184655Y96006D01*
X185105Y96456D01*
X185348Y97044D01*
Y97681D01*
X185105Y98269D01*
X184655Y98719D01*
X184067Y98962D01*
D02*
G37*
G36*
X177959D02*
X177322D01*
X176734Y98719D01*
X176284Y98269D01*
X176040Y97681D01*
Y97044D01*
X176284Y96456D01*
X176734Y96006D01*
X177322Y95762D01*
X177959D01*
X178547Y96006D01*
X178997Y96456D01*
X179241Y97044D01*
Y97681D01*
X178997Y98269D01*
X178547Y98719D01*
X177959Y98962D01*
D02*
G37*
G36*
X139368Y93800D02*
X138731D01*
X138143Y93557D01*
X137693Y93107D01*
X137450Y92518D01*
Y91895D01*
X137409Y91861D01*
X137002Y91655D01*
X136632Y92026D01*
X136044Y92269D01*
X135407D01*
X134819Y92026D01*
X134369Y91576D01*
X134125Y90988D01*
Y90351D01*
X134369Y89763D01*
X134819Y89313D01*
X135407Y89069D01*
X136044D01*
X136632Y89313D01*
X137082Y89763D01*
X137325Y90351D01*
Y90975D01*
X137366Y91008D01*
X137773Y91214D01*
X138143Y90844D01*
X138731Y90600D01*
X139229D01*
X139488Y90417D01*
X139648Y90175D01*
Y89668D01*
X139892Y89080D01*
X140342Y88630D01*
X140930Y88386D01*
X141566D01*
X142154Y88630D01*
X142604Y89080D01*
X142848Y89668D01*
Y90305D01*
X142604Y90893D01*
X142154Y91343D01*
X141566Y91587D01*
X141068D01*
X140809Y91769D01*
X140649Y92012D01*
Y92518D01*
X140406Y93107D01*
X139956Y93557D01*
X139368Y93800D01*
D02*
G37*
G36*
X134675Y86186D02*
X134038D01*
X133450Y85942D01*
X133000Y85492D01*
X132757Y84904D01*
Y84267D01*
X133000Y83679D01*
X133450Y83229D01*
X134038Y82986D01*
X134675D01*
X135263Y83229D01*
X135713Y83679D01*
X135957Y84267D01*
Y84904D01*
X135713Y85492D01*
X135263Y85942D01*
X134675Y86186D01*
D02*
G37*
G36*
X157000Y83500D02*
X154756D01*
X154909Y82927D01*
X155275Y82293D01*
X155793Y81775D01*
X156427Y81410D01*
X157000Y81256D01*
Y83500D01*
D02*
G37*
G36*
X174818Y82100D02*
X174182D01*
X173594Y81856D01*
X173144Y81406D01*
X172900Y80818D01*
Y80182D01*
X173144Y79594D01*
X173594Y79144D01*
X174182Y78900D01*
X174818D01*
X175406Y79144D01*
X175856Y79594D01*
X176100Y80182D01*
Y80818D01*
X175856Y81406D01*
X175406Y81856D01*
X174818Y82100D01*
D02*
G37*
G36*
X203436Y73024D02*
X202800D01*
X202212Y72780D01*
X201762Y72330D01*
X201722Y72233D01*
X201181D01*
X201140Y72330D01*
X200690Y72780D01*
X200102Y73024D01*
X199466D01*
X198878Y72780D01*
X198428Y72330D01*
X198184Y71742D01*
Y71105D01*
X198428Y70517D01*
X198777Y70168D01*
X198827Y69839D01*
X198767Y69572D01*
X198404Y69209D01*
X198161Y68621D01*
Y67984D01*
X198404Y67396D01*
X198854Y66946D01*
X199442Y66703D01*
X200079D01*
X200667Y66946D01*
X201117Y67396D01*
X201361Y67984D01*
X201851Y67962D01*
Y67923D01*
X202095Y67335D01*
X202545Y66885D01*
X203133Y66641D01*
X203769D01*
X204358Y66885D01*
X204808Y67335D01*
X205030Y67873D01*
X205225Y67902D01*
X205244Y67903D01*
X205530Y67873D01*
X205745Y67356D01*
X206195Y66905D01*
X206783Y66662D01*
X207419D01*
X208007Y66905D01*
X208457Y67356D01*
X208701Y67944D01*
Y68580D01*
X208457Y69168D01*
X208320Y69306D01*
X208060Y69676D01*
X208320Y69959D01*
X208501Y70140D01*
X208744Y70728D01*
Y71364D01*
X208501Y71953D01*
X208051Y72403D01*
X207463Y72646D01*
X206826D01*
X206238Y72403D01*
X205788Y71953D01*
X205544Y71364D01*
Y70728D01*
X205788Y70140D01*
X205925Y70002D01*
X206185Y69632D01*
X205925Y69349D01*
X205745Y69168D01*
X205522Y68630D01*
X205327Y68601D01*
X205308Y68600D01*
X205022Y68630D01*
X204808Y69148D01*
X204358Y69598D01*
X204252Y69642D01*
X204224Y69695D01*
X204173Y70216D01*
X204475Y70517D01*
X204718Y71105D01*
Y71742D01*
X204475Y72330D01*
X204025Y72780D01*
X203436Y73024D01*
D02*
G37*
G36*
X128003Y70450D02*
X127367D01*
X126779Y70207D01*
X126329Y69757D01*
X126085Y69169D01*
Y68532D01*
X126329Y67944D01*
X126779Y67494D01*
X127367Y67250D01*
X128003D01*
X128591Y67494D01*
X129042Y67944D01*
X129285Y68532D01*
Y69169D01*
X129042Y69757D01*
X128591Y70207D01*
X128003Y70450D01*
D02*
G37*
G36*
X134736Y70336D02*
X134099D01*
X133511Y70092D01*
X133061Y69642D01*
X132817Y69054D01*
Y68417D01*
X133061Y67829D01*
X133511Y67379D01*
X134099Y67136D01*
X134736D01*
X135324Y67379D01*
X135774Y67829D01*
X136018Y68417D01*
Y69054D01*
X135774Y69642D01*
X135324Y70092D01*
X134736Y70336D01*
D02*
G37*
G36*
X141277Y70259D02*
X140640D01*
X140052Y70016D01*
X139602Y69565D01*
X139359Y68977D01*
Y68341D01*
X139602Y67753D01*
X140052Y67303D01*
X140640Y67059D01*
X141277D01*
X141865Y67303D01*
X142315Y67753D01*
X142559Y68341D01*
Y68977D01*
X142315Y69565D01*
X141865Y70016D01*
X141277Y70259D01*
D02*
G37*
G36*
X60615Y68528D02*
X59979D01*
X59391Y68285D01*
X58941Y67835D01*
X58697Y67247D01*
Y66610D01*
X58941Y66022D01*
X59391Y65572D01*
X59979Y65329D01*
X60615D01*
X61203Y65572D01*
X61654Y66022D01*
X61897Y66610D01*
Y67247D01*
X61654Y67835D01*
X61203Y68285D01*
X60615Y68528D01*
D02*
G37*
G36*
X103249Y68100D02*
X102613D01*
X102025Y67856D01*
X101575Y67406D01*
X101331Y66818D01*
Y66182D01*
X101575Y65594D01*
X102025Y65144D01*
X102613Y64900D01*
X103249D01*
X103837Y65144D01*
X104288Y65594D01*
X104531Y66182D01*
Y66818D01*
X104288Y67406D01*
X103837Y67856D01*
X103249Y68100D01*
D02*
G37*
G36*
X65518Y67293D02*
X64882D01*
X64294Y67050D01*
X63844Y66600D01*
X63600Y66012D01*
Y65375D01*
X63844Y64787D01*
X64294Y64337D01*
X64882Y64093D01*
X65518D01*
X66106Y64337D01*
X66556Y64787D01*
X66800Y65375D01*
Y66012D01*
X66556Y66600D01*
X66106Y67050D01*
X65518Y67293D01*
D02*
G37*
G36*
X85818Y66380D02*
X85182D01*
X84594Y66136D01*
X84144Y65687D01*
X83900Y65098D01*
Y64462D01*
X84144Y63874D01*
X84594Y63424D01*
X85182Y63180D01*
X85818D01*
X86406Y63424D01*
X86856Y63874D01*
X87100Y64462D01*
Y65098D01*
X86856Y65687D01*
X86406Y66136D01*
X85818Y66380D01*
D02*
G37*
G36*
X79901Y66106D02*
X79265D01*
X78676Y65863D01*
X78226Y65413D01*
X77983Y64824D01*
Y64188D01*
X78226Y63600D01*
X78676Y63150D01*
X79265Y62906D01*
X79901D01*
X80489Y63150D01*
X80939Y63600D01*
X81183Y64188D01*
Y64824D01*
X80939Y65413D01*
X80489Y65863D01*
X79901Y66106D01*
D02*
G37*
G36*
X65946Y63436D02*
X65309D01*
X64721Y63192D01*
X64271Y62742D01*
X64028Y62154D01*
Y61518D01*
X64271Y60930D01*
X64721Y60479D01*
X65309Y60236D01*
X65946D01*
X66534Y60479D01*
X66984Y60930D01*
X67228Y61518D01*
Y62154D01*
X66984Y62742D01*
X66534Y63192D01*
X65946Y63436D01*
D02*
G37*
G36*
X98775Y61300D02*
X98138D01*
X97550Y61056D01*
X97100Y60606D01*
X96857Y60018D01*
Y59382D01*
X97100Y58794D01*
X97550Y58344D01*
X98138Y58100D01*
X98775D01*
X99363Y58344D01*
X99813Y58794D01*
X100057Y59382D01*
Y60018D01*
X99813Y60606D01*
X99363Y61056D01*
X98775Y61300D01*
D02*
G37*
G36*
X31356Y60606D02*
X30720D01*
X30131Y60363D01*
X29681Y59913D01*
X29438Y59325D01*
Y58688D01*
X29681Y58100D01*
X30131Y57650D01*
X30720Y57406D01*
X31356D01*
X31944Y57650D01*
X32394Y58100D01*
X32638Y58688D01*
Y59325D01*
X32394Y59913D01*
X31944Y60363D01*
X31356Y60606D01*
D02*
G37*
G36*
X61641Y58478D02*
X61004D01*
X60416Y58235D01*
X59966Y57784D01*
X59723Y57196D01*
Y56560D01*
X59966Y55972D01*
X60416Y55522D01*
X61004Y55278D01*
X61641D01*
X62229Y55522D01*
X62679Y55972D01*
X62923Y56560D01*
Y57196D01*
X62679Y57784D01*
X62229Y58235D01*
X61641Y58478D01*
D02*
G37*
G36*
X57228Y58034D02*
X56591D01*
X56003Y57790D01*
X55553Y57340D01*
X55309Y56752D01*
Y56115D01*
X55553Y55527D01*
X56003Y55077D01*
X56591Y54834D01*
X57228D01*
X57816Y55077D01*
X58266Y55527D01*
X58509Y56115D01*
Y56752D01*
X58266Y57340D01*
X57816Y57790D01*
X57228Y58034D01*
D02*
G37*
G36*
X107275Y48434D02*
X106638D01*
X106050Y48190D01*
X105600Y47740D01*
X105356Y47152D01*
Y46516D01*
X105600Y45928D01*
X106050Y45478D01*
X106638Y45234D01*
X107275D01*
X107863Y45478D01*
X108313Y45928D01*
X108556Y46516D01*
Y47152D01*
X108313Y47740D01*
X107863Y48190D01*
X107275Y48434D01*
D02*
G37*
G36*
X189627Y44511D02*
X188991D01*
X188403Y44267D01*
X187952Y43817D01*
X187709Y43229D01*
Y42593D01*
X187952Y42005D01*
X188403Y41555D01*
X188991Y41311D01*
X189627D01*
X190215Y41555D01*
X190665Y42005D01*
X190909Y42593D01*
Y43229D01*
X190665Y43817D01*
X190215Y44267D01*
X189627Y44511D01*
D02*
G37*
G36*
X107325Y44290D02*
X106688D01*
X106100Y44047D01*
X105650Y43597D01*
X105406Y43009D01*
Y42372D01*
X105650Y41784D01*
X106100Y41334D01*
X106688Y41090D01*
X107325D01*
X107913Y41334D01*
X108363Y41784D01*
X108606Y42372D01*
Y43009D01*
X108363Y43597D01*
X107913Y44047D01*
X107325Y44290D01*
D02*
G37*
G36*
X222843Y48943D02*
X214557D01*
Y40657D01*
X222843D01*
Y48943D01*
D02*
G37*
G36*
X107458Y40581D02*
X106822D01*
X106234Y40337D01*
X105784Y39887D01*
X105540Y39299D01*
Y38663D01*
X105784Y38075D01*
X106234Y37625D01*
X106822Y37381D01*
X106861D01*
X107068Y36881D01*
X106789Y36602D01*
X106545Y36014D01*
Y35377D01*
X106789Y34789D01*
X107239Y34339D01*
X107827Y34095D01*
X108464D01*
X109052Y34339D01*
X109502Y34789D01*
X109745Y35377D01*
Y36014D01*
X109502Y36602D01*
X109052Y37052D01*
X108464Y37295D01*
X108424D01*
X108217Y37795D01*
X108496Y38075D01*
X108740Y38663D01*
Y39299D01*
X108496Y39887D01*
X108046Y40337D01*
X107458Y40581D01*
D02*
G37*
G36*
X74596Y35350D02*
X73960D01*
X73372Y35107D01*
X72922Y34657D01*
X72678Y34069D01*
Y33432D01*
X72922Y32844D01*
X73372Y32394D01*
X73960Y32150D01*
X74596D01*
X75184Y32394D01*
X75634Y32844D01*
X75878Y33432D01*
Y34069D01*
X75634Y34657D01*
X75184Y35107D01*
X74596Y35350D01*
D02*
G37*
G36*
X46549Y34582D02*
X45913D01*
X45325Y34339D01*
X44875Y33889D01*
X44631Y33301D01*
Y32664D01*
X44875Y32076D01*
X45325Y31626D01*
X45913Y31383D01*
X46549D01*
X47137Y31626D01*
X47587Y32076D01*
X47831Y32664D01*
Y33301D01*
X47587Y33889D01*
X47137Y34339D01*
X46549Y34582D01*
D02*
G37*
G36*
X219246Y38943D02*
X218155D01*
X217101Y38661D01*
X216156Y38116D01*
X215385Y37344D01*
X214839Y36399D01*
X214557Y35346D01*
Y34255D01*
X214839Y33201D01*
X215385Y32256D01*
X216156Y31484D01*
X217101Y30939D01*
X218155Y30657D01*
X219246D01*
X220299Y30939D01*
X221244Y31484D01*
X222016Y32256D01*
X222561Y33201D01*
X222843Y34255D01*
Y35346D01*
X222561Y36399D01*
X222016Y37344D01*
X221244Y38116D01*
X220299Y38661D01*
X219246Y38943D01*
D02*
G37*
G36*
X31356Y33771D02*
X30719D01*
X30131Y33528D01*
X29681Y33077D01*
X29437Y32489D01*
Y31853D01*
X29681Y31265D01*
X30131Y30815D01*
X30719Y30571D01*
X31356D01*
X31944Y30815D01*
X32394Y31265D01*
X32637Y31853D01*
Y32489D01*
X32394Y33077D01*
X31944Y33528D01*
X31356Y33771D01*
D02*
G37*
G36*
X80665Y29761D02*
X80029D01*
X79441Y29518D01*
X78991Y29068D01*
X78747Y28479D01*
Y27843D01*
X78991Y27255D01*
X79441Y26805D01*
X80029Y26561D01*
X80665D01*
X81253Y26805D01*
X81703Y27255D01*
X81947Y27843D01*
Y28479D01*
X81703Y29068D01*
X81253Y29518D01*
X80665Y29761D01*
D02*
G37*
G36*
X45936Y29015D02*
X45299D01*
X44711Y28771D01*
X44261Y28321D01*
X44018Y27733D01*
Y27096D01*
X44261Y26508D01*
X44711Y26058D01*
X45299Y25815D01*
X45936D01*
X46524Y26058D01*
X46974Y26508D01*
X47218Y27096D01*
Y27733D01*
X46974Y28321D01*
X46524Y28771D01*
X45936Y29015D01*
D02*
G37*
G36*
X49740Y28803D02*
X49104D01*
X48516Y28560D01*
X48066Y28110D01*
X47822Y27521D01*
Y26885D01*
X48066Y26297D01*
X48516Y25847D01*
X49104Y25603D01*
X49740D01*
X50328Y25847D01*
X50779Y26297D01*
X51022Y26885D01*
Y27521D01*
X50779Y28110D01*
X50328Y28560D01*
X49740Y28803D01*
D02*
G37*
G36*
X58019Y28264D02*
X57382D01*
X56794Y28020D01*
X56344Y27570D01*
X56101Y26982D01*
Y26346D01*
X56344Y25758D01*
X56794Y25308D01*
X57382Y25064D01*
X58019D01*
X58607Y25308D01*
X59057Y25758D01*
X59301Y26346D01*
Y26982D01*
X59057Y27570D01*
X58607Y28020D01*
X58019Y28264D01*
D02*
G37*
G36*
X53840Y27750D02*
X53203D01*
X52615Y27507D01*
X52165Y27057D01*
X51922Y26469D01*
Y25832D01*
X52165Y25244D01*
X52615Y24794D01*
X53203Y24550D01*
X53840D01*
X54428Y24794D01*
X54878Y25244D01*
X55122Y25832D01*
Y26469D01*
X54878Y27057D01*
X54428Y27507D01*
X53840Y27750D01*
D02*
G37*
G36*
X65413Y26372D02*
X64776D01*
X64188Y26129D01*
X63738Y25679D01*
X63494Y25091D01*
Y24454D01*
X63738Y23866D01*
X64188Y23416D01*
X64776Y23172D01*
X65413D01*
X66001Y23416D01*
X66451Y23866D01*
X66694Y24454D01*
Y25091D01*
X66451Y25679D01*
X66001Y26129D01*
X65413Y26372D01*
D02*
G37*
G36*
X219246Y28943D02*
X218155D01*
X217101Y28661D01*
X216156Y28115D01*
X215385Y27344D01*
X214839Y26399D01*
X214557Y25346D01*
Y24254D01*
X214839Y23201D01*
X215385Y22256D01*
X216156Y21485D01*
X217101Y20939D01*
X218155Y20657D01*
X219246D01*
X220299Y20939D01*
X221244Y21485D01*
X222016Y22256D01*
X222561Y23201D01*
X222843Y24254D01*
Y25346D01*
X222561Y26399D01*
X222016Y27344D01*
X221244Y28115D01*
X220299Y28661D01*
X219246Y28943D01*
D02*
G37*
G36*
X102585Y23749D02*
X101948D01*
X101360Y23505D01*
X100910Y23055D01*
X100666Y22467D01*
Y21831D01*
X100910Y21242D01*
X101360Y20792D01*
X101948Y20549D01*
X102585D01*
X103173Y20792D01*
X103623Y21242D01*
X103866Y21831D01*
Y22467D01*
X103623Y23055D01*
X103173Y23505D01*
X102585Y23749D01*
D02*
G37*
G36*
X102266Y18601D02*
X101629D01*
X101041Y18357D01*
X100591Y17907D01*
X100348Y17319D01*
Y16683D01*
X100591Y16095D01*
X101041Y15644D01*
X101629Y15401D01*
X102266D01*
X102854Y15644D01*
X103304Y16095D01*
X103548Y16683D01*
Y17319D01*
X103304Y17907D01*
X102854Y18357D01*
X102266Y18601D01*
D02*
G37*
G36*
X119411Y15870D02*
X118774D01*
X118186Y15626D01*
X117736Y15176D01*
X117492Y14588D01*
Y13951D01*
X117736Y13363D01*
X118186Y12913D01*
X118774Y12670D01*
X119411D01*
X119999Y12913D01*
X120449Y13363D01*
X120693Y13951D01*
Y14588D01*
X120449Y15176D01*
X119999Y15626D01*
X119411Y15870D01*
D02*
G37*
G36*
X149147Y15864D02*
X148511D01*
X147922Y15620D01*
X147472Y15170D01*
X147229Y14582D01*
Y13946D01*
X147472Y13358D01*
X147922Y12908D01*
X148511Y12664D01*
X149147D01*
X149735Y12908D01*
X150185Y13358D01*
X150429Y13946D01*
Y14582D01*
X150185Y15170D01*
X149735Y15620D01*
X149147Y15864D01*
D02*
G37*
G36*
X134251Y15540D02*
X133615D01*
X133026Y15296D01*
X132576Y14846D01*
X132333Y14258D01*
Y13622D01*
X132576Y13033D01*
X133026Y12583D01*
X133566Y12360D01*
X133405Y11973D01*
Y11336D01*
X133649Y10748D01*
X134099Y10298D01*
X134687Y10054D01*
X135324D01*
X135912Y10298D01*
X136362Y10748D01*
X136493Y11064D01*
X136973Y11407D01*
X137609D01*
X138197Y11650D01*
X138647Y12101D01*
X138891Y12689D01*
Y13325D01*
X138647Y13913D01*
X138197Y14363D01*
X137609Y14607D01*
X136973D01*
X136384Y14363D01*
X136033Y14012D01*
X135574Y14139D01*
X135533Y14165D01*
Y14258D01*
X135289Y14846D01*
X134839Y15296D01*
X134251Y15540D01*
D02*
G37*
G36*
X173284Y13060D02*
X172647D01*
X172059Y12816D01*
X171609Y12366D01*
X171366Y11778D01*
Y11141D01*
X171609Y10553D01*
X172059Y10103D01*
X172647Y9860D01*
X173284D01*
X173872Y10103D01*
X174322Y10553D01*
X174566Y11141D01*
Y11778D01*
X174322Y12366D01*
X173872Y12816D01*
X173284Y13060D01*
D02*
G37*
G36*
X91174Y11490D02*
X90538D01*
X89950Y11246D01*
X89500Y10796D01*
X89256Y10208D01*
Y9571D01*
X89500Y8983D01*
X89950Y8533D01*
X90538Y8290D01*
X91174D01*
X91762Y8533D01*
X92212Y8983D01*
X92456Y9571D01*
Y10208D01*
X92212Y10796D01*
X91762Y11246D01*
X91174Y11490D01*
D02*
G37*
G36*
X187163Y5896D02*
X186526D01*
X185938Y5653D01*
X185488Y5203D01*
X185245Y4614D01*
Y3978D01*
X185488Y3390D01*
X185938Y2940D01*
X186526Y2696D01*
X187163D01*
X187751Y2940D01*
X188201Y3390D01*
X188445Y3978D01*
Y4614D01*
X188201Y5203D01*
X187751Y5653D01*
X187163Y5896D01*
D02*
G37*
G36*
X178421D02*
X177785D01*
X177197Y5653D01*
X176746Y5203D01*
X176503Y4614D01*
Y3978D01*
X176746Y3390D01*
X177197Y2940D01*
X177785Y2696D01*
X178421D01*
X179009Y2940D01*
X179459Y3390D01*
X179703Y3978D01*
Y4614D01*
X179459Y5203D01*
X179009Y5653D01*
X178421Y5896D01*
D02*
G37*
%LPD*%
D145*
X157500Y84000D02*
D03*
Y94000D02*
D03*
Y99000D02*
D03*
D147*
X88758Y221509D02*
D03*
D149*
X142469Y164348D02*
D03*
X138531Y164348D02*
D03*
X138531Y160411D02*
D03*
X142469Y160411D02*
D03*
X140500Y162380D02*
D03*
X176865Y136553D02*
D03*
Y133404D02*
D03*
X146307Y203286D02*
D03*
X148276Y206239D02*
D03*
X144339D02*
D03*
Y200333D02*
D03*
X148276D02*
D03*
X47069Y178343D02*
D03*
Y174800D02*
D03*
Y171257D02*
D03*
X43132D02*
D03*
Y174800D02*
D03*
Y178343D02*
D03*
D150*
X188908Y163526D02*
D03*
X169719Y144534D02*
D03*
X166206Y133972D02*
D03*
X168461Y135962D02*
D03*
X94147Y58952D02*
D03*
X31981Y65382D02*
D03*
X81014Y37392D02*
D03*
X98897Y29133D02*
D03*
X114347Y14325D02*
D03*
X91078Y39977D02*
D03*
X184496Y18812D02*
D03*
X77483Y52033D02*
D03*
X100310Y188015D02*
D03*
X122012Y130784D02*
D03*
X74585Y130470D02*
D03*
X32065Y131151D02*
D03*
X22922Y229000D02*
D03*
X66056Y228846D02*
D03*
X107835Y66324D02*
D03*
X148092Y72906D02*
D03*
X157315Y67800D02*
D03*
X150086Y84000D02*
D03*
X149782Y94616D02*
D03*
X149578Y98559D02*
D03*
X169000Y49633D02*
D03*
X163481Y57685D02*
D03*
X193041Y49405D02*
D03*
X166479Y19397D02*
D03*
X74602Y65228D02*
D03*
X56818Y52343D02*
D03*
X46883Y62086D02*
D03*
X152431Y142479D02*
D03*
X153298Y161457D02*
D03*
X165080Y167547D02*
D03*
X223454Y179275D02*
D03*
X165392Y193460D02*
D03*
X134993Y200932D02*
D03*
X134654Y198288D02*
D03*
X148939Y215416D02*
D03*
X150540Y219675D02*
D03*
X19155Y170371D02*
D03*
X64993Y220030D02*
D03*
X81787Y223629D02*
D03*
X51550Y204045D02*
D03*
X24685Y219748D02*
D03*
X222300Y57099D02*
D03*
X188016Y95199D02*
D03*
X136042Y171946D02*
D03*
X38840Y165529D02*
D03*
X155466Y184044D02*
D03*
X130136Y197014D02*
D03*
X168586Y173915D02*
D03*
X130136Y166000D02*
D03*
X146307Y140500D02*
D03*
X91852Y147200D02*
D03*
X130666Y158121D02*
D03*
X122695Y216800D02*
D03*
X206000Y175100D02*
D03*
X196500D02*
D03*
X160000Y121000D02*
D03*
X62810Y52149D02*
D03*
X20200Y211200D02*
D03*
X52414Y213200D02*
D03*
X36487Y154479D02*
D03*
X19042Y178600D02*
D03*
X6459Y195100D02*
D03*
X6413Y187400D02*
D03*
M02*
