G04*
G04 #@! TF.GenerationSoftware,Altium Limited,Altium Designer,21.9.2 (33)*
G04*
G04 Layer_Physical_Order=4*
G04 Layer_Color=16711680*
%FSLAX25Y25*%
%MOIN*%
G70*
G04*
G04 #@! TF.SameCoordinates,C603DD54-685B-4B9A-A4C2-A7D413009CF4*
G04*
G04*
G04 #@! TF.FilePolarity,Positive*
G04*
G01*
G75*
%ADD12C,0.01000*%
%ADD19C,0.00600*%
%ADD143C,0.07087*%
%ADD144R,0.07087X0.07087*%
%ADD145C,0.03960*%
%ADD146R,0.03960X0.03960*%
%ADD147R,0.07087X0.07087*%
%ADD148C,0.14173*%
%ADD149C,0.01968*%
%ADD150C,0.02000*%
G36*
X197929Y212428D02*
X232375D01*
Y68897D01*
X232607Y68665D01*
X229328Y65386D01*
X197484D01*
X197434Y65865D01*
Y103212D01*
X197671Y103323D01*
X197934Y103365D01*
X198328Y102971D01*
X198916Y102727D01*
X199552D01*
X200141Y102971D01*
X200591Y103421D01*
X200834Y104009D01*
Y104646D01*
X200591Y105234D01*
X200141Y105684D01*
X199552Y105927D01*
X198916D01*
X198328Y105684D01*
X197934Y105289D01*
X197671Y105331D01*
X197434Y105443D01*
Y173771D01*
X197856Y174194D01*
X198100Y174782D01*
Y175418D01*
X197856Y176006D01*
X197434Y176429D01*
Y212059D01*
X197866Y212491D01*
X197929Y212428D01*
D02*
G37*
%LPC*%
G36*
X223773Y180875D02*
X223136D01*
X222548Y180631D01*
X222098Y180181D01*
X221854Y179593D01*
Y178956D01*
X222098Y178368D01*
X222548Y177918D01*
X223136Y177675D01*
X223773D01*
X224361Y177918D01*
X224811Y178368D01*
X225055Y178956D01*
Y179593D01*
X224811Y180181D01*
X224361Y180631D01*
X223773Y180875D01*
D02*
G37*
G36*
X206318Y176700D02*
X205682D01*
X205094Y176456D01*
X204644Y176006D01*
X204400Y175418D01*
Y174782D01*
X204644Y174194D01*
X205094Y173744D01*
X205682Y173500D01*
X206318D01*
X206906Y173744D01*
X207356Y174194D01*
X207600Y174782D01*
Y175418D01*
X207356Y176006D01*
X206906Y176456D01*
X206318Y176700D01*
D02*
G37*
G36*
X212245Y106927D02*
X211608D01*
X211020Y106683D01*
X210570Y106233D01*
X210326Y105645D01*
Y105008D01*
X210570Y104420D01*
X211020Y103970D01*
X211608Y103727D01*
X212245D01*
X212833Y103970D01*
X213283Y104420D01*
X213526Y105008D01*
Y105645D01*
X213283Y106233D01*
X212833Y106683D01*
X212245Y106927D01*
D02*
G37*
G36*
X206318Y105805D02*
X205682D01*
X205094Y105562D01*
X204644Y105112D01*
X204400Y104524D01*
Y103887D01*
X204644Y103299D01*
X205094Y102849D01*
X205682Y102605D01*
X206318D01*
X206906Y102849D01*
X207356Y103299D01*
X207600Y103887D01*
Y104524D01*
X207356Y105112D01*
X206906Y105562D01*
X206318Y105805D01*
D02*
G37*
%LPD*%
D12*
X89394Y28161D02*
X92466Y31233D01*
X123542D02*
X148040Y6736D01*
X92466Y31233D02*
X123542D01*
X114992Y75205D02*
X148829Y41368D01*
X98207Y125056D02*
Y131500D01*
X114992Y75205D02*
Y108270D01*
X98207Y125056D02*
X114992Y108270D01*
X148040Y6736D02*
X211655D01*
X64929Y65693D02*
X65200D01*
X36804Y64772D02*
X64008D01*
X64929Y65693D01*
X31038Y59006D02*
X36804Y64772D01*
X118901Y12810D02*
Y14078D01*
X31623Y12225D02*
X118315D01*
X31037Y12810D02*
Y32171D01*
X118315Y12225D02*
X118901Y12810D01*
X31037D02*
X31623Y12225D01*
X229924Y34600D02*
X230509Y34014D01*
Y25589D02*
Y34014D01*
X218700Y34800D02*
X218900Y34600D01*
X229924D01*
X211655Y6736D02*
X230509Y25589D01*
X80347Y28161D02*
X89394D01*
X123516Y33577D02*
X144928Y12164D01*
X170700D01*
X148829Y14264D02*
Y41368D01*
X97744Y33577D02*
X123516D01*
X74452D02*
X97744D01*
X74278Y33750D02*
X74452Y33577D01*
X102931Y36568D02*
Y66500D01*
Y36568D02*
X103804Y35695D01*
X108145D01*
X98457Y34289D02*
Y59700D01*
X97744Y33577D02*
X98457Y34289D01*
X170700Y12164D02*
X172096Y13560D01*
X207460D02*
X218700Y24800D01*
X172096Y13560D02*
X207460D01*
X85500Y56009D02*
X85880Y55629D01*
X85294Y46543D02*
X85880Y47128D01*
X72951Y46543D02*
X85294D01*
X85500Y56009D02*
Y64780D01*
X85880Y47128D02*
Y55629D01*
X65095Y38686D02*
X72951Y46543D01*
X65095Y24772D02*
Y38686D01*
X79583Y61831D02*
Y64506D01*
X53502Y26170D02*
Y35750D01*
X79583Y61831D01*
X53502Y26170D02*
X53522Y26150D01*
X118901Y14078D02*
X119093Y14270D01*
X100310Y188015D02*
X100500Y187825D01*
X149578Y98288D02*
Y98559D01*
X149782Y94461D02*
Y94616D01*
X149578Y98288D02*
X149680Y98186D01*
Y94718D02*
X149782Y94616D01*
X45232Y145000D02*
X158500D01*
X43132Y147100D02*
X45232Y145000D01*
X148090Y200518D02*
X148276Y200333D01*
X148249Y206239D02*
X148276D01*
X146307Y203286D02*
Y203548D01*
X138531Y164348D02*
X138531D01*
X140500Y162380D02*
Y162380D01*
X130666Y158121D02*
X130857Y158312D01*
X129836Y203706D02*
X129945Y203815D01*
X6413Y195146D02*
X6459Y195100D01*
X135305Y204904D02*
X151959Y188250D01*
X180606D02*
X183121Y190765D01*
X151959Y188250D02*
X180606D01*
X129836Y204613D02*
X129945Y204504D01*
Y203815D02*
Y204504D01*
D19*
X43003Y178472D02*
X43132Y178343D01*
X19042Y178600D02*
X19170Y178472D01*
X6436Y195077D02*
X6459Y195100D01*
X6413Y187400D02*
X6436Y187423D01*
X43132Y147100D02*
Y160116D01*
X36566Y163171D02*
X40076D01*
X43132Y160116D01*
D143*
X218700Y24800D02*
D03*
Y34800D02*
D03*
X108758Y221509D02*
D03*
X98758D02*
D03*
D144*
X218700Y44800D02*
D03*
D145*
X162500Y84000D02*
D03*
X157500D02*
D03*
Y94000D02*
D03*
Y89000D02*
D03*
X162500Y94000D02*
D03*
Y89000D02*
D03*
Y99000D02*
D03*
Y104000D02*
D03*
X157500Y99000D02*
D03*
D146*
Y104000D02*
D03*
D147*
X88758Y221509D02*
D03*
D148*
X9252Y9252D02*
D03*
X226969D02*
D03*
X9252Y226969D02*
D03*
X226969D02*
D03*
D149*
X142469Y164348D02*
D03*
X138531Y164348D02*
D03*
X138531Y160411D02*
D03*
X142469Y160411D02*
D03*
X140500Y162380D02*
D03*
X176865Y136553D02*
D03*
Y133404D02*
D03*
X146307Y203286D02*
D03*
X148276Y206239D02*
D03*
X144339D02*
D03*
Y200333D02*
D03*
X148276D02*
D03*
X47069Y178343D02*
D03*
Y174800D02*
D03*
Y171257D02*
D03*
X43132D02*
D03*
Y174800D02*
D03*
Y178343D02*
D03*
D150*
X207101Y68262D02*
D03*
X203451Y68242D02*
D03*
X199760Y68303D02*
D03*
X229789Y207632D02*
D03*
X216436Y192106D02*
D03*
X216480Y197172D02*
D03*
X229866Y194970D02*
D03*
X188908Y163526D02*
D03*
X169719Y144534D02*
D03*
X166206Y133972D02*
D03*
X168461Y135962D02*
D03*
X94147Y58952D02*
D03*
X31981Y65382D02*
D03*
X81014Y37392D02*
D03*
X98897Y29133D02*
D03*
X207144Y71046D02*
D03*
X203118Y71424D02*
D03*
X199784D02*
D03*
X229733Y199111D02*
D03*
X226100Y205869D02*
D03*
X229673Y203851D02*
D03*
X109330Y171510D02*
D03*
X105543Y152909D02*
D03*
X100500Y154479D02*
D03*
X141466Y173896D02*
D03*
X145401Y175997D02*
D03*
X138759Y172079D02*
D03*
X138068Y175437D02*
D03*
X128605Y224014D02*
D03*
X122397Y224296D02*
D03*
X116866Y224183D02*
D03*
X187014Y104369D02*
D03*
X199234Y104327D02*
D03*
X206000Y104205D02*
D03*
X183748Y97362D02*
D03*
X177640D02*
D03*
X172826Y97434D02*
D03*
X141248Y89986D02*
D03*
X135725Y90669D02*
D03*
X149497Y102210D02*
D03*
X151782Y102295D02*
D03*
X189309Y42911D02*
D03*
X186845Y4296D02*
D03*
X178103D02*
D03*
X133933Y13940D02*
D03*
X135005Y11654D02*
D03*
X137291Y13007D02*
D03*
X140959Y68659D02*
D03*
X134417Y68736D02*
D03*
X127685Y68850D02*
D03*
X60297Y66928D02*
D03*
X65200Y65693D02*
D03*
X57701Y26664D02*
D03*
X114347Y14325D02*
D03*
X90856Y9889D02*
D03*
X101948Y17001D02*
D03*
X102266Y22149D02*
D03*
X107140Y38981D02*
D03*
X107006Y42690D02*
D03*
X106956Y46834D02*
D03*
X56910Y56433D02*
D03*
X65628Y61836D02*
D03*
X49422Y27203D02*
D03*
X45618Y27415D02*
D03*
X46231Y32983D02*
D03*
X61323Y56878D02*
D03*
X91078Y39977D02*
D03*
X108145Y35695D02*
D03*
X184496Y18812D02*
D03*
X80347Y28161D02*
D03*
X77483Y52033D02*
D03*
X79583Y64506D02*
D03*
X100310Y188015D02*
D03*
X122012Y130784D02*
D03*
X74585Y130470D02*
D03*
X32065Y131151D02*
D03*
X22922Y229000D02*
D03*
X66056Y228846D02*
D03*
X107835Y66324D02*
D03*
X148092Y72906D02*
D03*
X157315Y67800D02*
D03*
X150086Y84000D02*
D03*
X149782Y94616D02*
D03*
X149578Y98559D02*
D03*
X169000Y49633D02*
D03*
X163481Y57685D02*
D03*
X193041Y49405D02*
D03*
X166479Y19397D02*
D03*
X74602Y65228D02*
D03*
X56818Y52343D02*
D03*
X46883Y62086D02*
D03*
X152431Y142479D02*
D03*
X153298Y161457D02*
D03*
X165080Y167547D02*
D03*
X223454Y179275D02*
D03*
X165392Y193460D02*
D03*
X134993Y200932D02*
D03*
X134654Y198288D02*
D03*
X148939Y215416D02*
D03*
X150540Y219675D02*
D03*
X19155Y170371D02*
D03*
X64993Y220030D02*
D03*
X81787Y223629D02*
D03*
X51550Y204045D02*
D03*
X24685Y219748D02*
D03*
X222300Y57099D02*
D03*
X188016Y95199D02*
D03*
X194641Y104291D02*
D03*
X211926Y105327D02*
D03*
X136042Y171946D02*
D03*
X126858Y163364D02*
D03*
X38840Y165529D02*
D03*
X34666Y174167D02*
D03*
X172966Y11460D02*
D03*
X148829Y14264D02*
D03*
X155466Y184044D02*
D03*
X31038Y59006D02*
D03*
X158500Y145000D02*
D03*
X136199Y205254D02*
D03*
X130136Y197014D02*
D03*
X36566Y163171D02*
D03*
X168586Y173915D02*
D03*
X98457Y59700D02*
D03*
X139049Y92200D02*
D03*
X65095Y24772D02*
D03*
X85500Y64780D02*
D03*
X53522Y26150D02*
D03*
X119093Y14270D02*
D03*
X31037Y32171D02*
D03*
X130136Y166000D02*
D03*
X146307Y140500D02*
D03*
X141484Y151150D02*
D03*
X91852Y147200D02*
D03*
X130666Y158121D02*
D03*
X122695Y216800D02*
D03*
X130136Y203606D02*
D03*
X206000Y175100D02*
D03*
X196500D02*
D03*
X184015Y191115D02*
D03*
X160000Y121000D02*
D03*
X174500Y80500D02*
D03*
X102931Y66500D02*
D03*
X134357Y84586D02*
D03*
X151444Y105807D02*
D03*
X62810Y52149D02*
D03*
X98207Y131500D02*
D03*
X162500Y79512D02*
D03*
X74278Y33750D02*
D03*
X53706Y173914D02*
D03*
X20200Y211200D02*
D03*
X52414Y213200D02*
D03*
X46202Y163613D02*
D03*
X43132Y147100D02*
D03*
X36487Y154479D02*
D03*
X19042Y178600D02*
D03*
X6459Y195100D02*
D03*
X6413Y187400D02*
D03*
X31754Y189000D02*
D03*
X25454Y190208D02*
D03*
X22647D02*
D03*
X25454Y195831D02*
D03*
X22647D02*
D03*
M02*
