G04*
G04 #@! TF.GenerationSoftware,Altium Limited,Altium Designer,21.9.2 (33)*
G04*
G04 Layer_Color=8421504*
%FSLAX25Y25*%
%MOIN*%
G70*
G04*
G04 #@! TF.SameCoordinates,C603DD54-685B-4B9A-A4C2-A7D413009CF4*
G04*
G04*
G04 #@! TF.FilePolarity,Positive*
G04*
G01*
G75*
%ADD20R,0.02756X0.02756*%
%ADD21R,0.02756X0.02756*%
%ADD22R,0.03362X0.05772*%
%ADD23R,0.02677X0.04134*%
%ADD24R,0.01024X0.01968*%
%ADD25R,0.08661X0.10630*%
%ADD26R,0.08465X0.12795*%
%ADD27R,0.08465X0.03740*%
%ADD28R,0.07874X0.07874*%
%ADD29R,0.04724X0.02756*%
%ADD30R,0.02756X0.04724*%
%ADD31O,0.00906X0.03150*%
%ADD32O,0.03150X0.00906*%
%ADD33R,0.05315X0.06102*%
%ADD34R,0.05512X0.04134*%
%ADD35R,0.03543X0.03937*%
%ADD36R,0.03543X0.02756*%
%ADD37R,0.04134X0.02559*%
G04:AMPARAMS|DCode=38|XSize=19.68mil|YSize=19.68mil|CornerRadius=2.46mil|HoleSize=0mil|Usage=FLASHONLY|Rotation=270.000|XOffset=0mil|YOffset=0mil|HoleType=Round|Shape=RoundedRectangle|*
%AMROUNDEDRECTD38*
21,1,0.01968,0.01476,0,0,270.0*
21,1,0.01476,0.01968,0,0,270.0*
1,1,0.00492,-0.00738,-0.00738*
1,1,0.00492,-0.00738,0.00738*
1,1,0.00492,0.00738,0.00738*
1,1,0.00492,0.00738,-0.00738*
%
%ADD38ROUNDEDRECTD38*%
%ADD39C,0.05000*%
%ADD40R,0.02756X0.02362*%
%ADD41R,0.02756X0.03937*%
%ADD42R,0.03937X0.05512*%
%ADD43R,0.07480X0.05315*%
%ADD44R,0.04724X0.03937*%
%ADD45R,0.06102X0.05315*%
%ADD46R,0.03347X0.04331*%
%ADD47R,0.02953X0.04331*%
%ADD48R,0.04606X0.07087*%
%ADD49R,0.04724X0.04724*%
%ADD50R,0.04724X0.04724*%
%ADD51R,0.03150X0.03150*%
%ADD52R,0.04724X0.07480*%
%ADD53R,0.06299X0.07480*%
%ADD54R,0.08268X0.07874*%
%ADD55R,0.01575X0.05315*%
%ADD56R,0.04940X0.05733*%
%ADD57R,0.01772X0.02362*%
G04:AMPARAMS|DCode=58|XSize=9.84mil|YSize=19.68mil|CornerRadius=1.97mil|HoleSize=0mil|Usage=FLASHONLY|Rotation=90.000|XOffset=0mil|YOffset=0mil|HoleType=Round|Shape=RoundedRectangle|*
%AMROUNDEDRECTD58*
21,1,0.00984,0.01575,0,0,90.0*
21,1,0.00591,0.01968,0,0,90.0*
1,1,0.00394,0.00787,0.00295*
1,1,0.00394,0.00787,-0.00295*
1,1,0.00394,-0.00787,-0.00295*
1,1,0.00394,-0.00787,0.00295*
%
%ADD58ROUNDEDRECTD58*%
G04:AMPARAMS|DCode=59|XSize=9.06mil|YSize=31.5mil|CornerRadius=1mil|HoleSize=0mil|Usage=FLASHONLY|Rotation=90.000|XOffset=0mil|YOffset=0mil|HoleType=Round|Shape=RoundedRectangle|*
%AMROUNDEDRECTD59*
21,1,0.00906,0.02950,0,0,90.0*
21,1,0.00706,0.03150,0,0,90.0*
1,1,0.00200,0.01475,0.00353*
1,1,0.00200,0.01475,-0.00353*
1,1,0.00200,-0.01475,-0.00353*
1,1,0.00200,-0.01475,0.00353*
%
%ADD59ROUNDEDRECTD59*%
%ADD60R,0.09843X0.06693*%
%ADD61R,0.01575X0.00984*%
%ADD62R,0.06299X0.09843*%
%ADD63R,0.03858X0.13386*%
%ADD64R,0.05118X0.04134*%
%ADD65R,0.04528X0.05709*%
%ADD66R,0.03937X0.03543*%
%ADD67R,0.04331X0.04331*%
%ADD68R,0.02835X0.02362*%
%ADD69R,0.07480X0.04331*%
%ADD70R,0.05709X0.04528*%
%ADD71R,0.04134X0.05512*%
%ADD72R,0.02756X0.03543*%
D20*
X142272Y164151D02*
D03*
X138728Y160608D02*
D03*
D21*
X138728Y164151D02*
D03*
X142272Y160608D02*
D03*
D22*
X176865Y134978D02*
D03*
D23*
X144535Y205786D02*
D03*
X148079D02*
D03*
Y200786D02*
D03*
X144535D02*
D03*
D24*
X145323Y209703D02*
D03*
X147291D02*
D03*
Y196869D02*
D03*
X145323D02*
D03*
D25*
X201873Y126523D02*
D03*
Y146602D02*
D03*
D26*
X221417Y86500D02*
D03*
D27*
X198583Y77445D02*
D03*
Y86500D02*
D03*
Y95555D02*
D03*
D28*
X48108Y102538D02*
D03*
X56840D02*
D03*
X48108Y93947D02*
D03*
X56840D02*
D03*
X96360Y101727D02*
D03*
X107600D02*
D03*
X96360Y90215D02*
D03*
X107600D02*
D03*
D29*
X127502Y79512D02*
D03*
Y122031D02*
D03*
Y117307D02*
D03*
Y112583D02*
D03*
Y107858D02*
D03*
Y103134D02*
D03*
Y98409D02*
D03*
Y93685D02*
D03*
Y88961D02*
D03*
Y84236D02*
D03*
Y74787D02*
D03*
D30*
X32065Y124803D02*
D03*
X36789D02*
D03*
X41514D02*
D03*
X46238D02*
D03*
X50963D02*
D03*
X55687D02*
D03*
X60411D02*
D03*
X65136D02*
D03*
X69860D02*
D03*
X74585D02*
D03*
X79309D02*
D03*
X84034D02*
D03*
X88758D02*
D03*
X93482D02*
D03*
X98207D02*
D03*
X102931D02*
D03*
X107656D02*
D03*
X112380D02*
D03*
X117104D02*
D03*
X121829D02*
D03*
Y72047D02*
D03*
X117104D02*
D03*
X112380D02*
D03*
X107656D02*
D03*
X102931D02*
D03*
X98207D02*
D03*
X93482D02*
D03*
X88758D02*
D03*
X84034D02*
D03*
X79309D02*
D03*
X74585D02*
D03*
X69860D02*
D03*
X65136D02*
D03*
X60411D02*
D03*
X55687D02*
D03*
X50963D02*
D03*
X46238D02*
D03*
X41514D02*
D03*
X36789D02*
D03*
X32065D02*
D03*
D31*
X143453Y168187D02*
D03*
X141484D02*
D03*
X139516D02*
D03*
X137547D02*
D03*
Y156572D02*
D03*
X139516D02*
D03*
X141484D02*
D03*
X143453D02*
D03*
D32*
X134693Y165332D02*
D03*
Y163364D02*
D03*
Y161395D02*
D03*
Y159427D02*
D03*
X146307D02*
D03*
Y161395D02*
D03*
Y163364D02*
D03*
Y165332D02*
D03*
D33*
X196887Y114547D02*
D03*
X189209D02*
D03*
D34*
X176139Y119947D02*
D03*
Y112466D02*
D03*
X213000Y68440D02*
D03*
Y60960D02*
D03*
D35*
X97556Y22236D02*
D03*
X91257D02*
D03*
X31754Y211200D02*
D03*
X25454D02*
D03*
X17913Y195100D02*
D03*
X11613D02*
D03*
X30000Y178600D02*
D03*
X23701D02*
D03*
X30507Y170371D02*
D03*
X24208D02*
D03*
X170500Y67800D02*
D03*
X164201D02*
D03*
X149167Y117500D02*
D03*
X155466D02*
D03*
X149167Y124803D02*
D03*
X155466D02*
D03*
X178197Y10515D02*
D03*
X184496D02*
D03*
X54250Y147100D02*
D03*
X47950D02*
D03*
X17800Y163150D02*
D03*
X24099D02*
D03*
X156804Y173914D02*
D03*
X163103D02*
D03*
X104046Y12529D02*
D03*
X97747D02*
D03*
X171599Y5082D02*
D03*
X165300D02*
D03*
X174139Y43000D02*
D03*
X180438D02*
D03*
X194350Y193811D02*
D03*
X200650D02*
D03*
X176815Y193460D02*
D03*
X170516D02*
D03*
X131000Y208793D02*
D03*
X124701D02*
D03*
X135067Y150000D02*
D03*
X128768D02*
D03*
X120740Y160581D02*
D03*
X114441D02*
D03*
X158615Y167547D02*
D03*
X152316D02*
D03*
D36*
X66297Y57555D02*
D03*
Y52043D02*
D03*
D37*
X189339Y57665D02*
D03*
X173000D02*
D03*
Y49200D02*
D03*
X189339D02*
D03*
D38*
X94407Y37461D02*
D03*
X91257D02*
D03*
X88108D02*
D03*
X84879D02*
D03*
X84958Y28012D02*
D03*
X88108D02*
D03*
X91257D02*
D03*
X94407D02*
D03*
D39*
X212988Y53523D02*
D03*
X165599Y152216D02*
D03*
X69860Y134000D02*
D03*
X69917Y220192D02*
D03*
X59886Y139000D02*
D03*
X164100Y182481D02*
D03*
X165480Y13342D02*
D03*
X166763Y43118D02*
D03*
X53522Y6500D02*
D03*
X31037Y38135D02*
D03*
X71486Y7562D02*
D03*
X156632Y5082D02*
D03*
X138738Y85225D02*
D03*
X149211Y90215D02*
D03*
X147400Y106500D02*
D03*
X169500Y78500D02*
D03*
X178000Y77086D02*
D03*
X70828Y61099D02*
D03*
X70670Y31000D02*
D03*
X90727Y15790D02*
D03*
X77230Y59896D02*
D03*
X78300Y32701D02*
D03*
X98332Y65115D02*
D03*
X41439Y32913D02*
D03*
X167378Y57685D02*
D03*
X178427Y103396D02*
D03*
X223454Y199030D02*
D03*
D40*
X39451Y201913D02*
D03*
X47325Y209393D02*
D03*
X39451D02*
D03*
D41*
X47325Y202700D02*
D03*
D42*
X31500Y193764D02*
D03*
Y204000D02*
D03*
D43*
X122301Y61523D02*
D03*
X145805D02*
D03*
D44*
X159585Y43118D02*
D03*
Y57685D02*
D03*
D45*
X158896Y19397D02*
D03*
D46*
X149211Y18905D02*
D03*
X144880D02*
D03*
X140549D02*
D03*
X136219D02*
D03*
X131888D02*
D03*
X127557D02*
D03*
X123226D02*
D03*
D47*
X119093D02*
D03*
D48*
X114329Y20283D02*
D03*
D49*
X108071Y160778D02*
D03*
X99804D02*
D03*
X120652Y147200D02*
D03*
X112385D02*
D03*
D50*
X54250Y161836D02*
D03*
Y153568D02*
D03*
D51*
X108145Y26347D02*
D03*
Y32253D02*
D03*
D52*
X47305Y229000D02*
D03*
X40612D02*
D03*
D53*
X60100D02*
D03*
X27817D02*
D03*
D54*
X56163Y219748D02*
D03*
X31754D02*
D03*
D55*
X49076Y218468D02*
D03*
X46517D02*
D03*
X43958D02*
D03*
X41399D02*
D03*
X38840D02*
D03*
D56*
X203996Y163380D02*
D03*
X197494D02*
D03*
D57*
X178695Y144534D02*
D03*
X174955D02*
D03*
D58*
X173125Y137931D02*
D03*
Y135962D02*
D03*
Y133994D02*
D03*
Y132026D02*
D03*
X180605D02*
D03*
Y133994D02*
D03*
Y135962D02*
D03*
Y137931D02*
D03*
D59*
X140500Y207223D02*
D03*
Y205254D02*
D03*
Y203286D02*
D03*
Y201317D02*
D03*
Y199349D02*
D03*
X152114D02*
D03*
Y201317D02*
D03*
Y203286D02*
D03*
Y205254D02*
D03*
Y207223D02*
D03*
D60*
X201000Y205035D02*
D03*
X185252D02*
D03*
D61*
X39785Y179229D02*
D03*
Y177457D02*
D03*
Y175686D02*
D03*
Y173914D02*
D03*
Y172143D02*
D03*
Y170371D02*
D03*
X50415D02*
D03*
Y172143D02*
D03*
Y173914D02*
D03*
Y175686D02*
D03*
Y177457D02*
D03*
Y179229D02*
D03*
D62*
X45100Y174800D02*
D03*
D63*
X164335Y209799D02*
D03*
X173665D02*
D03*
D64*
X222300Y68700D02*
D03*
Y62991D02*
D03*
X223454Y193460D02*
D03*
Y187752D02*
D03*
D65*
X148315Y181190D02*
D03*
X141228D02*
D03*
X17800Y187400D02*
D03*
X10713D02*
D03*
X60411Y62086D02*
D03*
X53325D02*
D03*
X136457Y78000D02*
D03*
X143543D02*
D03*
X105543Y147100D02*
D03*
X98457D02*
D03*
D66*
X152316Y157628D02*
D03*
Y151329D02*
D03*
X42015Y191779D02*
D03*
Y185479D02*
D03*
X48515D02*
D03*
Y191779D02*
D03*
X40966Y161271D02*
D03*
Y154972D02*
D03*
X56163Y199803D02*
D03*
Y206103D02*
D03*
X124463Y196216D02*
D03*
Y202516D02*
D03*
X156000Y219750D02*
D03*
Y213450D02*
D03*
X117590Y216806D02*
D03*
Y210506D02*
D03*
X30500Y163150D02*
D03*
Y156850D02*
D03*
X53522Y13196D02*
D03*
Y19496D02*
D03*
X31037Y45980D02*
D03*
Y52280D02*
D03*
X65136Y13196D02*
D03*
Y19496D02*
D03*
X178000Y85225D02*
D03*
Y91524D02*
D03*
Y64490D02*
D03*
Y70789D02*
D03*
X146307Y145350D02*
D03*
Y151650D02*
D03*
X50400Y31836D02*
D03*
Y38135D02*
D03*
X102182Y38787D02*
D03*
Y45086D02*
D03*
D67*
X50400Y45400D02*
D03*
Y52487D02*
D03*
X85682Y52280D02*
D03*
Y45193D02*
D03*
X94382Y52280D02*
D03*
Y45193D02*
D03*
D68*
X70828Y45156D02*
D03*
X67010D02*
D03*
X63191D02*
D03*
X59372D02*
D03*
Y39644D02*
D03*
X63191D02*
D03*
X67010D02*
D03*
X70828D02*
D03*
D69*
X138738Y119500D02*
D03*
Y109658D02*
D03*
D70*
X100500Y195732D02*
D03*
Y202819D02*
D03*
X109000Y195765D02*
D03*
Y202852D02*
D03*
X117254Y195765D02*
D03*
Y202852D02*
D03*
X196500Y187100D02*
D03*
Y180013D02*
D03*
X206000Y187143D02*
D03*
Y180057D02*
D03*
D71*
X218740Y204600D02*
D03*
X211260D02*
D03*
X123044Y171510D02*
D03*
X115564D02*
D03*
D72*
X57625Y31443D02*
D03*
X63136D02*
D03*
M02*
