M48
;Layer_Color=9474304
;FILE_FORMAT=2:5
INCH,LZ
;TYPE=PLATED
T1F00S00C0.00787
T2F00S00C0.00800
T3F00S00C0.02560
T4F00S00C0.05000
T5F00S00C0.10630
%
T01
X0176865Y0133404
Y0136553
X0047069Y0171257
Y01748
Y0178343
X0043132
Y01748
Y0171257
X0138531Y0164348
X01405Y016238
X0142469Y0164348
X0142469Y0160411
X0138531Y0160411
X0144339Y0200333
X0148276
X0146307Y0203286
X0148276Y0206239
X0144339
T02
X0090856Y0009889
X0101948Y0017001
X0102266Y0022149
X0098897Y0029133
X0108145Y0035695
X010714Y0038981
X0107006Y004269
X0106956Y0046834
X0107835Y0066324
X0102931Y00665
X0098457Y00597
X0094147Y0058952
X0091078Y0039977
X0114347Y0014325
X0119093Y001427
X0133933Y001394
X0135005Y0011654
X0137291Y0013007
X0148829Y0014264
X0166479Y0019397
X0172966Y001146
X0178103Y0004296
X0186845
X0184496Y0018812
X0189309Y0042911
X0193041Y0049405
X0169Y0049633
X0163481Y0057685
X0157315Y00678
X0148092Y0072906
X0140959Y0068659
X0134417Y0068736
X0127685Y006885
X0134357Y0084586
X0135725Y0090669
X0139049Y00922
X0141248Y0089986
X0149782Y0094616
X0149578Y0098559
X0149497Y010221
X0151782Y0102295
X0151444Y0105807
X0150086Y0084
X01625Y0079512
X01745Y00805
X0172826Y0097434
X017764Y0097362
X0183748
X0188016Y0095199
X0187014Y0104369
X0194641Y0104291
X0199234Y0104327
X0206Y0104205
X0211926Y0105327
X0207144Y0071046
X0207101Y0068262
X0203451Y0068242
X0203118Y0071424
X0199784
X019976Y0068303
X02223Y0057099
X016Y0121
X0166206Y0133972
X0168461Y0135962
X0152431Y0142479
X0146307Y01405
X0122012Y0130784
X0098207Y01315
X0074585Y013047
X0032065Y0131151
X0031981Y0065382
X0031038Y0059006
X0046883Y0062086
X005691Y0056433
X0056818Y0052343
X006281Y0052149
X0061323Y0056878
X0065628Y0061836
X00652Y0065693
X0060297Y0066928
X0074602Y0065228
X0079583Y0064506
X00855Y006478
X0077483Y0052033
X0081014Y0037392
X0080347Y0028161
X0074278Y003375
X0065095Y0024772
X0057701Y0026664
X0053522Y002615
X0049422Y0027203
X0045618Y0027415
X0046231Y0032983
X0031037Y0032171
X0043132Y01471
X0036487Y0154479
X0036566Y0163171
X003884Y0165529
X0046202Y0163613
X0053706Y0173914
X0034666Y0174167
X0031754Y0189
X0025454Y0190208
X0022647
Y0195831
X0025454
X0006459Y01951
X0006413Y01874
X0019042Y01786
X0019155Y0170371
X00202Y02112
X0024685Y0219748
X0022922Y0229
X0066056Y0228846
X0064993Y022003
X0052414Y02132
X005155Y0204045
X0081787Y0223629
X0116866Y0224183
X0122397Y0224296
X0128605Y0224014
X0122695Y02168
X0130136Y0203606
Y0197014
X0134654Y0198288
X0134993Y0200932
X0136199Y0205254
X0148939Y0215416
X015054Y0219675
X0155466Y0184044
X0145401Y0175997
X0141466Y0173896
X0138759Y0172079
X0136042Y0171946
X0138068Y0175437
X0130136Y0166
X0126858Y0163364
X0130666Y0158121
X0141484Y015115
X0153298Y0161457
X016508Y0167547
X0168586Y0173915
X0165392Y019346
X0184015Y0191115
X01965Y01751
X0206
X0223454Y0179275
X0216436Y0192106
X021648Y0197172
X0229733Y0199111
X0229866Y019497
X0229673Y0203851
X0229789Y0207632
X02261Y0205869
X0188908Y0163526
X0169719Y0144534
X01585Y0145
X0105543Y0152909
X01005Y0154479
X0091852Y01472
X010933Y017151
X010031Y0188015
T03
X01575Y0084
X01625
Y0089
X01575
Y0094
X01625
Y0099
Y0104
X01575
Y0099
T04
X02187Y00248
Y00348
Y00448
X0108758Y0221509
X0098758
X0088758
T05
X0226969Y0009252
X0009252
Y0226969
X0226969
M30
