G04*
G04 #@! TF.GenerationSoftware,Altium Limited,Altium Designer,21.9.2 (33)*
G04*
G04 Layer_Color=8388736*
%FSLAX25Y25*%
%MOIN*%
G70*
G04*
G04 #@! TF.SameCoordinates,C603DD54-685B-4B9A-A4C2-A7D413009CF4*
G04*
G04*
G04 #@! TF.FilePolarity,Negative*
G04*
G01*
G75*
%ADD39C,0.05000*%
%ADD56R,0.04940X0.05733*%
%ADD57R,0.01772X0.02362*%
%ADD73R,0.09061X0.11030*%
%ADD74R,0.08865X0.13195*%
%ADD75R,0.08865X0.04140*%
%ADD76R,0.08874X0.08874*%
%ADD77R,0.08274X0.08274*%
%ADD78R,0.05124X0.03156*%
%ADD79R,0.03156X0.05124*%
%ADD80O,0.01654X0.03898*%
%ADD81O,0.03898X0.01654*%
%ADD82R,0.07244X0.07244*%
%ADD83R,0.05715X0.06502*%
%ADD84R,0.05912X0.04534*%
%ADD85R,0.03943X0.04337*%
%ADD86R,0.03943X0.03156*%
%ADD87R,0.04534X0.02959*%
G04:AMPARAMS|DCode=88|XSize=23.68mil|YSize=23.68mil|CornerRadius=4.46mil|HoleSize=0mil|Usage=FLASHONLY|Rotation=270.000|XOffset=0mil|YOffset=0mil|HoleType=Round|Shape=RoundedRectangle|*
%AMROUNDEDRECTD88*
21,1,0.02368,0.01476,0,0,270.0*
21,1,0.01476,0.02368,0,0,270.0*
1,1,0.00892,-0.00738,-0.00738*
1,1,0.00892,-0.00738,0.00738*
1,1,0.00892,0.00738,0.00738*
1,1,0.00892,0.00738,-0.00738*
%
%ADD88ROUNDEDRECTD88*%
%ADD89R,0.03156X0.02762*%
%ADD90R,0.03156X0.04337*%
%ADD91R,0.04337X0.05912*%
%ADD92R,0.07880X0.05715*%
%ADD93R,0.05124X0.04337*%
%ADD94R,0.06502X0.05715*%
%ADD95R,0.03747X0.04731*%
%ADD96R,0.03353X0.04731*%
%ADD97R,0.05006X0.07487*%
%ADD98R,0.05124X0.05124*%
%ADD99R,0.05124X0.05124*%
%ADD100R,0.03550X0.03550*%
%ADD101R,0.05124X0.07880*%
%ADD102R,0.06699X0.07880*%
%ADD103R,0.08668X0.08274*%
%ADD104R,0.01975X0.05715*%
%ADD105C,0.10000*%
G04:AMPARAMS|DCode=106|XSize=13.84mil|YSize=23.68mil|CornerRadius=3.97mil|HoleSize=0mil|Usage=FLASHONLY|Rotation=90.000|XOffset=0mil|YOffset=0mil|HoleType=Round|Shape=RoundedRectangle|*
%AMROUNDEDRECTD106*
21,1,0.01384,0.01575,0,0,90.0*
21,1,0.00591,0.02368,0,0,90.0*
1,1,0.00794,0.00787,0.00295*
1,1,0.00794,0.00787,-0.00295*
1,1,0.00794,-0.00787,-0.00295*
1,1,0.00794,-0.00787,0.00295*
%
%ADD106ROUNDEDRECTD106*%
G04:AMPARAMS|DCode=107|XSize=39.43mil|YSize=66.99mil|CornerRadius=3.95mil|HoleSize=0mil|Usage=FLASHONLY|Rotation=0.000|XOffset=0mil|YOffset=0mil|HoleType=Round|Shape=RoundedRectangle|*
%AMROUNDEDRECTD107*
21,1,0.03943,0.05909,0,0,0.0*
21,1,0.03154,0.06699,0,0,0.0*
1,1,0.00790,0.01577,-0.02955*
1,1,0.00790,-0.01577,-0.02955*
1,1,0.00790,-0.01577,0.02955*
1,1,0.00790,0.01577,0.02955*
%
%ADD107ROUNDEDRECTD107*%
G04:AMPARAMS|DCode=108|XSize=70.47mil|YSize=100mil|CornerRadius=4.71mil|HoleSize=0mil|Usage=FLASHONLY|Rotation=0.000|XOffset=0mil|YOffset=0mil|HoleType=Round|Shape=RoundedRectangle|*
%AMROUNDEDRECTD108*
21,1,0.07047,0.09059,0,0,0.0*
21,1,0.06106,0.10000,0,0,0.0*
1,1,0.00941,0.03053,-0.04530*
1,1,0.00941,-0.03053,-0.04530*
1,1,0.00941,-0.03053,0.04530*
1,1,0.00941,0.03053,0.04530*
%
%ADD108ROUNDEDRECTD108*%
G04:AMPARAMS|DCode=109|XSize=16.54mil|YSize=38.98mil|CornerRadius=4.74mil|HoleSize=0mil|Usage=FLASHONLY|Rotation=90.000|XOffset=0mil|YOffset=0mil|HoleType=Round|Shape=RoundedRectangle|*
%AMROUNDEDRECTD109*
21,1,0.01654,0.02950,0,0,90.0*
21,1,0.00706,0.03898,0,0,90.0*
1,1,0.00948,0.01475,0.00353*
1,1,0.00948,0.01475,-0.00353*
1,1,0.00948,-0.01475,-0.00353*
1,1,0.00948,-0.01475,0.00353*
%
%ADD109ROUNDEDRECTD109*%
%ADD110R,0.10243X0.07093*%
%ADD111R,0.01975X0.01384*%
%ADD112R,0.07102X0.10646*%
%ADD113R,0.04258X0.13786*%
%ADD114R,0.05518X0.04534*%
%ADD115R,0.04928X0.06109*%
%ADD116R,0.04337X0.03943*%
%ADD117R,0.04731X0.04731*%
%ADD118R,0.03235X0.02762*%
%ADD119R,0.07880X0.04731*%
%ADD120R,0.06109X0.04928*%
%ADD121R,0.04534X0.05912*%
%ADD122R,0.03156X0.03943*%
%ADD123R,0.01502X0.03156*%
%ADD124C,0.07487*%
%ADD125R,0.07487X0.07487*%
%ADD126C,0.04360*%
%ADD127R,0.04360X0.04360*%
%ADD128R,0.07487X0.07487*%
%ADD129C,0.14573*%
%ADD130C,0.02520*%
%ADD131C,0.02368*%
%ADD132C,0.02400*%
G36*
X144783Y169587D02*
Y166000D01*
X148374D01*
Y158815D01*
X144783D01*
Y155512D01*
X144201Y154929D01*
X136524D01*
Y158815D01*
X133238D01*
X132626Y159427D01*
Y165332D01*
Y166000D01*
X136524D01*
Y169639D01*
X136576Y169691D01*
X144679D01*
X144783Y169587D01*
D02*
G37*
D39*
X212988Y53523D02*
D03*
X165599Y152216D02*
D03*
X69860Y134000D02*
D03*
X69917Y220192D02*
D03*
X59886Y139000D02*
D03*
X164100Y182481D02*
D03*
X165480Y13342D02*
D03*
X166763Y43118D02*
D03*
X53522Y6500D02*
D03*
X31037Y38135D02*
D03*
X71486Y7562D02*
D03*
X156632Y5082D02*
D03*
X138738Y85225D02*
D03*
X149211Y90215D02*
D03*
X147400Y106500D02*
D03*
X169500Y78500D02*
D03*
X178000Y77086D02*
D03*
X70828Y61099D02*
D03*
X70670Y31000D02*
D03*
X90727Y15790D02*
D03*
X77230Y59896D02*
D03*
X78300Y32701D02*
D03*
X98332Y65115D02*
D03*
X41439Y32913D02*
D03*
X167378Y57685D02*
D03*
X178427Y103396D02*
D03*
X223454Y199030D02*
D03*
D56*
X203996Y163380D02*
D03*
X197494D02*
D03*
D57*
X178695Y144534D02*
D03*
X174955D02*
D03*
D73*
X201873Y126523D02*
D03*
Y146602D02*
D03*
D74*
X221417Y86500D02*
D03*
D75*
X198583Y77445D02*
D03*
Y86500D02*
D03*
Y95555D02*
D03*
D76*
X48108Y102538D02*
D03*
X56840D02*
D03*
X48108Y93947D02*
D03*
X56840D02*
D03*
D77*
X96360Y101727D02*
D03*
X107600D02*
D03*
X96360Y90215D02*
D03*
X107600D02*
D03*
D78*
X127502Y79512D02*
D03*
Y122031D02*
D03*
Y117307D02*
D03*
Y112583D02*
D03*
Y107858D02*
D03*
Y103134D02*
D03*
Y98409D02*
D03*
Y93685D02*
D03*
Y88961D02*
D03*
Y84236D02*
D03*
Y74787D02*
D03*
D79*
X32065Y124803D02*
D03*
X36789D02*
D03*
X41514D02*
D03*
X46238D02*
D03*
X50963D02*
D03*
X55687D02*
D03*
X60411D02*
D03*
X65136D02*
D03*
X69860D02*
D03*
X74585D02*
D03*
X79309D02*
D03*
X84034D02*
D03*
X88758D02*
D03*
X93482D02*
D03*
X98207D02*
D03*
X102931D02*
D03*
X107656D02*
D03*
X112380D02*
D03*
X117104D02*
D03*
X121829D02*
D03*
Y72047D02*
D03*
X117104D02*
D03*
X112380D02*
D03*
X107656D02*
D03*
X102931D02*
D03*
X98207D02*
D03*
X93482D02*
D03*
X88758D02*
D03*
X84034D02*
D03*
X79309D02*
D03*
X74585D02*
D03*
X69860D02*
D03*
X65136D02*
D03*
X60411D02*
D03*
X55687D02*
D03*
X50963D02*
D03*
X46238D02*
D03*
X41514D02*
D03*
X36789D02*
D03*
X32065D02*
D03*
D80*
X143453Y168187D02*
D03*
X141484D02*
D03*
X139516D02*
D03*
X137547D02*
D03*
Y156572D02*
D03*
X139516D02*
D03*
X141484D02*
D03*
X143453D02*
D03*
D81*
X134693Y165332D02*
D03*
Y163364D02*
D03*
Y161395D02*
D03*
Y159427D02*
D03*
X146307D02*
D03*
Y161395D02*
D03*
Y163364D02*
D03*
Y165332D02*
D03*
D82*
X140500Y162380D02*
D03*
D83*
X196887Y114547D02*
D03*
X189209D02*
D03*
D84*
X176139Y119947D02*
D03*
Y112466D02*
D03*
X213000Y68440D02*
D03*
Y60960D02*
D03*
D85*
X97556Y22236D02*
D03*
X91257D02*
D03*
X31754Y211200D02*
D03*
X25454D02*
D03*
X17913Y195100D02*
D03*
X11613D02*
D03*
X30000Y178600D02*
D03*
X23701D02*
D03*
X30507Y170371D02*
D03*
X24208D02*
D03*
X170500Y67800D02*
D03*
X164201D02*
D03*
X149167Y117500D02*
D03*
X155466D02*
D03*
X149167Y124803D02*
D03*
X155466D02*
D03*
X178197Y10515D02*
D03*
X184496D02*
D03*
X54250Y147100D02*
D03*
X47950D02*
D03*
X17800Y163150D02*
D03*
X24099D02*
D03*
X156804Y173914D02*
D03*
X163103D02*
D03*
X104046Y12529D02*
D03*
X97747D02*
D03*
X171599Y5082D02*
D03*
X165300D02*
D03*
X174139Y43000D02*
D03*
X180438D02*
D03*
X194350Y193811D02*
D03*
X200650D02*
D03*
X176815Y193460D02*
D03*
X170516D02*
D03*
X131000Y208793D02*
D03*
X124701D02*
D03*
X135067Y150000D02*
D03*
X128768D02*
D03*
X120740Y160581D02*
D03*
X114441D02*
D03*
X158615Y167547D02*
D03*
X152316D02*
D03*
D86*
X66297Y57555D02*
D03*
Y52043D02*
D03*
D87*
X189339Y57665D02*
D03*
X173000D02*
D03*
Y49200D02*
D03*
X189339D02*
D03*
D88*
X94407Y37461D02*
D03*
X91257D02*
D03*
X88108D02*
D03*
X84879D02*
D03*
X84958Y28012D02*
D03*
X88108D02*
D03*
X91257D02*
D03*
X94407D02*
D03*
D89*
X39451Y201913D02*
D03*
X47325Y209393D02*
D03*
X39451D02*
D03*
D90*
X47325Y202700D02*
D03*
D91*
X31500Y193764D02*
D03*
Y204000D02*
D03*
D92*
X122301Y61523D02*
D03*
X145805D02*
D03*
D93*
X159585Y43118D02*
D03*
Y57685D02*
D03*
D94*
X158896Y19397D02*
D03*
D95*
X149211Y18905D02*
D03*
X144880D02*
D03*
X140549D02*
D03*
X136219D02*
D03*
X131888D02*
D03*
X127557D02*
D03*
X123226D02*
D03*
D96*
X119093D02*
D03*
D97*
X114329Y20283D02*
D03*
D98*
X108071Y160778D02*
D03*
X99804D02*
D03*
X120652Y147200D02*
D03*
X112385D02*
D03*
D99*
X54250Y161836D02*
D03*
Y153568D02*
D03*
D100*
X108145Y26347D02*
D03*
Y32253D02*
D03*
D101*
X47305Y229000D02*
D03*
X40612D02*
D03*
D102*
X60100D02*
D03*
X27817D02*
D03*
D103*
X56163Y219748D02*
D03*
X31754D02*
D03*
D104*
X49076Y218468D02*
D03*
X46517D02*
D03*
X43958D02*
D03*
X41399D02*
D03*
X38840D02*
D03*
D105*
X10000Y44420D02*
D03*
X207500Y227500D02*
D03*
X210000Y8800D02*
D03*
D106*
X173125Y137931D02*
D03*
Y135962D02*
D03*
Y133994D02*
D03*
Y132026D02*
D03*
X180605D02*
D03*
Y133994D02*
D03*
Y135962D02*
D03*
Y137931D02*
D03*
D107*
X176865Y134978D02*
D03*
D108*
X146307Y203286D02*
D03*
D109*
X140500Y207223D02*
D03*
Y205254D02*
D03*
Y203286D02*
D03*
Y201317D02*
D03*
Y199349D02*
D03*
X152114D02*
D03*
Y201317D02*
D03*
Y203286D02*
D03*
Y205254D02*
D03*
Y207223D02*
D03*
D110*
X201000Y205035D02*
D03*
X185252D02*
D03*
D111*
X39785Y179229D02*
D03*
Y177457D02*
D03*
Y175686D02*
D03*
Y173914D02*
D03*
Y172143D02*
D03*
Y170371D02*
D03*
X50415D02*
D03*
Y172143D02*
D03*
Y173914D02*
D03*
Y175686D02*
D03*
Y177457D02*
D03*
Y179229D02*
D03*
D112*
X45100Y174800D02*
D03*
D113*
X164335Y209799D02*
D03*
X173665D02*
D03*
D114*
X222300Y68700D02*
D03*
Y62991D02*
D03*
X223454Y193460D02*
D03*
Y187752D02*
D03*
D115*
X148315Y181190D02*
D03*
X141228D02*
D03*
X17800Y187400D02*
D03*
X10713D02*
D03*
X60411Y62086D02*
D03*
X53325D02*
D03*
X136457Y78000D02*
D03*
X143543D02*
D03*
X105543Y147100D02*
D03*
X98457D02*
D03*
D116*
X152316Y157628D02*
D03*
Y151329D02*
D03*
X42015Y191779D02*
D03*
Y185479D02*
D03*
X48515D02*
D03*
Y191779D02*
D03*
X40966Y161271D02*
D03*
Y154972D02*
D03*
X56163Y199803D02*
D03*
Y206103D02*
D03*
X124463Y196216D02*
D03*
Y202516D02*
D03*
X156000Y219750D02*
D03*
Y213450D02*
D03*
X117590Y216806D02*
D03*
Y210506D02*
D03*
X30500Y163150D02*
D03*
Y156850D02*
D03*
X53522Y13196D02*
D03*
Y19496D02*
D03*
X31037Y45980D02*
D03*
Y52280D02*
D03*
X65136Y13196D02*
D03*
Y19496D02*
D03*
X178000Y85225D02*
D03*
Y91524D02*
D03*
Y64490D02*
D03*
Y70789D02*
D03*
X146307Y145350D02*
D03*
Y151650D02*
D03*
X50400Y31836D02*
D03*
Y38135D02*
D03*
X102182Y38787D02*
D03*
Y45086D02*
D03*
D117*
X50400Y45400D02*
D03*
Y52487D02*
D03*
X85682Y52280D02*
D03*
Y45193D02*
D03*
X94382Y52280D02*
D03*
Y45193D02*
D03*
D118*
X70828Y45156D02*
D03*
X67010D02*
D03*
X63191D02*
D03*
X59372D02*
D03*
Y39644D02*
D03*
X63191D02*
D03*
X67010D02*
D03*
X70828D02*
D03*
D119*
X138738Y119500D02*
D03*
Y109658D02*
D03*
D120*
X100500Y195732D02*
D03*
Y202819D02*
D03*
X109000Y195765D02*
D03*
Y202852D02*
D03*
X117254Y195765D02*
D03*
Y202852D02*
D03*
X196500Y187100D02*
D03*
Y180013D02*
D03*
X206000Y187143D02*
D03*
Y180057D02*
D03*
D121*
X218740Y204600D02*
D03*
X211260D02*
D03*
X123044Y171510D02*
D03*
X115564D02*
D03*
D122*
X57625Y31443D02*
D03*
X63136D02*
D03*
D123*
X145323Y209388D02*
D03*
X147291D02*
D03*
Y197184D02*
D03*
X145323D02*
D03*
D124*
X218700Y24800D02*
D03*
Y34800D02*
D03*
X108758Y221509D02*
D03*
X98758D02*
D03*
D125*
X218700Y44800D02*
D03*
D126*
X162500Y84000D02*
D03*
X157500D02*
D03*
Y94000D02*
D03*
Y89000D02*
D03*
X162500Y94000D02*
D03*
Y89000D02*
D03*
Y99000D02*
D03*
Y104000D02*
D03*
X157500Y99000D02*
D03*
D127*
Y104000D02*
D03*
D128*
X88758Y221509D02*
D03*
D129*
X9252Y9252D02*
D03*
X226969D02*
D03*
X9252Y226969D02*
D03*
X226969D02*
D03*
D130*
X176865Y136553D02*
D03*
Y133404D02*
D03*
D131*
X146307Y203286D02*
D03*
X148276Y206239D02*
D03*
X144339D02*
D03*
Y200333D02*
D03*
X148276D02*
D03*
X47069Y178343D02*
D03*
Y174800D02*
D03*
Y171257D02*
D03*
X43132D02*
D03*
Y174800D02*
D03*
Y178343D02*
D03*
D132*
X207101Y68262D02*
D03*
X203451Y68242D02*
D03*
X199760Y68303D02*
D03*
X229789Y207632D02*
D03*
X216436Y192106D02*
D03*
X216480Y197172D02*
D03*
X229866Y194970D02*
D03*
X188908Y163526D02*
D03*
X169719Y144534D02*
D03*
X229673Y203851D02*
D03*
X141466Y173896D02*
D03*
X187014Y104369D02*
D03*
X199234Y104327D02*
D03*
X206000Y104205D02*
D03*
X100310Y188015D02*
D03*
X64993Y220030D02*
D03*
X222300Y57099D02*
D03*
X188016Y95199D02*
D03*
X194641Y104291D02*
D03*
X211926Y105327D02*
D03*
X136042Y171946D02*
D03*
X155466Y184044D02*
D03*
X158500Y145000D02*
D03*
X136199Y205254D02*
D03*
X130136Y197014D02*
D03*
X168586Y173915D02*
D03*
X130136Y166000D02*
D03*
X146307Y140500D02*
D03*
X141484Y151150D02*
D03*
X91852Y147200D02*
D03*
X130666Y158121D02*
D03*
X122695Y216800D02*
D03*
X130136Y203606D02*
D03*
X206000Y175100D02*
D03*
X196500D02*
D03*
X184015Y191115D02*
D03*
M02*
