G04*
G04 #@! TF.GenerationSoftware,Altium Limited,Altium Designer,21.9.2 (33)*
G04*
G04 Layer_Color=16711935*
%FSLAX25Y25*%
%MOIN*%
G70*
G04*
G04 #@! TF.SameCoordinates,C603DD54-685B-4B9A-A4C2-A7D413009CF4*
G04*
G04*
G04 #@! TF.FilePolarity,Negative*
G04*
G01*
G75*
%ADD124C,0.07487*%
%ADD125R,0.07487X0.07487*%
%ADD126C,0.04360*%
%ADD127R,0.04360X0.04360*%
%ADD128R,0.07487X0.07487*%
%ADD129C,0.14573*%
%ADD130C,0.02520*%
%ADD131C,0.02368*%
%ADD132C,0.02400*%
%ADD151C,0.02769*%
G36*
X143000Y159883D02*
X142800Y159800D01*
X137700D01*
Y165200D01*
X137832Y165332D01*
X143000D01*
Y159883D01*
D02*
G37*
D124*
X218700Y24800D02*
D03*
Y34800D02*
D03*
X108758Y221509D02*
D03*
X98758D02*
D03*
D125*
X218700Y44800D02*
D03*
D126*
X162500Y84000D02*
D03*
X157500D02*
D03*
Y94000D02*
D03*
Y89000D02*
D03*
X162500Y94000D02*
D03*
Y89000D02*
D03*
Y99000D02*
D03*
Y104000D02*
D03*
X157500Y99000D02*
D03*
D127*
Y104000D02*
D03*
D128*
X88758Y221509D02*
D03*
D129*
X9252Y9252D02*
D03*
X226969D02*
D03*
X9252Y226969D02*
D03*
X226969D02*
D03*
D130*
X176865Y136553D02*
D03*
Y133404D02*
D03*
D131*
X146307Y203286D02*
D03*
X148276Y206239D02*
D03*
X144339D02*
D03*
Y200333D02*
D03*
X148276D02*
D03*
X47069Y178343D02*
D03*
Y174800D02*
D03*
Y171257D02*
D03*
X43132D02*
D03*
Y174800D02*
D03*
Y178343D02*
D03*
D132*
X207101Y68262D02*
D03*
X203451Y68242D02*
D03*
X199760Y68303D02*
D03*
X229789Y207632D02*
D03*
X216436Y192106D02*
D03*
X216480Y197172D02*
D03*
X229866Y194970D02*
D03*
X188908Y163526D02*
D03*
X169719Y144534D02*
D03*
X229673Y203851D02*
D03*
X141466Y173896D02*
D03*
X187014Y104369D02*
D03*
X199234Y104327D02*
D03*
X206000Y104205D02*
D03*
X100310Y188015D02*
D03*
X64993Y220030D02*
D03*
X222300Y57099D02*
D03*
X188016Y95199D02*
D03*
X194641Y104291D02*
D03*
X211926Y105327D02*
D03*
X136042Y171946D02*
D03*
X155466Y184044D02*
D03*
X158500Y145000D02*
D03*
X136199Y205254D02*
D03*
X130136Y197014D02*
D03*
X168586Y173915D02*
D03*
X130136Y166000D02*
D03*
X146307Y140500D02*
D03*
X141484Y151150D02*
D03*
X91852Y147200D02*
D03*
X130666Y158121D02*
D03*
X122695Y216800D02*
D03*
X130136Y203606D02*
D03*
X206000Y175100D02*
D03*
X196500D02*
D03*
X184015Y191115D02*
D03*
D151*
X142469Y164348D02*
D03*
X138531Y164348D02*
D03*
X138531Y160411D02*
D03*
X142469Y160411D02*
D03*
X140500Y162380D02*
D03*
M02*
