G04*
G04 #@! TF.GenerationSoftware,Altium Limited,Altium Designer,21.9.2 (33)*
G04*
G04 Layer_Physical_Order=1*
G04 Layer_Color=255*
%FSLAX25Y25*%
%MOIN*%
G70*
G04*
G04 #@! TF.SameCoordinates,C603DD54-685B-4B9A-A4C2-A7D413009CF4*
G04*
G04*
G04 #@! TF.FilePolarity,Positive*
G04*
G01*
G75*
%ADD12C,0.01000*%
%ADD16C,0.00800*%
%ADD19C,0.00600*%
%ADD25R,0.08661X0.10630*%
%ADD26R,0.08465X0.12795*%
%ADD27R,0.08465X0.03740*%
%ADD28R,0.07874X0.07874*%
%ADD29R,0.04724X0.02756*%
%ADD30R,0.02756X0.04724*%
%ADD33R,0.05315X0.06102*%
%ADD34R,0.05512X0.04134*%
%ADD35R,0.03543X0.03937*%
%ADD36R,0.03543X0.02756*%
%ADD37R,0.04134X0.02559*%
G04:AMPARAMS|DCode=38|XSize=19.68mil|YSize=19.68mil|CornerRadius=2.46mil|HoleSize=0mil|Usage=FLASHONLY|Rotation=270.000|XOffset=0mil|YOffset=0mil|HoleType=Round|Shape=RoundedRectangle|*
%AMROUNDEDRECTD38*
21,1,0.01968,0.01476,0,0,270.0*
21,1,0.01476,0.01968,0,0,270.0*
1,1,0.00492,-0.00738,-0.00738*
1,1,0.00492,-0.00738,0.00738*
1,1,0.00492,0.00738,0.00738*
1,1,0.00492,0.00738,-0.00738*
%
%ADD38ROUNDEDRECTD38*%
%ADD39C,0.05000*%
%ADD40R,0.02756X0.02362*%
%ADD41R,0.02756X0.03937*%
%ADD42R,0.03937X0.05512*%
%ADD43R,0.07480X0.05315*%
%ADD44R,0.04724X0.03937*%
%ADD45R,0.06102X0.05315*%
%ADD46R,0.03347X0.04331*%
%ADD47R,0.02953X0.04331*%
%ADD48R,0.04606X0.07087*%
%ADD49R,0.04724X0.04724*%
%ADD50R,0.04724X0.04724*%
%ADD51R,0.03150X0.03150*%
%ADD52R,0.04724X0.07480*%
%ADD53R,0.06299X0.07480*%
%ADD54R,0.08268X0.07874*%
%ADD55R,0.01575X0.05315*%
%ADD56R,0.04940X0.05733*%
%ADD57R,0.01772X0.02362*%
G04:AMPARAMS|DCode=58|XSize=9.84mil|YSize=19.68mil|CornerRadius=1.97mil|HoleSize=0mil|Usage=FLASHONLY|Rotation=90.000|XOffset=0mil|YOffset=0mil|HoleType=Round|Shape=RoundedRectangle|*
%AMROUNDEDRECTD58*
21,1,0.00984,0.01575,0,0,90.0*
21,1,0.00591,0.01968,0,0,90.0*
1,1,0.00394,0.00787,0.00295*
1,1,0.00394,0.00787,-0.00295*
1,1,0.00394,-0.00787,-0.00295*
1,1,0.00394,-0.00787,0.00295*
%
%ADD58ROUNDEDRECTD58*%
%ADD60R,0.09843X0.06693*%
%ADD61R,0.01575X0.00984*%
%ADD62R,0.06299X0.09843*%
%ADD63R,0.03858X0.13386*%
%ADD64R,0.05118X0.04134*%
%ADD65R,0.04528X0.05709*%
%ADD66R,0.03937X0.03543*%
%ADD67R,0.04331X0.04331*%
%ADD68R,0.02835X0.02362*%
%ADD69R,0.07480X0.04331*%
%ADD70R,0.05709X0.04528*%
%ADD71R,0.04134X0.05512*%
%ADD72R,0.02756X0.03543*%
%ADD133O,0.01102X0.03347*%
%ADD134O,0.03347X0.01102*%
%ADD135R,0.06693X0.06693*%
%ADD136C,0.04000*%
G04:AMPARAMS|DCode=137|XSize=35.43mil|YSize=62.99mil|CornerRadius=1.95mil|HoleSize=0mil|Usage=FLASHONLY|Rotation=0.000|XOffset=0mil|YOffset=0mil|HoleType=Round|Shape=RoundedRectangle|*
%AMROUNDEDRECTD137*
21,1,0.03543,0.05909,0,0,0.0*
21,1,0.03154,0.06299,0,0,0.0*
1,1,0.00390,0.01577,-0.02955*
1,1,0.00390,-0.01577,-0.02955*
1,1,0.00390,-0.01577,0.02955*
1,1,0.00390,0.01577,0.02955*
%
%ADD137ROUNDEDRECTD137*%
G04:AMPARAMS|DCode=138|XSize=64.96mil|YSize=94.49mil|CornerRadius=1.95mil|HoleSize=0mil|Usage=FLASHONLY|Rotation=0.000|XOffset=0mil|YOffset=0mil|HoleType=Round|Shape=RoundedRectangle|*
%AMROUNDEDRECTD138*
21,1,0.06496,0.09059,0,0,0.0*
21,1,0.06106,0.09449,0,0,0.0*
1,1,0.00390,0.03053,-0.04530*
1,1,0.00390,-0.03053,-0.04530*
1,1,0.00390,-0.03053,0.04530*
1,1,0.00390,0.03053,0.04530*
%
%ADD138ROUNDEDRECTD138*%
G04:AMPARAMS|DCode=139|XSize=11.02mil|YSize=33.47mil|CornerRadius=1.98mil|HoleSize=0mil|Usage=FLASHONLY|Rotation=90.000|XOffset=0mil|YOffset=0mil|HoleType=Round|Shape=RoundedRectangle|*
%AMROUNDEDRECTD139*
21,1,0.01102,0.02950,0,0,90.0*
21,1,0.00706,0.03347,0,0,90.0*
1,1,0.00397,0.01475,0.00353*
1,1,0.00397,0.01475,-0.00353*
1,1,0.00397,-0.01475,-0.00353*
1,1,0.00397,-0.01475,0.00353*
%
%ADD139ROUNDEDRECTD139*%
%ADD140C,0.00900*%
%ADD141C,0.02000*%
%ADD142R,0.01102X0.02756*%
%ADD143C,0.07087*%
%ADD144R,0.07087X0.07087*%
%ADD145C,0.03960*%
%ADD146R,0.03960X0.03960*%
%ADD147R,0.07087X0.07087*%
%ADD148C,0.14173*%
%ADD149C,0.01968*%
%ADD150C,0.02000*%
G36*
X224561Y234291D02*
X223327Y233780D01*
X222069Y232939D01*
X220998Y231868D01*
X220157Y230609D01*
X219577Y229211D01*
X219282Y227726D01*
Y226211D01*
X219577Y224726D01*
X220157Y223327D01*
X220998Y222069D01*
X222069Y220998D01*
X223327Y220157D01*
X224726Y219577D01*
X226211Y219282D01*
X227726D01*
X229211Y219577D01*
X230609Y220157D01*
X231868Y220998D01*
X232939Y222069D01*
X233780Y223327D01*
X234264Y224497D01*
X234765Y224397D01*
Y11823D01*
X234264Y11724D01*
X233780Y12893D01*
X232939Y14152D01*
X231868Y15223D01*
X230609Y16064D01*
X229211Y16643D01*
X227726Y16939D01*
X226211D01*
X224726Y16643D01*
X223327Y16064D01*
X222069Y15223D01*
X220998Y14152D01*
X220157Y12893D01*
X219577Y11494D01*
X219282Y10009D01*
Y8495D01*
X219577Y7010D01*
X220157Y5611D01*
X220998Y4352D01*
X222069Y3281D01*
X223327Y2440D01*
X224336Y2023D01*
X224236Y1523D01*
X197070D01*
X196971Y2023D01*
X197021Y2043D01*
X197211Y2503D01*
Y66108D01*
X197412Y66208D01*
X197711Y66261D01*
X198104Y65869D01*
X198563Y65678D01*
X199022Y65869D01*
X199212Y66058D01*
X209047D01*
X209144Y66099D01*
X209644Y65773D01*
Y65773D01*
X216356D01*
Y67578D01*
X219141D01*
Y66275D01*
X218941Y65858D01*
X218941Y65616D01*
Y63749D01*
X216556D01*
X216260Y63627D01*
X209740D01*
X209444Y63749D01*
X204430D01*
X204357Y63719D01*
X204278Y63731D01*
X203772Y63609D01*
X203716Y63569D01*
X203647Y63566D01*
X203228Y63368D01*
X203128Y63258D01*
X202997Y63186D01*
X202793Y62929D01*
X202733Y62723D01*
X202651Y62524D01*
Y41200D01*
X202841Y40741D01*
X203300Y40551D01*
X214357D01*
X214613Y40657D01*
X222787D01*
X223043Y40551D01*
X228401D01*
X228451Y40500D01*
X228581D01*
X228700Y40451D01*
X228819Y40500D01*
X228948D01*
X229449Y40707D01*
X229540Y40799D01*
X229659Y40848D01*
X229709Y40967D01*
X229800Y41059D01*
Y41188D01*
X229849Y41307D01*
Y63100D01*
X229659Y63559D01*
X229200Y63749D01*
X225659D01*
X225659Y65858D01*
X225459Y66275D01*
Y71367D01*
X223422D01*
Y79502D01*
X226250D01*
Y93498D01*
X216585D01*
Y87622D01*
X203415D01*
Y88970D01*
X197211D01*
Y92885D01*
X198083D01*
Y95555D01*
Y98225D01*
X197211D01*
Y98888D01*
X198295Y99972D01*
X217861D01*
X218320Y100162D01*
X218510Y100622D01*
Y117223D01*
X218461Y117342D01*
Y117472D01*
X218369Y117563D01*
X218320Y117682D01*
X218201Y117732D01*
X218109Y117823D01*
X217609Y118030D01*
X217480D01*
X217361Y118079D01*
X217241Y118030D01*
X217112D01*
X217021Y117939D01*
X216901Y117889D01*
X216287Y117275D01*
X212930D01*
Y155568D01*
X212930Y155568D01*
X212844Y155997D01*
X212601Y156361D01*
X212601Y156361D01*
X207066Y161897D01*
Y166847D01*
X201181D01*
X200764Y167047D01*
X200509Y167047D01*
X197994D01*
Y163380D01*
Y159714D01*
X200509D01*
X200764Y159714D01*
X201181Y159914D01*
X205876D01*
X210687Y155103D01*
Y115303D01*
X200144D01*
Y118198D01*
X198718D01*
X198527Y118660D01*
X199368Y119501D01*
X199368Y119501D01*
X199611Y119865D01*
X199697Y120294D01*
X200042Y120608D01*
X206804D01*
Y132439D01*
X196943D01*
Y120609D01*
X196943D01*
X197048Y120354D01*
X196094Y119399D01*
X195850Y119035D01*
X195765Y118606D01*
X195482Y118198D01*
X193629D01*
Y113059D01*
X193493Y113032D01*
X193130Y112789D01*
X193130Y112789D01*
X192929Y112588D01*
X192467Y112779D01*
Y118198D01*
X187144D01*
X185379Y119963D01*
Y132638D01*
X185294Y133067D01*
X185050Y133431D01*
X185050Y133431D01*
X183694Y134787D01*
X183661Y134810D01*
X183812Y135310D01*
X190846D01*
X190846Y135310D01*
X191275Y135395D01*
X191639Y135638D01*
X196507Y140506D01*
X196943Y140687D01*
Y140687D01*
X196943Y140687D01*
X206804D01*
Y152517D01*
X196943D01*
Y144044D01*
X196730Y143902D01*
X196730Y143902D01*
X190381Y137553D01*
X182693D01*
X182571Y137573D01*
X182215Y137975D01*
X182449Y138379D01*
X182823Y138523D01*
X182922Y138618D01*
X183049Y138670D01*
X183095Y138782D01*
X183183Y138866D01*
X183186Y139003D01*
X183239Y139129D01*
Y150576D01*
X183049Y151035D01*
X170257Y163826D01*
X169798Y164016D01*
X169267D01*
Y172315D01*
X169076Y172774D01*
X169379Y173122D01*
X169622Y173485D01*
X169707Y173915D01*
X169622Y174344D01*
X169379Y174708D01*
X169076Y175055D01*
X169267Y175514D01*
Y190692D01*
X170016D01*
Y193460D01*
Y196229D01*
X169267D01*
Y197440D01*
X171894D01*
X171894Y197440D01*
X172323Y197525D01*
X172687Y197768D01*
X174458Y199540D01*
X174458Y199540D01*
X174701Y199904D01*
X174787Y200333D01*
Y202506D01*
X176195D01*
Y203914D01*
X179731D01*
Y201089D01*
X190773D01*
Y208982D01*
X179731D01*
Y206157D01*
X176195D01*
Y217092D01*
X171136D01*
Y202506D01*
X172544D01*
Y200798D01*
X171429Y199683D01*
X169267D01*
Y221083D01*
X169223Y221189D01*
X169228Y221303D01*
X169131Y221410D01*
X169076Y221542D01*
X168971Y221586D01*
X168894Y221671D01*
X168475Y221868D01*
X168332Y221874D01*
X168199Y221929D01*
X158768D01*
Y222321D01*
X156500D01*
Y219750D01*
X155500D01*
Y222321D01*
X153232D01*
Y220871D01*
X150615D01*
X150494Y220847D01*
X150455Y220841D01*
X150041Y221006D01*
X149911Y221202D01*
X149776Y221529D01*
X149685Y221620D01*
X149635Y221739D01*
X149516Y221789D01*
X149424Y221880D01*
X149295D01*
X149176Y221929D01*
X133656D01*
Y227327D01*
X133656Y227328D01*
X133656Y227330D01*
X133561Y227558D01*
X133466Y227786D01*
X133465Y227787D01*
X133464Y227788D01*
X133109Y228140D01*
X133108Y228141D01*
X133107Y228142D01*
X132879Y228235D01*
X132649Y228329D01*
X132648Y228328D01*
X132647Y228329D01*
X104914Y228111D01*
X104796Y228061D01*
X104668Y228060D01*
X104576Y227968D01*
X104456Y227917D01*
X104408Y227798D01*
X104318Y227708D01*
X104131Y227251D01*
X104132Y227123D01*
X104083Y227005D01*
Y224189D01*
X104148Y224032D01*
X104170Y223864D01*
X104239Y223811D01*
X104273Y223730D01*
X104429Y223665D01*
X104564Y223562D01*
X104579Y223558D01*
X104705Y223380D01*
X104859Y222965D01*
X104615Y222055D01*
Y221929D01*
X102901D01*
Y222055D01*
X102619Y223109D01*
X102073Y224053D01*
X101302Y224825D01*
X100357Y225370D01*
X99303Y225653D01*
X98212D01*
X97159Y225370D01*
X96214Y224825D01*
X95442Y224053D01*
X94897Y223109D01*
X94615Y222055D01*
Y221929D01*
X93818D01*
X93601Y221840D01*
X93101Y222135D01*
Y225853D01*
X89258D01*
Y221509D01*
Y217166D01*
X92669D01*
X93101Y217166D01*
X93169Y216694D01*
Y148222D01*
X92303D01*
X92281Y148236D01*
X91852Y148322D01*
X91423Y148236D01*
X91059Y147993D01*
X90816Y147629D01*
X90804Y147572D01*
X90763Y147510D01*
X90681Y147100D01*
X90763Y146690D01*
X90995Y146343D01*
X91342Y146111D01*
X91499Y146080D01*
X91523Y146064D01*
X91952Y145978D01*
X91952Y145978D01*
X93169D01*
Y138246D01*
X93359Y137787D01*
X95382Y135764D01*
X95841Y135574D01*
X96300Y135764D01*
X96318Y135782D01*
X166924D01*
X166964Y135799D01*
X167138Y135749D01*
X167273Y135503D01*
X166978Y135003D01*
X166217D01*
X165827Y134925D01*
X165496Y134704D01*
X165485Y134693D01*
X165264Y134362D01*
X165187Y133972D01*
X165264Y133582D01*
X165485Y133251D01*
X165816Y133030D01*
X166206Y132952D01*
X166262Y132963D01*
X171207D01*
X171303Y132879D01*
X171553Y132463D01*
X171525Y132321D01*
Y131730D01*
X171587Y131419D01*
X171763Y131156D01*
X172027Y130980D01*
X172337Y130918D01*
X173912D01*
X174223Y130980D01*
X174487Y131156D01*
X174725Y131203D01*
X174900Y131086D01*
X175288Y131009D01*
X176365D01*
Y134978D01*
X177365D01*
Y131009D01*
X178442D01*
X178830Y131086D01*
X179005Y131203D01*
X179243Y131156D01*
X179507Y130980D01*
X179586Y130964D01*
Y128012D01*
X175346Y123772D01*
X175102Y123408D01*
X175017Y122979D01*
X174706Y122614D01*
X172783D01*
Y117280D01*
X172285Y117275D01*
X162051D01*
X161591Y117085D01*
X161401Y116626D01*
Y110122D01*
X148000D01*
X147571Y110036D01*
X147207Y109793D01*
X147207Y109793D01*
X147014Y109600D01*
X146992D01*
X146203Y109389D01*
X146171Y109370D01*
X145820Y109745D01*
X145950Y109940D01*
X146036Y110369D01*
X146036Y110369D01*
Y116378D01*
X146795D01*
Y114931D01*
X151538D01*
Y120069D01*
X146795D01*
Y118622D01*
X145500D01*
X145071Y118536D01*
X144707Y118293D01*
X144707Y118293D01*
X144121Y117707D01*
X143878Y117343D01*
X143793Y116914D01*
X143793Y116914D01*
Y110834D01*
X143738Y110779D01*
X143078D01*
Y112423D01*
X134398D01*
Y112288D01*
X133898Y112136D01*
X133793Y112293D01*
X132710Y113376D01*
X132346Y113619D01*
X131917Y113704D01*
X131917Y113704D01*
X130464D01*
Y114561D01*
X124540D01*
Y110605D01*
X130464D01*
Y111461D01*
X131453D01*
X131878Y111035D01*
Y109498D01*
X131878Y109498D01*
X131964Y109069D01*
X132207Y108705D01*
X132705Y108207D01*
X133069Y107964D01*
X133498Y107878D01*
X133498Y107878D01*
X134398D01*
Y106892D01*
X143078D01*
Y108536D01*
X144203D01*
X144203Y108536D01*
X144446Y108584D01*
X144782Y108166D01*
X144511Y107697D01*
X144300Y106908D01*
Y106092D01*
X144511Y105303D01*
X144730Y104923D01*
X144515Y104707D01*
X144272Y104343D01*
X144186Y103914D01*
X144186Y103914D01*
Y99531D01*
X130464D01*
Y100387D01*
X124540D01*
Y96431D01*
X124121Y96236D01*
X122105D01*
X121880Y96143D01*
X121654Y96055D01*
X121161Y95579D01*
X121156Y95569D01*
X121146Y95564D01*
X121058Y95342D01*
X120962Y95123D01*
X120966Y95113D01*
X120962Y95102D01*
X121242Y75565D01*
X120891Y75209D01*
X119651D01*
Y72547D01*
X121829D01*
Y71547D01*
X119651D01*
Y68885D01*
X120876D01*
X121340Y68720D01*
X121359Y67421D01*
X121455Y67196D01*
X121549Y66970D01*
X121553Y66969D01*
X121555Y66964D01*
X121782Y66874D01*
X122008Y66780D01*
X144372D01*
X144831Y66970D01*
X145774Y67914D01*
X145964Y68373D01*
Y71936D01*
X147563D01*
X147662Y71870D01*
X148092Y71784D01*
X148521Y71870D01*
X148885Y72113D01*
X149128Y72477D01*
X149213Y72906D01*
X149128Y73335D01*
X148885Y73699D01*
X148733Y73851D01*
X148369Y74094D01*
X147940Y74180D01*
X147940Y74180D01*
X147038D01*
X146607Y74346D01*
Y77239D01*
X147069Y77431D01*
X148905Y75594D01*
X148905Y75594D01*
X149269Y75351D01*
X149698Y75266D01*
X161401D01*
Y70368D01*
X161591Y69909D01*
X161629Y69894D01*
Y68922D01*
X157315D01*
X156886Y68836D01*
X156522Y68593D01*
X156279Y68229D01*
X156194Y67800D01*
X156279Y67371D01*
X156522Y67007D01*
X156886Y66764D01*
X157315Y66678D01*
X161629D01*
Y65706D01*
X161591Y65691D01*
X161401Y65232D01*
Y60453D01*
X160085D01*
Y57685D01*
Y54916D01*
X161401D01*
Y45686D01*
X156623D01*
Y40549D01*
X161401D01*
Y22855D01*
X159396D01*
Y19397D01*
Y15940D01*
X161401D01*
Y15001D01*
X161466Y14845D01*
X161488Y14677D01*
X161558Y14623D01*
X161591Y14542D01*
X161748Y14477D01*
X161882Y14374D01*
X162020Y14337D01*
X162387Y13775D01*
X162380Y13750D01*
Y12934D01*
X162387Y12909D01*
X162020Y12346D01*
X161882Y12309D01*
X161748Y12206D01*
X161591Y12141D01*
X161558Y12060D01*
X161488Y12007D01*
X161466Y11839D01*
X161401Y11682D01*
Y6204D01*
X159541D01*
X159521Y6279D01*
X159113Y6986D01*
X158535Y7563D01*
X157828Y7971D01*
X157040Y8182D01*
X156224D01*
X155435Y7971D01*
X154728Y7563D01*
X154151Y6986D01*
X153743Y6279D01*
X153723Y6204D01*
X146002D01*
Y12349D01*
X148035D01*
X148035Y12349D01*
X148465Y12435D01*
X148808Y12664D01*
X149147D01*
X149735Y12908D01*
X150185Y13358D01*
X150429Y13946D01*
Y14582D01*
X150185Y15170D01*
X149735Y15620D01*
X149688Y15640D01*
X149788Y16140D01*
X151484D01*
Y21671D01*
X143035D01*
Y24661D01*
X142845Y25120D01*
X142385Y25310D01*
X130400D01*
X130283Y25262D01*
X130156Y25262D01*
X130004Y25201D01*
X129914Y25112D01*
X129796Y25065D01*
X129744Y24944D01*
X129650Y24852D01*
X129649Y24725D01*
X129599Y24609D01*
X129559Y22037D01*
X129095Y21871D01*
X128057D01*
Y18905D01*
X127057D01*
Y21871D01*
X125084D01*
Y21671D01*
X117432D01*
Y24626D01*
X114829D01*
Y20283D01*
Y15940D01*
X117432D01*
Y16140D01*
X118120D01*
X118219Y15640D01*
X118186Y15626D01*
X117736Y15176D01*
X117492Y14588D01*
Y13951D01*
X117592Y13712D01*
X117258Y13211D01*
X110350D01*
X110350Y13212D01*
X109921Y13126D01*
X109557Y12883D01*
X109557Y12883D01*
X108927Y12253D01*
X108829Y12106D01*
X108329Y12257D01*
Y13923D01*
X108279Y14043D01*
Y14172D01*
X108188Y14263D01*
X108139Y14383D01*
X107997Y14894D01*
X110513Y17411D01*
X110513Y17411D01*
X111143Y17456D01*
X111226Y17396D01*
Y15940D01*
X113829D01*
Y20283D01*
Y24626D01*
X111226D01*
X110824Y24863D01*
X110756Y25202D01*
X110513Y25565D01*
X110513Y25565D01*
X110320Y25759D01*
Y28522D01*
X105971D01*
Y27348D01*
X96211D01*
Y27512D01*
X94407D01*
Y28012D01*
X93907D01*
Y29816D01*
X93669D01*
X93260Y29735D01*
X92914Y29504D01*
X92337Y29539D01*
X92325Y29547D01*
X91995Y29613D01*
X90519D01*
X90189Y29547D01*
X89909Y29360D01*
X89456D01*
X89176Y29547D01*
X88846Y29613D01*
X87369D01*
X87039Y29547D01*
X86759Y29360D01*
X86306D01*
X86026Y29547D01*
X85696Y29613D01*
X84220D01*
X83890Y29547D01*
X83610Y29360D01*
X83450Y29122D01*
X81650D01*
X81253Y29518D01*
X80665Y29761D01*
X80409D01*
X80266Y30081D01*
X80245Y30261D01*
X80781Y30797D01*
X81189Y31504D01*
X81400Y32293D01*
Y33109D01*
X81189Y33897D01*
X80781Y34604D01*
X80203Y35181D01*
X79497Y35589D01*
X79422Y35609D01*
Y48614D01*
X79336Y49043D01*
X79093Y49407D01*
X79093Y49407D01*
X78507Y49993D01*
X78143Y50236D01*
X77714Y50322D01*
X77714Y50322D01*
X71950D01*
Y58190D01*
X72025Y58210D01*
X72732Y58618D01*
X73309Y59196D01*
X73444Y59429D01*
X73569Y59437D01*
X73965Y59331D01*
X74155Y58622D01*
X74589Y57870D01*
X75204Y57255D01*
X75956Y56821D01*
X76730Y56613D01*
Y59896D01*
Y63178D01*
X75956Y62971D01*
X75204Y62537D01*
X74589Y61922D01*
X74407Y61607D01*
X73879Y61692D01*
X73717Y62296D01*
X73309Y63003D01*
X72732Y63580D01*
X72025Y63988D01*
X71950Y64008D01*
Y66672D01*
X71950Y66672D01*
X71864Y67101D01*
X71621Y67465D01*
X71621Y67465D01*
X70982Y68104D01*
Y69085D01*
X71838D01*
Y75010D01*
X68998D01*
X68529Y75069D01*
X68426Y75265D01*
X68341Y75469D01*
X68312Y75481D01*
X68297Y75509D01*
X67925Y75818D01*
X67714Y75883D01*
X67651Y75910D01*
X67545Y75965D01*
X67529Y75960D01*
X67510Y75968D01*
X67486D01*
X67467Y75960D01*
X67451Y75965D01*
X67345Y75910D01*
X67282Y75883D01*
X67071Y75818D01*
X66699Y75509D01*
X66684Y75481D01*
X66655Y75469D01*
X66570Y75265D01*
X66467Y75069D01*
X65998Y75010D01*
X63607D01*
X63560Y75029D01*
X63526Y75081D01*
X63072Y75394D01*
X62934Y75424D01*
X62879Y75475D01*
X62827Y75472D01*
X62762Y75507D01*
X62717Y75511D01*
X62640Y75487D01*
X62586Y75498D01*
X62524Y75458D01*
X62382Y75452D01*
X62313Y75420D01*
X62269Y75371D01*
X62242Y75363D01*
X62225Y75330D01*
X62130Y75291D01*
X62075Y75158D01*
X61979Y75052D01*
X61938Y75010D01*
X58885D01*
X58844Y75052D01*
X58748Y75158D01*
X58693Y75291D01*
X58587Y75335D01*
X58509Y75420D01*
X58441Y75452D01*
X58367Y75455D01*
X58306Y75498D01*
X58126Y75466D01*
X57944Y75475D01*
X57890Y75425D01*
X57817Y75412D01*
X57317Y75094D01*
X57274Y75034D01*
X57215Y75010D01*
X53709D01*
Y69085D01*
X54118D01*
X54467Y68727D01*
X54399Y65913D01*
X53933Y65740D01*
X53825D01*
Y62086D01*
Y58432D01*
X53861D01*
X54211Y58074D01*
X54127Y54602D01*
X54130Y54594D01*
X54127Y54586D01*
X54220Y54363D01*
X54306Y54138D01*
X54314Y54135D01*
X54317Y54127D01*
X54784Y53660D01*
X55244Y53470D01*
X63925D01*
Y50065D01*
X65888D01*
Y47185D01*
X65408Y47137D01*
Y47137D01*
X63691D01*
Y45156D01*
X62691D01*
Y47137D01*
X60973D01*
Y46937D01*
X57354D01*
Y46522D01*
X53165D01*
Y48165D01*
X47635D01*
Y42635D01*
X49278D01*
Y40507D01*
X47831D01*
Y37998D01*
X38361D01*
X37901Y37808D01*
X37760Y37667D01*
X37570Y37208D01*
Y34938D01*
X37635Y34781D01*
X37657Y34613D01*
X37727Y34560D01*
X37760Y34479D01*
X37917Y34414D01*
X38052Y34310D01*
X38109Y34295D01*
X38110Y34295D01*
X38439Y33696D01*
X38339Y33321D01*
Y32505D01*
X38439Y32131D01*
X38110Y31532D01*
X38109Y31531D01*
X38052Y31516D01*
X37917Y31413D01*
X37760Y31348D01*
X37727Y31267D01*
X37657Y31213D01*
X37635Y31045D01*
X37570Y30889D01*
Y24596D01*
X37760Y24137D01*
X37831Y24067D01*
X38290Y23877D01*
X52360D01*
X52400Y23850D01*
Y21867D01*
X50953D01*
Y17124D01*
X56090D01*
Y21867D01*
X54643D01*
Y23850D01*
X54684Y23877D01*
X61963D01*
X62422Y24067D01*
X62613Y24526D01*
Y29071D01*
X65114D01*
Y30321D01*
X67642D01*
X67781Y29803D01*
X68189Y29097D01*
X68766Y28519D01*
X69473Y28111D01*
X70262Y27900D01*
X71078D01*
X71177Y27927D01*
X71574Y27622D01*
Y26667D01*
X71574Y26667D01*
X71659Y26238D01*
X71903Y25874D01*
X73770Y24007D01*
X74133Y23764D01*
X74563Y23678D01*
X74563Y23678D01*
X87103D01*
X87456Y23325D01*
X87453Y18486D01*
X87502Y18367D01*
X87502Y18238D01*
X87594Y18146D01*
X87643Y18027D01*
X87762Y17978D01*
X87854Y17886D01*
X88008Y17281D01*
X87838Y16986D01*
X87627Y16198D01*
Y15382D01*
X87838Y14593D01*
X88006Y14303D01*
X87851Y13697D01*
X87760Y13606D01*
X87640Y13557D01*
X87591Y13437D01*
X87499Y13346D01*
X87499Y13217D01*
X87450Y13098D01*
X87447Y8917D01*
X87447Y8917D01*
X87447Y8917D01*
X87543Y8686D01*
X87637Y8457D01*
X87637Y8457D01*
X87637Y8457D01*
X87662Y8433D01*
X87454Y7933D01*
X74586D01*
Y7970D01*
X74375Y8759D01*
X73966Y9466D01*
X73389Y10043D01*
X72682Y10451D01*
X71894Y10662D01*
X71078D01*
X70289Y10451D01*
X69582Y10043D01*
X69005Y9466D01*
X68597Y8759D01*
X68577Y8684D01*
X67215D01*
X66257Y9641D01*
Y10825D01*
X67704D01*
Y15568D01*
X62567D01*
Y13622D01*
X62498Y13575D01*
X62254Y13212D01*
X62169Y12782D01*
X62254Y12353D01*
X62498Y11989D01*
X62567Y11943D01*
Y10825D01*
X64014D01*
Y9177D01*
X64014Y9177D01*
X64100Y8748D01*
X64343Y8384D01*
X65957Y6769D01*
X65957Y6769D01*
X66321Y6526D01*
X66751Y6441D01*
X66751Y6441D01*
X68577D01*
X68597Y6366D01*
X69005Y5659D01*
X69582Y5082D01*
X70289Y4674D01*
X70483Y4622D01*
X70418Y4121D01*
X56181D01*
X56083Y4357D01*
X56017Y4622D01*
X56411Y5303D01*
X56622Y6092D01*
Y6908D01*
X56411Y7697D01*
X56003Y8403D01*
X55425Y8981D01*
X54719Y9389D01*
X54643Y9409D01*
Y10825D01*
X56090D01*
Y15568D01*
X50953D01*
Y10825D01*
X52400D01*
Y9409D01*
X52325Y9389D01*
X51618Y8981D01*
X51041Y8403D01*
X50633Y7697D01*
X50422Y6908D01*
Y6092D01*
X50633Y5303D01*
X51041Y4597D01*
X51618Y4019D01*
X52325Y3611D01*
X52400Y3591D01*
Y3586D01*
X52400Y3586D01*
X52486Y3157D01*
X52729Y2793D01*
X53315Y2207D01*
X53315Y2207D01*
X53591Y2023D01*
X53539Y1604D01*
X53507Y1523D01*
X11984D01*
X11885Y2023D01*
X12893Y2440D01*
X14152Y3281D01*
X15223Y4352D01*
X16064Y5611D01*
X16643Y7010D01*
X16939Y8495D01*
Y10009D01*
X16643Y11494D01*
X16064Y12893D01*
X15223Y14152D01*
X14152Y15223D01*
X12893Y16064D01*
X11494Y16643D01*
X10009Y16939D01*
X8495D01*
X7010Y16643D01*
X5611Y16064D01*
X4352Y15223D01*
X3281Y14152D01*
X2440Y12893D01*
X2173Y12247D01*
X1673Y12347D01*
Y54098D01*
X24016D01*
X24072Y54110D01*
X24129Y54105D01*
X24479Y54144D01*
X24589Y54179D01*
X24702Y54195D01*
X25036Y54311D01*
X25134Y54369D01*
X25242Y54410D01*
X25540Y54598D01*
X25624Y54676D01*
X25719Y54740D01*
X25969Y54989D01*
X26032Y55085D01*
X26111Y55168D01*
X26299Y55467D01*
X26340Y55574D01*
X26398Y55673D01*
X26514Y56006D01*
X26530Y56120D01*
X26565Y56229D01*
X26604Y56580D01*
X26599Y56637D01*
X26610Y56693D01*
X26610Y140157D01*
X26599Y140213D01*
X26604Y140270D01*
X26565Y140621D01*
X26530Y140730D01*
X26514Y140844D01*
X26398Y141177D01*
X26340Y141276D01*
X26299Y141383D01*
X26111Y141682D01*
X26032Y141765D01*
X25969Y141861D01*
X25719Y142110D01*
X25624Y142174D01*
X25540Y142253D01*
X25242Y142440D01*
X25134Y142481D01*
X25035Y142540D01*
X24702Y142656D01*
X24589Y142672D01*
X24479Y142706D01*
X24129Y142745D01*
X24072Y142741D01*
X24016Y142752D01*
X1673D01*
Y223874D01*
X2173Y223973D01*
X2440Y223327D01*
X3281Y222069D01*
X4352Y220998D01*
X5611Y220157D01*
X7010Y219577D01*
X8495Y219282D01*
X10009D01*
X11494Y219577D01*
X12893Y220157D01*
X14152Y220998D01*
X15223Y222069D01*
X16064Y223327D01*
X16643Y224726D01*
X16939Y226211D01*
Y227726D01*
X16643Y229211D01*
X16064Y230609D01*
X15223Y231868D01*
X14152Y232939D01*
X12893Y233780D01*
X11660Y234291D01*
X11759Y234791D01*
X22879D01*
X22919Y234755D01*
X23662Y234321D01*
X23765Y234285D01*
X23859Y234232D01*
X24444Y234040D01*
X24364Y233540D01*
X23867D01*
Y230121D01*
X23265D01*
X22837Y230206D01*
X22408Y230121D01*
X22044Y229878D01*
X21801Y229514D01*
X21716Y229085D01*
X21801Y228656D01*
X22044Y228292D01*
X22129Y228207D01*
X22129Y228207D01*
X22493Y227964D01*
X22922Y227878D01*
X22922Y227878D01*
X23867D01*
Y224460D01*
X26820D01*
Y220870D01*
X24685D01*
X24256Y220784D01*
X23892Y220541D01*
X23649Y220177D01*
X23563Y219748D01*
X23649Y219319D01*
X23892Y218955D01*
X24256Y218712D01*
X24685Y218626D01*
X26820D01*
Y215011D01*
X27442D01*
X27621Y214704D01*
X27649Y214511D01*
X27367Y214228D01*
X27367Y214228D01*
X27367Y214228D01*
X27366Y214227D01*
X27277Y214012D01*
X27259Y213968D01*
X25954D01*
Y211200D01*
Y208432D01*
X27167D01*
Y199749D01*
X5900D01*
X5441Y199559D01*
X4541Y198659D01*
X4351Y198200D01*
Y196611D01*
X4400Y196492D01*
Y196362D01*
X4491Y196271D01*
X4541Y196152D01*
X4660Y196102D01*
X4752Y196011D01*
X5252Y195804D01*
X5404Y195654D01*
X5551Y195460D01*
X5580Y195292D01*
X5541Y195100D01*
X5580Y194908D01*
X5551Y194740D01*
X5404Y194546D01*
X5252Y194396D01*
X4752Y194189D01*
X4660Y194098D01*
X4541Y194048D01*
X4491Y193929D01*
X4400Y193838D01*
Y193709D01*
X4351Y193589D01*
Y188956D01*
X4400Y188837D01*
Y188708D01*
X4491Y188617D01*
X4541Y188497D01*
X4660Y188448D01*
X4752Y188356D01*
X5235Y188156D01*
X5253Y188147D01*
X5411Y187947D01*
X5531Y187767D01*
X5543Y187638D01*
X5496Y187400D01*
X5543Y187162D01*
X5531Y187033D01*
X5411Y186853D01*
X5253Y186653D01*
X5235Y186644D01*
X4752Y186443D01*
X4660Y186352D01*
X4541Y186303D01*
X4491Y186183D01*
X4400Y186092D01*
Y185963D01*
X4351Y185844D01*
Y152600D01*
X4541Y152141D01*
X5000Y151951D01*
X35400D01*
X35859Y152141D01*
X36049Y152600D01*
Y153138D01*
X36369Y153494D01*
X36484Y153562D01*
X36487Y153561D01*
X36839Y153631D01*
X37136Y153830D01*
X37360Y154054D01*
X38198D01*
Y152400D01*
X40466D01*
Y154972D01*
Y157543D01*
X38198D01*
Y155889D01*
X36980D01*
X36629Y155819D01*
X36549Y155766D01*
X36049Y156030D01*
Y159959D01*
X38398D01*
Y158899D01*
X43535D01*
Y161110D01*
X45887D01*
X46238Y161180D01*
X46536Y161379D01*
X46887Y161731D01*
X47086Y162028D01*
X47137Y162286D01*
X47558Y162707D01*
X47802Y163295D01*
Y163931D01*
X47558Y164519D01*
X47108Y164969D01*
X46520Y165213D01*
X45883D01*
X45295Y164969D01*
X44845Y164519D01*
X44602Y163931D01*
Y163295D01*
X44368Y162946D01*
X43535D01*
Y163642D01*
X38398D01*
X38000Y163890D01*
X37923Y164077D01*
X37473Y164527D01*
X37334Y164585D01*
Y165085D01*
X37796Y165276D01*
X38191Y164880D01*
X38489Y164681D01*
X38840Y164611D01*
X39191Y164681D01*
X39489Y164880D01*
X39688Y165178D01*
X39758Y165529D01*
X39688Y165880D01*
X40007Y166304D01*
X40137Y166278D01*
X53139D01*
Y164798D01*
X51287D01*
Y158873D01*
X57212D01*
Y164798D01*
X54975D01*
Y166844D01*
X54905Y167195D01*
X54706Y167493D01*
X54355Y167844D01*
X54057Y168043D01*
X53706Y168113D01*
X40703D01*
Y168953D01*
X41150Y169079D01*
Y169079D01*
X44600D01*
Y174800D01*
X45600D01*
Y169079D01*
X49050D01*
Y169279D01*
X51802D01*
Y169453D01*
X58920D01*
X64218Y164155D01*
Y140122D01*
X62795D01*
X62774Y140197D01*
X62366Y140903D01*
X61789Y141481D01*
X61082Y141889D01*
X60294Y142100D01*
X59478D01*
X58689Y141889D01*
X57982Y141481D01*
X57405Y140903D01*
X56997Y140197D01*
X56786Y139408D01*
Y138592D01*
X56997Y137803D01*
X57405Y137097D01*
X57982Y136519D01*
X58689Y136111D01*
X59478Y135900D01*
X60294D01*
X61082Y136111D01*
X61789Y136519D01*
X62366Y137097D01*
X62774Y137803D01*
X62795Y137878D01*
X64218D01*
Y127765D01*
X63158D01*
Y121841D01*
X67114D01*
Y127765D01*
X66053D01*
Y138393D01*
X66172Y138571D01*
X66257Y139000D01*
X66172Y139429D01*
X66053Y139607D01*
Y164535D01*
X65984Y164886D01*
X65785Y165184D01*
X60244Y170725D01*
X60451Y171225D01*
X62677D01*
X68943Y164960D01*
Y162750D01*
Y136963D01*
X68664Y136889D01*
X67957Y136481D01*
X67380Y135903D01*
X66971Y135197D01*
X66760Y134408D01*
Y133592D01*
X66971Y132803D01*
X67380Y132097D01*
X67957Y131519D01*
X68664Y131111D01*
X68943Y131036D01*
Y127765D01*
X67882D01*
Y121841D01*
X71838D01*
Y127765D01*
X70778D01*
Y131036D01*
X71057Y131111D01*
X71764Y131519D01*
X72341Y132097D01*
X72749Y132803D01*
X72960Y133592D01*
Y134408D01*
X72749Y135197D01*
X72341Y135903D01*
X71764Y136481D01*
X71057Y136889D01*
X70778Y136963D01*
Y162750D01*
Y165340D01*
X70708Y165691D01*
X70509Y165989D01*
X63706Y172791D01*
X63409Y172990D01*
X63058Y173060D01*
X59680D01*
X56277Y176463D01*
X55980Y176662D01*
X55628Y176732D01*
X52912D01*
X52561Y176662D01*
X52473Y176603D01*
X51802D01*
Y180321D01*
X50469D01*
X50044Y180747D01*
X49971Y180856D01*
X49385Y181442D01*
X49054Y181663D01*
X48664Y181741D01*
X47185D01*
Y183097D01*
X47242Y183108D01*
X51083D01*
Y187851D01*
X45946D01*
Y184851D01*
X45913Y184829D01*
X45590Y184506D01*
X45265Y184412D01*
X44940Y184506D01*
X44617Y184829D01*
X44583Y184851D01*
Y187851D01*
X39446D01*
Y183108D01*
X43288D01*
X43345Y183097D01*
Y181777D01*
X43309Y181741D01*
X41536D01*
X41146Y181663D01*
X40815Y181442D01*
X40229Y180856D01*
X40156Y180747D01*
X39731Y180321D01*
X38719D01*
X38398Y180321D01*
X38272Y180769D01*
Y191312D01*
X39446D01*
Y189407D01*
X44583D01*
Y191412D01*
X45045Y191604D01*
X45094Y191555D01*
X45425Y191334D01*
X45815Y191256D01*
X45946D01*
Y189407D01*
X51083D01*
Y194150D01*
X49535D01*
Y195546D01*
X52772Y198784D01*
X53594D01*
Y197432D01*
X58732D01*
Y202175D01*
X53594D01*
Y200823D01*
X52350D01*
X51960Y200745D01*
X51629Y200524D01*
X47794Y196689D01*
X47573Y196359D01*
X47495Y195968D01*
Y194150D01*
X45966D01*
X45926Y194355D01*
X45704Y194686D01*
X45307Y195083D01*
Y199932D01*
X46825D01*
Y202700D01*
Y205469D01*
X45307D01*
Y206130D01*
X46789Y207612D01*
X49303D01*
Y211098D01*
X49394Y211315D01*
X49557Y211569D01*
X55328D01*
X55953Y211693D01*
X56482Y212047D01*
X56836Y212576D01*
X56960Y213200D01*
X56952Y213238D01*
X56956Y213242D01*
X57199Y213605D01*
X57285Y214035D01*
X57284Y214035D01*
Y215011D01*
X61097D01*
Y218909D01*
X66847D01*
X67276Y218165D01*
X67890Y217551D01*
X68643Y217116D01*
X69417Y216909D01*
Y220192D01*
Y223474D01*
X68643Y223267D01*
X67890Y222832D01*
X67276Y222218D01*
X66842Y221465D01*
X66758Y221152D01*
X61097D01*
Y224460D01*
X64050D01*
Y227878D01*
X65447D01*
X65780Y227656D01*
X66210Y227571D01*
X66639Y227656D01*
X67003Y227899D01*
X67246Y228263D01*
X67331Y228692D01*
X67246Y229121D01*
X67003Y229485D01*
X66695Y229793D01*
X66331Y230036D01*
X65902Y230122D01*
X65901Y230121D01*
X64050D01*
Y233323D01*
X64050Y233540D01*
X64433Y233823D01*
X65220D01*
X65273Y233833D01*
X65327Y233828D01*
X66184Y233918D01*
X66287Y233951D01*
X66395Y233964D01*
X67213Y234233D01*
X67308Y234286D01*
X67411Y234322D01*
X68154Y234758D01*
X68191Y234791D01*
X152147D01*
X152187Y234755D01*
X152930Y234321D01*
X153032Y234285D01*
X153127Y234232D01*
X153944Y233964D01*
X154052Y233951D01*
X154156Y233919D01*
X155011Y233828D01*
X155065Y233834D01*
X155118Y233823D01*
X194488D01*
X194541Y233833D01*
X194595Y233828D01*
X195451Y233918D01*
X195555Y233951D01*
X195663Y233964D01*
X196481Y234233D01*
X196576Y234286D01*
X196679Y234322D01*
X197422Y234758D01*
X197459Y234791D01*
X224461D01*
X224561Y234291D01*
D02*
G37*
G36*
X56150Y233540D02*
X56150Y233323D01*
Y229500D01*
X60100D01*
Y228500D01*
X56150D01*
Y224485D01*
X51229D01*
Y220248D01*
X56163D01*
Y219248D01*
X51229D01*
Y215489D01*
X50946Y215326D01*
X50664Y215489D01*
Y217969D01*
X49076D01*
Y218468D01*
X48576D01*
Y221926D01*
X47489D01*
Y221726D01*
X37859D01*
X37798Y221846D01*
X37712Y222053D01*
X37686Y222064D01*
X37673Y222089D01*
X37201Y222490D01*
X37178Y222497D01*
X37166Y222518D01*
X36945Y222572D01*
X36728Y222642D01*
X36687Y223102D01*
Y224485D01*
X31766D01*
Y227293D01*
X37450D01*
Y224460D01*
X40112D01*
Y229000D01*
X41112D01*
Y224460D01*
X43774D01*
Y224460D01*
X44142D01*
Y224460D01*
X46805D01*
Y229000D01*
X47305D01*
Y229500D01*
X50467D01*
Y233323D01*
X50467Y233540D01*
X50850Y233823D01*
X55768D01*
X56150Y233540D01*
D02*
G37*
G36*
X168617Y221083D02*
Y199683D01*
X163571D01*
Y200161D01*
X163571Y200161D01*
X163489Y200571D01*
X163257Y200918D01*
X163257Y200919D01*
X162369Y201806D01*
X162576Y202306D01*
X163835D01*
Y209299D01*
X161606D01*
Y202602D01*
X161344Y202388D01*
X161288Y202388D01*
X154981D01*
X154676Y202786D01*
X152114D01*
Y203786D01*
X154578D01*
X154530Y204028D01*
X154368Y204270D01*
X154530Y204512D01*
X154578Y204754D01*
X152114D01*
Y205754D01*
X154578D01*
X154555Y205870D01*
X154532Y206375D01*
X154830Y206574D01*
X156220Y207964D01*
X156429Y208005D01*
X156793Y208249D01*
X157036Y208612D01*
X157122Y209042D01*
Y211079D01*
X158569D01*
Y215822D01*
X153431D01*
Y211079D01*
X154878D01*
Y209218D01*
X153953Y208293D01*
X153901Y208328D01*
X153589Y208390D01*
X150639D01*
X150482Y208358D01*
X150077Y208596D01*
X149982Y208698D01*
Y214196D01*
X150296Y214510D01*
X150539Y215098D01*
Y215734D01*
X150296Y216322D01*
X149846Y216773D01*
X149258Y217016D01*
X148621D01*
X148033Y216773D01*
X147583Y216322D01*
X147339Y215734D01*
Y215098D01*
X147583Y214510D01*
X147739Y214354D01*
Y211416D01*
X146740D01*
X146307Y211236D01*
X145874Y211416D01*
X144772D01*
X144312Y211225D01*
X144122Y210766D01*
Y208626D01*
X143254D01*
X142944Y208564D01*
X142681Y208388D01*
X142531Y208164D01*
X142286Y208328D01*
X141975Y208390D01*
X139025D01*
X138714Y208328D01*
X138680Y208305D01*
X136992Y209993D01*
X136628Y210236D01*
X136199Y210322D01*
X136199Y210321D01*
X133372D01*
Y211361D01*
X128628D01*
Y206224D01*
X133372D01*
Y208079D01*
X135734D01*
X136458Y207354D01*
X136251Y206854D01*
X135881D01*
X135292Y206611D01*
X134842Y206161D01*
X134599Y205573D01*
Y204936D01*
X134842Y204348D01*
X135292Y203898D01*
X135881Y203654D01*
X136517D01*
X137105Y203898D01*
X137205Y203997D01*
X137654Y203973D01*
X137852Y203786D01*
X140500D01*
Y202786D01*
X137938D01*
X137633Y202388D01*
X135675D01*
X135665Y202386D01*
X135311Y202532D01*
X134674D01*
X134086Y202289D01*
X133636Y201839D01*
X133393Y201251D01*
Y200614D01*
X133636Y200026D01*
X133529Y199425D01*
X133298Y199194D01*
X133054Y198606D01*
Y197969D01*
X133298Y197381D01*
X133748Y196931D01*
X134336Y196688D01*
X134973D01*
X135561Y196931D01*
X136011Y197381D01*
X136030Y197428D01*
X136626D01*
X137036Y197509D01*
X137383Y197741D01*
X137920Y198278D01*
X138662D01*
X138714Y198244D01*
X139025Y198182D01*
X141975D01*
X142286Y198244D01*
X142338Y198278D01*
X142617D01*
X142681Y198183D01*
X142944Y198008D01*
X143254Y197946D01*
X144122D01*
Y195806D01*
X144312Y195346D01*
X144772Y195156D01*
X145874D01*
X146307Y195335D01*
X146740Y195156D01*
X147843D01*
X148302Y195346D01*
X148492Y195806D01*
Y197946D01*
X149360D01*
X149670Y198008D01*
X149933Y198183D01*
X150083Y198407D01*
X150328Y198244D01*
X150639Y198182D01*
X153589D01*
X153901Y198244D01*
X153952Y198278D01*
X159825D01*
X160335Y197768D01*
X160335Y197768D01*
X160699Y197525D01*
X161128Y197440D01*
X161128Y197440D01*
X168617D01*
Y196029D01*
X168144D01*
Y194514D01*
X166601D01*
X166298Y194817D01*
X165710Y195060D01*
X165074D01*
X164486Y194817D01*
X164035Y194367D01*
X163792Y193779D01*
Y193142D01*
X164035Y192554D01*
X164486Y192104D01*
X165074Y191860D01*
X165710D01*
X166298Y192104D01*
X166465Y192271D01*
X168144D01*
Y190892D01*
X168617D01*
Y175514D01*
X168268D01*
X167680Y175271D01*
X167445Y175036D01*
X165475D01*
Y176483D01*
X160732D01*
Y171346D01*
X165475D01*
Y172793D01*
X167445D01*
X167680Y172558D01*
X168268Y172315D01*
X168617D01*
Y163367D01*
X169798D01*
X182589Y150576D01*
Y139129D01*
X182215Y138985D01*
X182089Y138960D01*
X181781Y139165D01*
X181393Y139243D01*
X181105D01*
Y137931D01*
X180105D01*
Y139243D01*
X179818D01*
X179429Y139165D01*
X179099Y138945D01*
X178752Y138682D01*
X178442Y138743D01*
X175288D01*
X174978Y138682D01*
X174631Y138945D01*
X174301Y139165D01*
X173912Y139243D01*
X173625D01*
Y137931D01*
X173125D01*
Y137431D01*
X171318D01*
X171020Y136981D01*
X169705D01*
X169368Y137318D01*
X168780Y137562D01*
X168143D01*
X167555Y137318D01*
X167105Y136868D01*
X166924Y136431D01*
X96049D01*
X95841Y136223D01*
X93818Y138246D01*
Y145978D01*
X95593D01*
Y143646D01*
X101321D01*
Y150554D01*
X95593D01*
Y148222D01*
X93818D01*
Y221280D01*
X94615D01*
Y220964D01*
X94897Y219910D01*
X95442Y218965D01*
X96214Y218194D01*
X97159Y217648D01*
X98212Y217366D01*
X99303D01*
X100357Y217648D01*
X101302Y218194D01*
X102073Y218965D01*
X102619Y219910D01*
X102901Y220964D01*
Y221280D01*
X104615D01*
Y220964D01*
X104859Y220054D01*
X104705Y219639D01*
X104579Y219461D01*
X104564Y219457D01*
X104429Y219354D01*
X104273Y219289D01*
X104239Y219208D01*
X104170Y219155D01*
X104148Y218986D01*
X104083Y218830D01*
Y214758D01*
X104273Y214299D01*
X105063Y213509D01*
X105522Y213319D01*
X114879D01*
X115012Y212908D01*
X115022Y212853D01*
Y208135D01*
X118376D01*
X118511Y208000D01*
X118511Y208000D01*
X118875Y207757D01*
X119304Y207671D01*
X119304Y207671D01*
X122329D01*
Y206224D01*
X127073D01*
Y211361D01*
X122329D01*
Y209914D01*
X120159D01*
Y212853D01*
X120169Y212908D01*
X120302Y213319D01*
X132668D01*
X133127Y213509D01*
X133466Y213847D01*
X133656Y214307D01*
Y221280D01*
X149176D01*
X149383Y220780D01*
X149184Y220581D01*
X148941Y219993D01*
Y219356D01*
X149184Y218769D01*
X149634Y218318D01*
X150222Y218075D01*
X150859D01*
X151447Y218318D01*
X151757Y218628D01*
X153431D01*
Y217378D01*
X158569D01*
Y221280D01*
X168199D01*
X168617Y221083D01*
D02*
G37*
G36*
X133007Y227327D02*
Y214307D01*
X132668Y213968D01*
X120241D01*
X120159Y214434D01*
X120159Y214468D01*
Y215684D01*
X121548D01*
X121789Y215444D01*
X122377Y215200D01*
X123013D01*
X123601Y215444D01*
X124051Y215894D01*
X124295Y216482D01*
Y217118D01*
X124051Y217706D01*
X123601Y218156D01*
X123013Y218400D01*
X122377D01*
X121789Y218156D01*
X121559Y217927D01*
X120159D01*
Y219177D01*
X115022D01*
Y214468D01*
X115022Y214434D01*
X114940Y213968D01*
X105522D01*
X104732Y214758D01*
Y218830D01*
X105215Y218959D01*
X105282Y218843D01*
X106091Y218034D01*
X107081Y217462D01*
X108186Y217166D01*
X108258D01*
Y221509D01*
Y225853D01*
X108186D01*
X107081Y225557D01*
X106091Y224985D01*
X105282Y224176D01*
X105215Y224060D01*
X104732Y224189D01*
Y227005D01*
X104919Y227461D01*
X132652Y227679D01*
X133007Y227327D01*
D02*
G37*
G36*
X37253Y221594D02*
Y218969D01*
X38840D01*
Y217969D01*
X37253D01*
Y215011D01*
X37821D01*
Y214182D01*
X35858Y212220D01*
X34325D01*
Y213968D01*
X32254D01*
Y211200D01*
Y208432D01*
X34325D01*
Y210180D01*
X35261D01*
Y206103D01*
X34269D01*
Y207556D01*
X32000D01*
Y204000D01*
Y200444D01*
X34269D01*
Y204064D01*
X35858D01*
X37273Y202649D01*
Y202413D01*
X39451D01*
Y201913D01*
X39951D01*
Y199932D01*
X40290D01*
X40573Y199432D01*
X40569Y199425D01*
X27817D01*
Y208631D01*
X27826D01*
Y213769D01*
X27826Y213769D01*
X27826D01*
X28161Y214105D01*
X28557Y214500D01*
X35400D01*
Y215211D01*
X36487D01*
Y221788D01*
X36578Y221963D01*
X36781Y221994D01*
X37253Y221594D01*
D02*
G37*
G36*
X27357Y198966D02*
X27817Y198775D01*
X35399D01*
X35400Y198774D01*
Y180249D01*
X32372D01*
Y181168D01*
X27628D01*
Y176031D01*
X31641D01*
X31832Y175570D01*
X31330Y175067D01*
X31131Y174769D01*
X31061Y174418D01*
Y172939D01*
X28135D01*
Y167802D01*
X29589D01*
Y165521D01*
X27931D01*
Y164271D01*
X26471D01*
Y165718D01*
X21728D01*
Y160581D01*
X26471D01*
Y162028D01*
X27931D01*
Y160778D01*
X32289D01*
X32433Y160278D01*
X31377Y159222D01*
X27931D01*
Y154479D01*
X33068D01*
Y158318D01*
X34102Y159351D01*
X34301Y159649D01*
X34362Y159959D01*
X35400D01*
Y155654D01*
X35131Y155385D01*
X34887Y154797D01*
Y154160D01*
X35131Y153572D01*
X35400Y153303D01*
Y152600D01*
X5000D01*
Y185844D01*
X5500Y186051D01*
X5507Y186044D01*
X6095Y185800D01*
X6732D01*
X7320Y186044D01*
X7350Y186074D01*
X7850Y185866D01*
Y183946D01*
X13577D01*
Y190854D01*
X7850D01*
Y188934D01*
X7350Y188726D01*
X7320Y188756D01*
X6732Y189000D01*
X6095D01*
X5507Y188756D01*
X5500Y188749D01*
X5000Y188956D01*
Y193589D01*
X5500Y193796D01*
X5553Y193744D01*
X6141Y193500D01*
X6777D01*
X7365Y193744D01*
X7804Y194182D01*
X9242D01*
Y192532D01*
X13985D01*
Y197669D01*
X9242D01*
Y196018D01*
X7804D01*
X7365Y196456D01*
X6777Y196700D01*
X6141D01*
X5553Y196456D01*
X5500Y196404D01*
X5000Y196611D01*
Y198200D01*
X5900Y199100D01*
X27302D01*
X27357Y198966D01*
D02*
G37*
G36*
X217861Y117223D02*
Y100622D01*
X198026D01*
X196562Y99158D01*
Y98025D01*
X193750D01*
Y96677D01*
X188630D01*
X188334Y96799D01*
X187697D01*
X187109Y96556D01*
X186659Y96106D01*
X186416Y95517D01*
Y94881D01*
X186659Y94293D01*
X187109Y93843D01*
X187697Y93599D01*
X188334D01*
X188922Y93843D01*
X189372Y94293D01*
X189430Y94434D01*
X193750D01*
Y93085D01*
X196562D01*
Y88970D01*
X193750D01*
Y84030D01*
X196562D01*
Y79915D01*
X193750D01*
Y74975D01*
X196562D01*
Y2503D01*
X174171D01*
Y4582D01*
X171599D01*
X169028D01*
Y2503D01*
X168167D01*
X167672Y2514D01*
Y7651D01*
X162928D01*
Y6204D01*
X162051D01*
Y11682D01*
X162551Y11816D01*
X162840Y11315D01*
X163454Y10701D01*
X164207Y10267D01*
X164980Y10059D01*
Y13342D01*
Y16624D01*
X164207Y16417D01*
X163454Y15982D01*
X162840Y15368D01*
X162551Y14867D01*
X162051Y15001D01*
Y16140D01*
X162547D01*
Y18276D01*
X165338D01*
X165573Y18041D01*
X166161Y17797D01*
X166798D01*
X167386Y18041D01*
X167836Y18491D01*
X168079Y19079D01*
Y19716D01*
X167836Y20304D01*
X167386Y20754D01*
X166798Y20997D01*
X166161D01*
X165573Y20754D01*
X165338Y20519D01*
X162547D01*
Y22655D01*
X162051D01*
Y40549D01*
X162547D01*
Y41996D01*
X163855D01*
X163875Y41921D01*
X164283Y41214D01*
X164860Y40637D01*
X165567Y40229D01*
X166355Y40018D01*
X167172D01*
X167960Y40229D01*
X168667Y40637D01*
X169244Y41214D01*
X169652Y41921D01*
X169672Y41996D01*
X171767D01*
Y40431D01*
X176511D01*
Y45568D01*
X171767D01*
Y44239D01*
X169672D01*
X169652Y44314D01*
X169244Y45021D01*
X168667Y45598D01*
X167960Y46007D01*
X167172Y46218D01*
X166355D01*
X165567Y46007D01*
X164860Y45598D01*
X164283Y45021D01*
X163875Y44314D01*
X163855Y44239D01*
X162547D01*
Y45686D01*
X162051D01*
Y55116D01*
X162547D01*
Y55799D01*
X163047Y56133D01*
X163163Y56085D01*
X163800D01*
X164388Y56328D01*
X164597Y56301D01*
X164897Y55781D01*
X165475Y55204D01*
X166182Y54796D01*
X166970Y54585D01*
X167786D01*
X168575Y54796D01*
X169281Y55204D01*
X169842Y55764D01*
X170333Y55785D01*
X170333Y55785D01*
X170333Y55785D01*
X175667D01*
Y59544D01*
X174122D01*
Y63013D01*
X174477Y63369D01*
X175432D01*
Y62119D01*
X180569D01*
Y63369D01*
X188217D01*
Y59544D01*
X186672D01*
Y55785D01*
X192006D01*
Y59544D01*
X190460D01*
Y63904D01*
X190375Y64334D01*
X190132Y64697D01*
X190132Y64697D01*
X189546Y65283D01*
X189182Y65526D01*
X188753Y65612D01*
X188753Y65612D01*
X180569D01*
Y66862D01*
X175432D01*
Y65612D01*
X174012D01*
X174012Y65612D01*
X173583Y65526D01*
X173372Y65385D01*
X172945Y65564D01*
X172872Y65639D01*
Y69668D01*
X175432D01*
Y68418D01*
X180569D01*
Y73161D01*
X179122D01*
Y74177D01*
X179197Y74197D01*
X179903Y74605D01*
X180481Y75182D01*
X180889Y75889D01*
X181100Y76678D01*
Y77494D01*
X180889Y78282D01*
X180481Y78989D01*
X179903Y79566D01*
X179197Y79975D01*
X179122Y79995D01*
Y80239D01*
X179122Y80239D01*
X179122Y80239D01*
Y82854D01*
X180569D01*
Y87597D01*
X175432D01*
Y82854D01*
X176878D01*
Y81622D01*
X175641D01*
X175406Y81856D01*
X174818Y82100D01*
X174182D01*
X173594Y81856D01*
X173144Y81406D01*
X172900Y80818D01*
Y80182D01*
X173144Y79594D01*
X173594Y79144D01*
X174182Y78900D01*
X174818D01*
X174913Y78939D01*
X175261Y78542D01*
X175111Y78282D01*
X174900Y77494D01*
Y76678D01*
X175111Y75889D01*
X175519Y75182D01*
X176097Y74605D01*
X176803Y74197D01*
X176878Y74177D01*
Y73161D01*
X175432D01*
Y71911D01*
X171086D01*
X170657Y71826D01*
X170293Y71582D01*
X170293Y71582D01*
X169707Y70997D01*
X169464Y70633D01*
X169411Y70368D01*
X168128D01*
Y65232D01*
X172460D01*
X172667Y64732D01*
X172207Y64271D01*
X171964Y63907D01*
X171878Y63478D01*
X171878Y63478D01*
Y59544D01*
X170333D01*
X170333Y59544D01*
Y59544D01*
X169843Y59633D01*
X169793Y59707D01*
X169632Y59815D01*
X169281Y60165D01*
X168575Y60574D01*
X167786Y60785D01*
X166970D01*
X166182Y60574D01*
X165475Y60165D01*
X164897Y59588D01*
X164597Y59069D01*
X164388Y59041D01*
X163800Y59285D01*
X163163D01*
X163047Y59237D01*
X162547Y59571D01*
Y60253D01*
X162051D01*
Y65232D01*
X166572D01*
Y70368D01*
X162051D01*
Y75266D01*
X168914D01*
X168914Y75266D01*
X169343Y75351D01*
X169416Y75400D01*
X169908D01*
X170697Y75611D01*
X171403Y76019D01*
X171981Y76597D01*
X172389Y77303D01*
X172600Y78092D01*
Y78908D01*
X172389Y79697D01*
X171981Y80403D01*
X171403Y80981D01*
X170697Y81389D01*
X170622Y81409D01*
Y98414D01*
X170536Y98843D01*
X170293Y99207D01*
X170293Y99207D01*
X169707Y99793D01*
X169343Y100036D01*
X168914Y100122D01*
X168914Y100122D01*
X164832D01*
X164565Y100584D01*
X164084Y101065D01*
X163830Y101211D01*
Y101789D01*
X164084Y101936D01*
X164565Y102416D01*
X164904Y103004D01*
X165080Y103660D01*
Y104340D01*
X164904Y104996D01*
X164565Y105584D01*
X164084Y106064D01*
X163622Y106332D01*
Y108414D01*
X163536Y108843D01*
X163293Y109207D01*
X163293Y109207D01*
X162707Y109793D01*
X162343Y110036D01*
X162051Y110094D01*
Y116626D01*
X182239D01*
Y109905D01*
X182238Y109905D01*
X182324Y109475D01*
X182567Y109111D01*
X183153Y108526D01*
X183153Y108526D01*
X183517Y108283D01*
X183946Y108197D01*
X187600D01*
X187600Y108197D01*
X188029Y108283D01*
X188393Y108526D01*
X189141Y109274D01*
X192323D01*
X192323Y109274D01*
X192752Y109359D01*
X193116Y109602D01*
X194387Y110874D01*
X194729D01*
X194729Y110874D01*
X194837Y110896D01*
X200144D01*
Y113060D01*
X211223D01*
X211223Y113060D01*
X211652Y113145D01*
X212016Y113388D01*
X212601Y113974D01*
X212601Y113974D01*
X212844Y114338D01*
X212930Y114767D01*
Y116626D01*
X216556D01*
X217361Y117430D01*
X217861Y117223D01*
D02*
G37*
G36*
X161261Y106264D02*
X160916Y106064D01*
X160780Y105929D01*
X160280Y106136D01*
Y106780D01*
X158000D01*
Y104000D01*
X157500D01*
Y103500D01*
X154720D01*
Y101220D01*
X154353Y100898D01*
X146916D01*
X146855Y102957D01*
X147342Y103400D01*
X147808D01*
X148596Y103611D01*
X149303Y104019D01*
X149880Y104597D01*
X150288Y105303D01*
X150500Y106092D01*
Y106908D01*
X150374Y107378D01*
X150731Y107878D01*
X161261D01*
Y106264D01*
D02*
G37*
G36*
X149210Y99749D02*
X149149Y99595D01*
X148785Y99352D01*
X148542Y98988D01*
X148456Y98559D01*
X148542Y98130D01*
X148785Y97766D01*
X149149Y97523D01*
X149578Y97437D01*
X149849D01*
X149849Y97437D01*
X150278Y97523D01*
X150642Y97766D01*
X150754Y97878D01*
X154938D01*
X155275Y97293D01*
X155776Y96792D01*
X155837Y96720D01*
Y96280D01*
X155776Y96208D01*
X155275Y95707D01*
X154938Y95122D01*
X153246D01*
X153075Y95293D01*
X152711Y95536D01*
X152282Y95622D01*
X152282Y95622D01*
X150257D01*
X150211Y95652D01*
X149782Y95738D01*
X149353Y95652D01*
X148989Y95409D01*
X148989Y95409D01*
X148798Y95218D01*
X148554Y94854D01*
X148469Y94425D01*
X148469Y94425D01*
Y93433D01*
X147937Y93290D01*
X147184Y92856D01*
X146570Y92241D01*
X146135Y91489D01*
X145928Y90715D01*
X149211D01*
X152493D01*
X152286Y91489D01*
X151851Y92241D01*
X151237Y92856D01*
X151197Y92879D01*
X151331Y93379D01*
X151817D01*
X151989Y93207D01*
X151989Y93207D01*
X152353Y92964D01*
X152782Y92878D01*
X152782Y92878D01*
X154938D01*
X155275Y92293D01*
X155793Y91776D01*
X155970Y91673D01*
X155970Y91096D01*
X155916Y91065D01*
X155436Y90584D01*
X155096Y89996D01*
X154920Y89340D01*
Y88660D01*
X155096Y88004D01*
X155436Y87416D01*
X155916Y86936D01*
X155970Y86904D01*
X155970Y86327D01*
X155793Y86225D01*
X155275Y85707D01*
X154938Y85122D01*
X150086D01*
X149657Y85036D01*
X149293Y84793D01*
X149050Y84429D01*
X148964Y84000D01*
X149050Y83571D01*
X149293Y83207D01*
X149657Y82964D01*
X150086Y82878D01*
X154938D01*
X155275Y82293D01*
X155793Y81775D01*
X156427Y81410D01*
X157000Y81256D01*
Y84000D01*
X158000D01*
Y81256D01*
X158573Y81410D01*
X159207Y81775D01*
X159724Y82293D01*
X159827Y82470D01*
X160404Y82470D01*
X160435Y82416D01*
X160916Y81936D01*
X161378Y81668D01*
Y80653D01*
X161144Y80418D01*
X160900Y79830D01*
Y79194D01*
X161144Y78606D01*
X161594Y78155D01*
X161947Y78009D01*
X161848Y77509D01*
X150163D01*
X148029Y79643D01*
Y81310D01*
X148029Y81310D01*
X147943Y81739D01*
X147700Y82103D01*
X147700Y82103D01*
X147056Y82747D01*
X146692Y82990D01*
X146263Y83076D01*
X146263Y83076D01*
X144665D01*
Y93936D01*
X144665Y93936D01*
X144580Y94366D01*
X144336Y94729D01*
X144336Y94729D01*
X143073Y95992D01*
X142710Y96235D01*
X142280Y96321D01*
X142280Y96321D01*
X136579D01*
X136579Y96321D01*
X136150Y96235D01*
X135786Y95992D01*
X135786Y95992D01*
X134601Y94807D01*
X130464D01*
Y95663D01*
X125434D01*
X125278Y95932D01*
X125550Y96431D01*
X130464D01*
Y97288D01*
X144722D01*
X144722Y97288D01*
X145151Y97373D01*
X145515Y97616D01*
X146101Y98202D01*
X146101Y98202D01*
X146344Y98566D01*
X146429Y98995D01*
Y99906D01*
X146474Y99979D01*
X146916Y100249D01*
X148871D01*
X149210Y99749D01*
D02*
G37*
G36*
X124540Y91707D02*
X130464D01*
Y92563D01*
X135065D01*
X135065Y92563D01*
X135494Y92649D01*
X135858Y92892D01*
X137044Y94078D01*
X141816D01*
X142422Y93472D01*
Y86160D01*
X141922Y86094D01*
X141813Y86499D01*
X141379Y87252D01*
X140764Y87866D01*
X140012Y88300D01*
X139238Y88508D01*
Y85225D01*
X138238D01*
Y88508D01*
X137464Y88300D01*
X136712Y87866D01*
X136098Y87252D01*
X136029Y87133D01*
X135529Y87267D01*
Y88375D01*
X135444Y88804D01*
X135201Y89168D01*
X135201Y89168D01*
X134615Y89754D01*
X134251Y89997D01*
X133822Y90082D01*
X133822Y90082D01*
X130464D01*
Y90939D01*
X124540D01*
Y86983D01*
X130464D01*
Y87839D01*
X133286D01*
Y85778D01*
X133000Y85492D01*
X132757Y84904D01*
Y84267D01*
X133000Y83679D01*
X133450Y83229D01*
X134038Y82986D01*
X134675D01*
X135263Y83229D01*
X135415Y83381D01*
X136040Y83299D01*
X136098Y83199D01*
X136712Y82585D01*
X137464Y82150D01*
X137383Y81654D01*
X136957D01*
Y78500D01*
X139521D01*
Y81501D01*
X139521Y81654D01*
X139720Y82072D01*
X140012Y82150D01*
X140764Y82585D01*
X141379Y83199D01*
X141813Y83951D01*
X141922Y84356D01*
X142422Y84290D01*
Y82543D01*
X142422Y82543D01*
X142507Y82113D01*
X142613Y81954D01*
X142360Y81454D01*
X140680D01*
Y74546D01*
X142922D01*
Y73058D01*
X143007Y72629D01*
X143250Y72265D01*
X143614Y72022D01*
X144043Y71936D01*
X145315D01*
Y68373D01*
X144372Y67430D01*
X122008D01*
X121989Y68729D01*
X122340Y69085D01*
X123807D01*
Y75010D01*
X121899D01*
X121611Y95112D01*
X122105Y95587D01*
X124540D01*
Y91707D01*
D02*
G37*
G36*
X209047Y80064D02*
Y66708D01*
X198943D01*
X198563Y66328D01*
X198107Y66784D01*
Y74775D01*
X203615D01*
Y76945D01*
X198583D01*
Y77945D01*
X203615D01*
Y80115D01*
X203970Y80464D01*
X208576Y80528D01*
X209047Y80064D01*
D02*
G37*
G36*
X67882Y75009D02*
Y69085D01*
X68739D01*
Y67640D01*
X68739Y67640D01*
X68824Y67211D01*
X69067Y66847D01*
X69707Y66207D01*
Y64008D01*
X69632Y63988D01*
X68925Y63580D01*
X68348Y63003D01*
X67940Y62296D01*
X67728Y61507D01*
Y60691D01*
X67851Y60233D01*
X67488Y59733D01*
X66797D01*
Y58055D01*
X68908D01*
X69285Y58275D01*
X69707Y58045D01*
Y54119D01*
X55244D01*
X54777Y54586D01*
X54874Y58631D01*
X56189D01*
Y65540D01*
X55398D01*
X55049Y65898D01*
X55125Y69085D01*
X57665D01*
Y74546D01*
X58165Y74864D01*
X58233Y74832D01*
Y72547D01*
X60411D01*
X62589D01*
X62589Y74832D01*
X62658Y74864D01*
X62703Y74860D01*
X63158Y74546D01*
Y69085D01*
X64014D01*
Y66770D01*
X63844Y66600D01*
X63662Y66163D01*
X63594Y66007D01*
X63218Y65740D01*
X60911D01*
Y62586D01*
X63475D01*
Y64469D01*
X63975Y64655D01*
X64294Y64337D01*
X64882Y64093D01*
X65518D01*
X66106Y64337D01*
X66556Y64787D01*
X66800Y65375D01*
Y66012D01*
X66556Y66600D01*
X66257Y66899D01*
Y69085D01*
X67114D01*
Y74818D01*
X67114Y75010D01*
X67486Y75318D01*
X67510D01*
X67882Y75009D01*
D02*
G37*
G36*
X229200Y41307D02*
X228700Y41100D01*
X228600Y41200D01*
X223043D01*
Y44300D01*
X218700D01*
X214357D01*
Y41200D01*
X203300D01*
Y62524D01*
X203505Y62781D01*
X203924Y62978D01*
X204430Y63100D01*
X209444D01*
Y61460D01*
X216556D01*
Y63100D01*
X219141D01*
Y60324D01*
X221179D01*
Y58240D01*
X220944Y58005D01*
X220700Y57417D01*
Y56781D01*
X220944Y56193D01*
X221394Y55743D01*
X221982Y55499D01*
X222618D01*
X223206Y55743D01*
X223656Y56193D01*
X223900Y56781D01*
Y57417D01*
X223656Y58005D01*
X223422Y58240D01*
Y60324D01*
X225459D01*
Y63100D01*
X229200D01*
Y41307D01*
D02*
G37*
G36*
X61963Y37278D02*
Y33815D01*
X61159D01*
Y29071D01*
X61963D01*
Y24526D01*
X54684D01*
X54660Y25026D01*
X54878Y25244D01*
X55122Y25832D01*
Y26469D01*
X54878Y27057D01*
X54428Y27507D01*
X53840Y27750D01*
X53203D01*
X52615Y27507D01*
X52165Y27057D01*
X51922Y26469D01*
Y25832D01*
X52165Y25244D01*
X52383Y25026D01*
X52360Y24526D01*
X38290D01*
X38220Y24596D01*
Y30889D01*
X38720Y31023D01*
X38798Y30887D01*
X39413Y30272D01*
X40165Y29838D01*
X40939Y29631D01*
Y32913D01*
Y36196D01*
X40165Y35988D01*
X39413Y35554D01*
X38798Y34939D01*
X38720Y34804D01*
X38220Y34938D01*
Y37208D01*
X38361Y37349D01*
X47831D01*
Y35764D01*
X52969D01*
Y37349D01*
X61893D01*
X61963Y37278D01*
D02*
G37*
G36*
X105971Y24172D02*
X107679D01*
Y17749D01*
X105028Y15098D01*
X101674D01*
Y9961D01*
X106418D01*
Y13315D01*
X107217Y14115D01*
X107679Y13923D01*
Y9122D01*
X107120Y8563D01*
X88450D01*
X88097Y8916D01*
X88099Y13097D01*
X88561Y13288D01*
X88700Y13149D01*
X89453Y12715D01*
X90227Y12507D01*
Y15790D01*
Y19072D01*
X89453Y18865D01*
X88700Y18431D01*
X88564Y18295D01*
X88103Y18486D01*
X88106Y23780D01*
X88418Y24004D01*
X88885Y23790D01*
Y19668D01*
X93629D01*
Y24805D01*
X92379D01*
Y26512D01*
X92605Y26664D01*
X93059D01*
X93338Y26477D01*
X93669Y26411D01*
X95145D01*
X95475Y26477D01*
X95755Y26664D01*
X95778Y26699D01*
X105971D01*
Y24172D01*
D02*
G37*
G36*
X142385Y21671D02*
X138692D01*
Y21871D01*
X136718D01*
Y18905D01*
Y15940D01*
X138692D01*
Y16140D01*
X139428D01*
Y13720D01*
X135312Y9604D01*
X130374D01*
X130023Y9960D01*
X130042Y11219D01*
X130159Y11297D01*
X132681Y13818D01*
X132681Y13818D01*
X132924Y14182D01*
X133009Y14611D01*
X133009Y14611D01*
Y16140D01*
X133745D01*
Y15940D01*
X135719D01*
Y18905D01*
Y21871D01*
X133745D01*
Y21671D01*
X130559D01*
X130208Y22027D01*
X130248Y24599D01*
X130400Y24661D01*
X142385D01*
Y21671D01*
D02*
G37*
%LPC*%
G36*
X207842Y230100D02*
X207158D01*
X206496Y229923D01*
X205904Y229580D01*
X205419Y229096D01*
X205077Y228504D01*
X204900Y227842D01*
Y227158D01*
X205077Y226496D01*
X205419Y225904D01*
X205904Y225419D01*
X206496Y225077D01*
X207158Y224900D01*
X207842D01*
X208504Y225077D01*
X209096Y225419D01*
X209580Y225904D01*
X209923Y226496D01*
X210100Y227158D01*
Y227842D01*
X209923Y228504D01*
X209580Y229096D01*
X209096Y229580D01*
X208504Y229923D01*
X207842Y230100D01*
D02*
G37*
G36*
X88258Y225853D02*
X84415D01*
Y223223D01*
X83915Y223016D01*
X82544Y224386D01*
X82197Y224618D01*
X81787Y224700D01*
X81377Y224618D01*
X81030Y224386D01*
X80798Y224039D01*
X80716Y223629D01*
X80798Y223220D01*
X81030Y222872D01*
X83150Y220752D01*
X83150Y220752D01*
X83497Y220520D01*
X83907Y220439D01*
X84415D01*
Y217166D01*
X88258D01*
Y221509D01*
Y225853D01*
D02*
G37*
G36*
X70417Y223474D02*
Y220692D01*
X73199D01*
X72992Y221465D01*
X72557Y222218D01*
X71943Y222832D01*
X71190Y223267D01*
X70417Y223474D01*
D02*
G37*
G36*
X73199Y219692D02*
X70417D01*
Y216909D01*
X71190Y217116D01*
X71943Y217551D01*
X72557Y218165D01*
X72992Y218918D01*
X73199Y219692D01*
D02*
G37*
G36*
X24954Y213968D02*
X22883D01*
Y212321D01*
X20200D01*
X19771Y212236D01*
X19407Y211993D01*
X19164Y211629D01*
X19079Y211200D01*
X19164Y210771D01*
X19407Y210407D01*
X19771Y210164D01*
X20200Y210079D01*
X22883D01*
Y208432D01*
X24954D01*
Y211200D01*
Y213968D01*
D02*
G37*
G36*
X58931Y208674D02*
X56663D01*
Y206603D01*
X58931D01*
Y208674D01*
D02*
G37*
G36*
X231289Y210822D02*
X214496Y210505D01*
X214274Y210408D01*
X214049Y210315D01*
X214047Y210309D01*
X214041Y210306D01*
X213952Y210080D01*
X213859Y209856D01*
Y207956D01*
X208593D01*
Y206157D01*
X206521D01*
Y208982D01*
X195479D01*
Y201089D01*
X199878D01*
Y196379D01*
X198278D01*
Y191242D01*
X198403D01*
X198594Y190780D01*
X197778Y189964D01*
X193046D01*
Y184236D01*
X199954D01*
Y186022D01*
X202546D01*
Y184280D01*
X209454D01*
Y190007D01*
X202546D01*
Y188265D01*
X199954D01*
Y188968D01*
X201443Y190456D01*
X201443Y190456D01*
X201686Y190820D01*
X201770Y191242D01*
X203021D01*
Y196379D01*
X202121D01*
Y201089D01*
X206521D01*
Y203914D01*
X208593D01*
Y201244D01*
X213859D01*
Y190109D01*
X214049Y189650D01*
X214984Y188715D01*
X215012Y188704D01*
X215026Y188677D01*
X215238Y188610D01*
X215444Y188525D01*
X215471Y188536D01*
X215500Y188527D01*
X219727Y188896D01*
X220095Y188558D01*
Y188252D01*
X223454D01*
X226814D01*
Y189101D01*
X227090Y189538D01*
X231726Y189942D01*
X231924Y190044D01*
X232129Y190130D01*
X232141Y190157D01*
X232167Y190171D01*
X232234Y190383D01*
X232319Y190589D01*
Y209679D01*
X232241Y209869D01*
X232190Y210068D01*
X231821Y210561D01*
X231774Y210590D01*
X231751Y210640D01*
X231566Y210713D01*
X231394Y210815D01*
X231340Y210802D01*
X231289Y210822D01*
D02*
G37*
G36*
X55663Y208674D02*
X53395D01*
Y205953D01*
X52606D01*
X52177Y205867D01*
X51813Y205624D01*
X51813Y205624D01*
X51308Y205119D01*
X51118Y205081D01*
X50755Y204838D01*
X50003Y204086D01*
X49503Y204293D01*
Y205469D01*
X47825D01*
Y202700D01*
Y199932D01*
X49503D01*
Y201578D01*
X50203D01*
X50203Y201578D01*
X50632Y201664D01*
X50996Y201907D01*
X52060Y202971D01*
X52249Y203009D01*
X52613Y203252D01*
X52895Y203533D01*
X53395Y203531D01*
Y203531D01*
X55663D01*
Y206103D01*
Y208674D01*
D02*
G37*
G36*
X58931Y205603D02*
X56663D01*
Y203531D01*
X58931D01*
Y205603D01*
D02*
G37*
G36*
X173087Y196229D02*
X171016D01*
Y193960D01*
X173087D01*
Y196229D01*
D02*
G37*
G36*
X196722Y196379D02*
X191979D01*
Y193025D01*
X191190Y192237D01*
X185156D01*
X184921Y192472D01*
X184333Y192715D01*
X184001D01*
X182463Y194253D01*
X182099Y194497D01*
X181670Y194582D01*
X181670Y194582D01*
X179187D01*
Y196029D01*
X174443D01*
Y190892D01*
X179187D01*
Y192339D01*
X181205D01*
X182415Y191129D01*
Y190797D01*
X182659Y190209D01*
X183109Y189759D01*
X183697Y189515D01*
X184333D01*
X184921Y189759D01*
X185156Y189994D01*
X191655D01*
X191655Y189994D01*
X192084Y190079D01*
X192448Y190322D01*
X193368Y191242D01*
X196722D01*
Y196379D01*
D02*
G37*
G36*
X173087Y192960D02*
X171016D01*
Y190692D01*
X173087D01*
Y192960D01*
D02*
G37*
G36*
X209654Y183121D02*
X206500D01*
Y180557D01*
X209654D01*
Y183121D01*
D02*
G37*
G36*
X205500D02*
X202346D01*
Y180557D01*
X205500D01*
Y183121D01*
D02*
G37*
G36*
X200154Y183077D02*
X197000D01*
Y180513D01*
X200154D01*
Y183077D01*
D02*
G37*
G36*
X196000D02*
X192846D01*
Y180513D01*
X196000D01*
Y183077D01*
D02*
G37*
G36*
X226814Y187252D02*
X223454D01*
X220095D01*
Y184885D01*
X222384D01*
Y179275D01*
X222465Y178865D01*
X222697Y178518D01*
X223045Y178286D01*
X223454Y178204D01*
X223864Y178286D01*
X224212Y178518D01*
X224444Y178865D01*
X224525Y179275D01*
Y184885D01*
X226814D01*
Y187252D01*
D02*
G37*
G36*
X209654Y179557D02*
X206000D01*
X202346D01*
Y176993D01*
X204878D01*
Y175100D01*
X204964Y174671D01*
X205207Y174307D01*
X205571Y174064D01*
X206000Y173978D01*
X206429Y174064D01*
X206793Y174307D01*
X207036Y174671D01*
X207121Y175100D01*
Y176993D01*
X209654D01*
Y179557D01*
D02*
G37*
G36*
X200154Y179513D02*
X196500D01*
X192846D01*
Y176950D01*
X195378D01*
Y175100D01*
X195464Y174671D01*
X195707Y174307D01*
X196071Y174064D01*
X196500Y173978D01*
X196929Y174064D01*
X197293Y174307D01*
X197536Y174671D01*
X197622Y175100D01*
Y176950D01*
X200154D01*
Y179513D01*
D02*
G37*
G36*
X196994Y167047D02*
X194224D01*
Y164647D01*
X188908D01*
X188479Y164562D01*
X188115Y164319D01*
X187872Y163955D01*
X187787Y163526D01*
X187872Y163096D01*
X188115Y162733D01*
X188479Y162489D01*
X188908Y162404D01*
X194224D01*
Y159714D01*
X196994D01*
Y163380D01*
Y167047D01*
D02*
G37*
G36*
X43735Y157543D02*
X41466D01*
Y155472D01*
X43735D01*
Y157543D01*
D02*
G37*
G36*
Y154472D02*
X41466D01*
Y152400D01*
X43735D01*
Y154472D01*
D02*
G37*
G36*
X50322Y149669D02*
X45579D01*
Y148018D01*
X44477D01*
X44038Y148456D01*
X43450Y148700D01*
X42813D01*
X42225Y148456D01*
X41775Y148006D01*
X41532Y147418D01*
Y146782D01*
X41775Y146194D01*
X42225Y145744D01*
X42813Y145500D01*
X43450D01*
X44038Y145744D01*
X44477Y146182D01*
X45579D01*
Y144532D01*
X50322D01*
Y149669D01*
D02*
G37*
G36*
X57212Y156530D02*
X51287D01*
Y150606D01*
X53128D01*
Y149669D01*
X51878D01*
Y144532D01*
X56621D01*
Y149669D01*
X55371D01*
Y150606D01*
X57212D01*
Y156530D01*
D02*
G37*
G36*
X122012Y131905D02*
X121583Y131820D01*
X121219Y131577D01*
X121127Y131485D01*
X120884Y131122D01*
X120799Y130692D01*
X120799Y130692D01*
Y127965D01*
X119651D01*
Y125303D01*
X121829D01*
X124007D01*
Y127965D01*
X123042D01*
Y130345D01*
X123048Y130355D01*
X123134Y130784D01*
X123048Y131213D01*
X122805Y131577D01*
X122441Y131820D01*
X122012Y131905D01*
D02*
G37*
G36*
X31960Y132377D02*
X31531Y132292D01*
X31167Y132049D01*
X30924Y131685D01*
X30839Y131256D01*
X30924Y130827D01*
X30943Y130798D01*
Y127965D01*
X29887D01*
Y125303D01*
X32065D01*
X34243D01*
Y127965D01*
X33187D01*
Y131151D01*
X33101Y131580D01*
X32858Y131944D01*
X32858Y131944D01*
X32753Y132049D01*
X32390Y132292D01*
X31960Y132377D01*
D02*
G37*
G36*
X74620Y131627D02*
X74191Y131541D01*
X73827Y131298D01*
X73792Y131263D01*
X73549Y130899D01*
X73463Y130470D01*
X73463Y130470D01*
Y127965D01*
X72407D01*
Y125303D01*
X74585D01*
X76763D01*
Y127965D01*
X75706D01*
Y130328D01*
X75741Y130505D01*
X75656Y130934D01*
X75413Y131298D01*
X75049Y131541D01*
X74620Y131627D01*
D02*
G37*
G36*
X158037Y127572D02*
X155966D01*
Y125303D01*
X158037D01*
Y127572D01*
D02*
G37*
G36*
X154966D02*
X152894D01*
Y125303D01*
X154966D01*
Y127572D01*
D02*
G37*
G36*
X151538Y127372D02*
X146795D01*
Y125622D01*
X140086D01*
X139657Y125536D01*
X139293Y125293D01*
X139293Y125293D01*
X138707Y124707D01*
X138464Y124343D01*
X138378Y123914D01*
X138378Y123914D01*
Y122265D01*
X134398D01*
Y120622D01*
X133498D01*
X133069Y120536D01*
X132705Y120293D01*
X132705Y120293D01*
X130964Y118552D01*
X130464Y118727D01*
Y119285D01*
X124540D01*
Y115329D01*
X130464D01*
Y116185D01*
X131305D01*
X131305Y116185D01*
X131734Y116271D01*
X132098Y116514D01*
X133898Y118314D01*
X134398Y118223D01*
Y116735D01*
X143078D01*
Y122265D01*
X140622D01*
Y123378D01*
X146795D01*
Y122235D01*
X151538D01*
Y127372D01*
D02*
G37*
G36*
X119082Y127765D02*
X115126D01*
Y121841D01*
X119082D01*
Y127765D01*
D02*
G37*
G36*
X114358D02*
X110402D01*
Y121841D01*
X114358D01*
Y127765D01*
D02*
G37*
G36*
X109633D02*
X105677D01*
Y121841D01*
X109633D01*
Y127765D01*
D02*
G37*
G36*
X104909D02*
X100953D01*
Y121841D01*
X104909D01*
Y127765D01*
D02*
G37*
G36*
X98525Y133100D02*
X97888D01*
X97300Y132856D01*
X96850Y132406D01*
X96607Y131818D01*
Y131182D01*
X96850Y130594D01*
X97085Y130359D01*
Y127765D01*
X96229D01*
Y121841D01*
X100185D01*
Y127765D01*
X99328D01*
Y130359D01*
X99563Y130594D01*
X99807Y131182D01*
Y131818D01*
X99563Y132406D01*
X99113Y132856D01*
X98525Y133100D01*
D02*
G37*
G36*
X95460Y127765D02*
X91504D01*
Y121841D01*
X95460D01*
Y127765D01*
D02*
G37*
G36*
X90736D02*
X86780D01*
Y121841D01*
X90736D01*
Y127765D01*
D02*
G37*
G36*
X86011D02*
X82055D01*
Y121841D01*
X86011D01*
Y127765D01*
D02*
G37*
G36*
X81287D02*
X77331D01*
Y121841D01*
X81287D01*
Y127765D01*
D02*
G37*
G36*
X62389D02*
X58434D01*
Y121841D01*
X62389D01*
Y127765D01*
D02*
G37*
G36*
X57665D02*
X53709D01*
Y121841D01*
X57665D01*
Y127765D01*
D02*
G37*
G36*
X52940D02*
X48985D01*
Y121841D01*
X52940D01*
Y127765D01*
D02*
G37*
G36*
X48216D02*
X44260D01*
Y121841D01*
X48216D01*
Y127765D01*
D02*
G37*
G36*
X43492D02*
X39536D01*
Y121841D01*
X43492D01*
Y127765D01*
D02*
G37*
G36*
X38767D02*
X34811D01*
Y121841D01*
X38767D01*
Y127765D01*
D02*
G37*
G36*
X124007Y124303D02*
X122329D01*
Y121641D01*
X124007D01*
Y124303D01*
D02*
G37*
G36*
X121329D02*
X119651D01*
Y121641D01*
X121329D01*
Y124303D01*
D02*
G37*
G36*
X76763D02*
X75085D01*
Y121641D01*
X76763D01*
Y124303D01*
D02*
G37*
G36*
X74085D02*
X72407D01*
Y121641D01*
X74085D01*
Y124303D01*
D02*
G37*
G36*
X34243D02*
X32565D01*
Y121641D01*
X34243D01*
Y124303D01*
D02*
G37*
G36*
X31565D02*
X29887D01*
Y121641D01*
X31565D01*
Y124303D01*
D02*
G37*
G36*
X130464Y124009D02*
X124540D01*
Y120054D01*
X130464D01*
Y124009D01*
D02*
G37*
G36*
X158037Y124303D02*
X155466D01*
X152894D01*
Y122035D01*
X154344D01*
Y120268D01*
X152894D01*
Y118000D01*
X155466D01*
X158037D01*
Y120030D01*
X159472D01*
X159571Y119964D01*
X160000Y119878D01*
X160429Y119964D01*
X160793Y120207D01*
X161036Y120571D01*
X161122Y121000D01*
X161036Y121429D01*
X160793Y121793D01*
X160642Y121945D01*
X160278Y122188D01*
X159848Y122273D01*
X159848Y122273D01*
X158037D01*
Y124303D01*
D02*
G37*
G36*
Y117000D02*
X155966D01*
Y114732D01*
X158037D01*
Y117000D01*
D02*
G37*
G36*
X154966D02*
X152894D01*
Y114732D01*
X154966D01*
Y117000D01*
D02*
G37*
G36*
X130464Y109836D02*
X124540D01*
Y105880D01*
X130464D01*
Y109836D01*
D02*
G37*
G36*
X61577Y107275D02*
X57341D01*
Y103038D01*
X61577D01*
Y107275D01*
D02*
G37*
G36*
X47608D02*
X43371D01*
Y103038D01*
X47608D01*
Y107275D01*
D02*
G37*
G36*
X112337Y106464D02*
X108100D01*
Y102227D01*
X112337D01*
Y106464D01*
D02*
G37*
G36*
X101097D02*
X96860D01*
Y102227D01*
X101097D01*
Y106464D01*
D02*
G37*
G36*
X107100D02*
X102863D01*
Y102227D01*
X107100D01*
Y106464D01*
D02*
G37*
G36*
X95860D02*
X91623D01*
Y102227D01*
X95860D01*
Y106464D01*
D02*
G37*
G36*
X130464Y105112D02*
X124540D01*
Y101156D01*
X130464D01*
Y105112D01*
D02*
G37*
G36*
X112337Y101227D02*
X108100D01*
Y96990D01*
X112337D01*
Y101227D01*
D02*
G37*
G36*
X107100D02*
X102863D01*
Y96990D01*
X107100D01*
Y101227D01*
D02*
G37*
G36*
X101097D02*
X96860D01*
Y96990D01*
X101097D01*
Y101227D01*
D02*
G37*
G36*
X95860D02*
X91623D01*
Y96990D01*
X95860D01*
Y101227D01*
D02*
G37*
G36*
X203615Y98225D02*
X199083D01*
Y96055D01*
X203615D01*
Y98225D01*
D02*
G37*
G36*
Y95055D02*
X199083D01*
Y92885D01*
X203615D01*
Y95055D01*
D02*
G37*
G36*
X112337Y94952D02*
X108100D01*
Y90715D01*
X112337D01*
Y94952D01*
D02*
G37*
G36*
X101097D02*
X96860D01*
Y90715D01*
X101097D01*
Y94952D01*
D02*
G37*
G36*
X107100D02*
X102863D01*
Y90715D01*
X107100D01*
Y94952D01*
D02*
G37*
G36*
X95860D02*
X91623D01*
Y90715D01*
X95860D01*
Y94952D01*
D02*
G37*
G36*
X61577Y93447D02*
X57341D01*
Y89210D01*
X61577D01*
Y93447D01*
D02*
G37*
G36*
X56340Y107275D02*
X48608D01*
Y102538D01*
X48108D01*
Y102038D01*
X43371D01*
Y97801D01*
Y94447D01*
X48108D01*
Y93947D01*
X48608D01*
Y89210D01*
X56340D01*
Y93947D01*
X56840D01*
Y94447D01*
X61577D01*
Y97801D01*
Y102038D01*
X56840D01*
Y102538D01*
X56340D01*
Y107275D01*
D02*
G37*
G36*
X47608Y93447D02*
X43371D01*
Y89210D01*
X47608D01*
Y93447D01*
D02*
G37*
G36*
X112337Y89715D02*
X108100D01*
Y85478D01*
X112337D01*
Y89715D01*
D02*
G37*
G36*
X107100D02*
X102863D01*
Y85478D01*
X107100D01*
Y89715D01*
D02*
G37*
G36*
X101097D02*
X96860D01*
Y85478D01*
X101097D01*
Y89715D01*
D02*
G37*
G36*
X95860D02*
X91623D01*
Y85478D01*
X95860D01*
Y89715D01*
D02*
G37*
G36*
X34243Y75209D02*
X32565D01*
Y72547D01*
X34243D01*
Y75209D01*
D02*
G37*
G36*
X109833D02*
X108156D01*
Y72547D01*
X109833D01*
Y75209D01*
D02*
G37*
G36*
X76763D02*
X75085D01*
Y72547D01*
X76763D01*
Y75209D01*
D02*
G37*
G36*
X31565D02*
X29887D01*
Y72547D01*
X31565D01*
Y75209D01*
D02*
G37*
G36*
X107156D02*
X105477D01*
Y72547D01*
X107156D01*
Y75209D01*
D02*
G37*
G36*
X74085D02*
X72407D01*
Y72547D01*
X74085D01*
Y75209D01*
D02*
G37*
G36*
X119082Y75010D02*
X115126D01*
Y69085D01*
X119082D01*
Y75010D01*
D02*
G37*
G36*
X114358D02*
X110402D01*
Y69085D01*
X114358D01*
Y75010D01*
D02*
G37*
G36*
X95460D02*
X91504D01*
Y69085D01*
X95460D01*
Y75010D01*
D02*
G37*
G36*
X90736D02*
X86780D01*
Y69085D01*
X90736D01*
Y75010D01*
D02*
G37*
G36*
X52940D02*
X48985D01*
Y69085D01*
X52940D01*
Y75010D01*
D02*
G37*
G36*
X48216D02*
X44260D01*
Y69085D01*
X48216D01*
Y75010D01*
D02*
G37*
G36*
X43492D02*
X39536D01*
Y69085D01*
X43492D01*
Y75010D01*
D02*
G37*
G36*
X38767D02*
X34811D01*
Y69085D01*
X38767D01*
Y75010D01*
D02*
G37*
G36*
X109833Y71547D02*
X108156D01*
Y68885D01*
X109833D01*
Y71547D01*
D02*
G37*
G36*
X107156D02*
X105477D01*
Y68885D01*
X107156D01*
Y71547D01*
D02*
G37*
G36*
X76763D02*
X75085D01*
Y68885D01*
X76763D01*
Y71547D01*
D02*
G37*
G36*
X74085D02*
X72407D01*
Y68885D01*
X74085D01*
Y71547D01*
D02*
G37*
G36*
X34243D02*
X32565D01*
Y68885D01*
X34243D01*
Y71547D01*
D02*
G37*
G36*
X31565D02*
X29887D01*
Y68885D01*
X31565D01*
Y71547D01*
D02*
G37*
G36*
X104909Y75010D02*
X100953D01*
Y69085D01*
X101810D01*
Y67641D01*
X101575Y67406D01*
X101404Y66994D01*
X100869Y66920D01*
X100812Y67018D01*
X100235Y67595D01*
X99528Y68003D01*
X99453Y68024D01*
Y69085D01*
X100185D01*
Y75010D01*
X96229D01*
Y69085D01*
X97210D01*
Y68024D01*
X97135Y68003D01*
X96428Y67595D01*
X95851Y67018D01*
X95443Y66311D01*
X95232Y65523D01*
Y64707D01*
X95443Y63918D01*
X95851Y63211D01*
X96428Y62634D01*
X97135Y62226D01*
X97210Y62206D01*
Y60716D01*
X97100Y60606D01*
X96857Y60018D01*
Y59382D01*
X97100Y58794D01*
X97550Y58344D01*
X98138Y58100D01*
X98775D01*
X99363Y58344D01*
X99813Y58794D01*
X100057Y59382D01*
Y60018D01*
X99813Y60606D01*
X99453Y60966D01*
Y62206D01*
X99528Y62226D01*
X100235Y62634D01*
X100812Y63211D01*
X101220Y63918D01*
X101432Y64707D01*
Y65030D01*
X101932Y65237D01*
X102025Y65144D01*
X102613Y64900D01*
X103249D01*
X103837Y65144D01*
X104288Y65594D01*
X104531Y66182D01*
Y66818D01*
X104288Y67406D01*
X104053Y67641D01*
Y69085D01*
X104909D01*
Y75010D01*
D02*
G37*
G36*
X86011D02*
X82055D01*
Y69085D01*
X82912D01*
Y66247D01*
X82912Y66247D01*
X82997Y65817D01*
X83240Y65454D01*
X83900Y64794D01*
Y64462D01*
X84144Y63874D01*
X84594Y63424D01*
X85182Y63180D01*
X85818D01*
X86406Y63424D01*
X86856Y63874D01*
X87100Y64462D01*
Y65098D01*
X86856Y65687D01*
X86406Y66136D01*
X85818Y66380D01*
X85486D01*
X85155Y66711D01*
Y69085D01*
X86011D01*
Y75010D01*
D02*
G37*
G36*
X81287D02*
X77331D01*
Y69085D01*
X78188D01*
Y65319D01*
X77983Y64824D01*
Y64188D01*
X78226Y63600D01*
X78277Y63549D01*
X78018Y63101D01*
X77730Y63178D01*
Y60396D01*
X80512D01*
X80305Y61170D01*
X79871Y61922D01*
X79386Y62406D01*
X79570Y62906D01*
X79901D01*
X80489Y63150D01*
X80939Y63600D01*
X81183Y64188D01*
Y64824D01*
X80939Y65413D01*
X80489Y65863D01*
X80431Y65887D01*
Y69085D01*
X81287D01*
Y75010D01*
D02*
G37*
G36*
X52825Y65740D02*
X50261D01*
Y62586D01*
X52825D01*
Y65740D01*
D02*
G37*
G36*
Y61586D02*
X50261D01*
Y58432D01*
X52825D01*
Y61586D01*
D02*
G37*
G36*
X150145Y64781D02*
X141465D01*
Y58266D01*
X150145D01*
Y64781D01*
D02*
G37*
G36*
X126641D02*
X117961D01*
Y58266D01*
X126641D01*
Y64781D01*
D02*
G37*
G36*
X159085Y60453D02*
X156422D01*
Y58185D01*
X159085D01*
Y60453D01*
D02*
G37*
G36*
X80512Y59396D02*
X77730D01*
Y56613D01*
X78504Y56821D01*
X79256Y57255D01*
X79871Y57870D01*
X80305Y58622D01*
X80512Y59396D01*
D02*
G37*
G36*
X159085Y57185D02*
X156422D01*
Y54916D01*
X159085D01*
Y57185D01*
D02*
G37*
G36*
X53365Y55452D02*
X50900D01*
Y52987D01*
X53365D01*
Y55452D01*
D02*
G37*
G36*
X49900D02*
X47435D01*
Y52987D01*
X49900D01*
Y55452D01*
D02*
G37*
G36*
X97348Y55245D02*
X94882D01*
Y52780D01*
X97348D01*
Y55245D01*
D02*
G37*
G36*
X93882D02*
X91417D01*
Y52780D01*
X93882D01*
Y55245D01*
D02*
G37*
G36*
X88648D02*
X86182D01*
Y52780D01*
X88648D01*
Y55245D01*
D02*
G37*
G36*
X85182D02*
X82717D01*
Y52780D01*
X85182D01*
Y55245D01*
D02*
G37*
G36*
X111756Y50142D02*
X111745Y50137D01*
X111734Y50141D01*
X98454Y49229D01*
X98348Y49176D01*
X98230Y49172D01*
X98134Y49069D01*
X98009Y49007D01*
X97971Y48895D01*
X97891Y48808D01*
X97715Y48340D01*
X97719Y48222D01*
X97674Y48112D01*
X97728Y47983D01*
X97732Y47843D01*
X97791Y47789D01*
Y46110D01*
X97148D01*
Y47958D01*
X91617D01*
Y46110D01*
X88448D01*
Y47958D01*
X82917D01*
Y42428D01*
X84765D01*
Y39886D01*
X84789Y39765D01*
X84459Y39265D01*
X84141D01*
X83733Y39184D01*
X83387Y38953D01*
X83156Y38607D01*
X83074Y38199D01*
Y37961D01*
X84879D01*
Y37461D01*
X85379D01*
Y35656D01*
X85617D01*
X86026Y35737D01*
X86371Y35968D01*
X86974Y35969D01*
X87039Y35925D01*
X87369Y35860D01*
X88846D01*
X89176Y35925D01*
X89187Y35933D01*
X89765Y35968D01*
X90111Y35737D01*
X90519Y35656D01*
X90757D01*
Y37461D01*
Y39265D01*
X90519D01*
X90111Y39184D01*
X89765Y38953D01*
X89187Y38988D01*
X89176Y38996D01*
X88846Y39061D01*
X87804D01*
X86600Y40266D01*
Y42428D01*
X88448D01*
Y44275D01*
X91617D01*
Y42428D01*
X93465D01*
Y39021D01*
X93338Y38996D01*
X93327Y38988D01*
X92749Y38953D01*
X92403Y39184D01*
X91995Y39265D01*
X91757D01*
Y37461D01*
Y35656D01*
X91995D01*
X92403Y35737D01*
X92749Y35968D01*
X93327Y35933D01*
X93338Y35925D01*
X93669Y35860D01*
X95145D01*
X95475Y35925D01*
X95755Y36112D01*
X95942Y36392D01*
X96008Y36722D01*
Y38199D01*
X95942Y38529D01*
X95755Y38809D01*
X95475Y38996D01*
X95300Y39031D01*
Y42428D01*
X97148D01*
Y44275D01*
X97791D01*
Y33204D01*
X97981Y32745D01*
X98440Y32555D01*
X105971D01*
Y30078D01*
X110320D01*
Y32555D01*
X111446D01*
X111709Y32446D01*
X112168Y32636D01*
X112603Y33071D01*
X112793Y33531D01*
Y49152D01*
X112789Y49163D01*
X112793Y49174D01*
X112694Y49391D01*
X112603Y49611D01*
X112592Y49615D01*
X112587Y49626D01*
X112222Y49968D01*
X112210Y49972D01*
X112205Y49983D01*
X111979Y50058D01*
X111756Y50142D01*
D02*
G37*
G36*
X31356Y60606D02*
X30720D01*
X30131Y60363D01*
X29681Y59913D01*
X29438Y59325D01*
Y58688D01*
X29681Y58100D01*
X29916Y57865D01*
Y54651D01*
X28469D01*
Y49908D01*
X33606D01*
Y54651D01*
X32159D01*
Y57865D01*
X32394Y58100D01*
X32638Y58688D01*
Y59325D01*
X32394Y59913D01*
X31944Y60363D01*
X31356Y60606D01*
D02*
G37*
G36*
X53365Y51987D02*
X50900D01*
Y49521D01*
X53365D01*
Y51987D01*
D02*
G37*
G36*
X49900D02*
X47435D01*
Y49521D01*
X49900D01*
Y51987D01*
D02*
G37*
G36*
X97348Y51780D02*
X94882D01*
Y49314D01*
X97348D01*
Y51780D01*
D02*
G37*
G36*
X93882D02*
X91417D01*
Y49314D01*
X93882D01*
Y51780D01*
D02*
G37*
G36*
X88648D02*
X86182D01*
Y49314D01*
X88648D01*
Y51780D01*
D02*
G37*
G36*
X85182D02*
X82717D01*
Y49314D01*
X85182D01*
Y51780D01*
D02*
G37*
G36*
X10342Y47020D02*
X9658D01*
X8996Y46843D01*
X8404Y46501D01*
X7920Y46017D01*
X7577Y45424D01*
X7400Y44763D01*
Y44078D01*
X7577Y43417D01*
X7920Y42824D01*
X8404Y42340D01*
X8996Y41998D01*
X9658Y41820D01*
X10342D01*
X11004Y41998D01*
X11596Y42340D01*
X12081Y42824D01*
X12423Y43417D01*
X12600Y44078D01*
Y44763D01*
X12423Y45424D01*
X12081Y46017D01*
X11596Y46501D01*
X11004Y46843D01*
X10342Y47020D01*
D02*
G37*
G36*
X84379Y36961D02*
X83074D01*
Y36722D01*
X83156Y36314D01*
X83387Y35968D01*
X83733Y35737D01*
X84141Y35656D01*
X84379D01*
Y36961D01*
D02*
G37*
G36*
X219246Y38943D02*
X218155D01*
X217101Y38661D01*
X216156Y38116D01*
X215385Y37344D01*
X214839Y36399D01*
X214557Y35346D01*
Y34255D01*
X214839Y33201D01*
X215385Y32256D01*
X216156Y31484D01*
X217101Y30939D01*
X218155Y30657D01*
X219246D01*
X220299Y30939D01*
X221244Y31484D01*
X222016Y32256D01*
X222561Y33201D01*
X222843Y34255D01*
Y35346D01*
X222561Y36399D01*
X222016Y37344D01*
X221244Y38116D01*
X220299Y38661D01*
X219246Y38943D01*
D02*
G37*
G36*
X33606Y48352D02*
X28469D01*
Y43609D01*
X29916D01*
Y41044D01*
X29841Y41024D01*
X29134Y40616D01*
X28557Y40039D01*
X28149Y39332D01*
X27937Y38543D01*
Y37727D01*
X28149Y36939D01*
X28557Y36232D01*
X29134Y35655D01*
X29841Y35247D01*
X29916Y35227D01*
Y33312D01*
X29681Y33077D01*
X29437Y32489D01*
Y31853D01*
X29681Y31265D01*
X30131Y30815D01*
X30719Y30571D01*
X31356D01*
X31944Y30815D01*
X32394Y31265D01*
X32637Y31853D01*
Y32489D01*
X32394Y33077D01*
X32159Y33312D01*
Y35227D01*
X32234Y35247D01*
X32941Y35655D01*
X33518Y36232D01*
X33926Y36939D01*
X34137Y37727D01*
Y38543D01*
X33926Y39332D01*
X33518Y40039D01*
X32941Y40616D01*
X32234Y41024D01*
X32159Y41044D01*
Y43609D01*
X33606D01*
Y48352D01*
D02*
G37*
G36*
X95145Y29816D02*
X94907D01*
Y28512D01*
X96211D01*
Y28750D01*
X96130Y29158D01*
X95899Y29504D01*
X95553Y29735D01*
X95145Y29816D01*
D02*
G37*
G36*
X219246Y28943D02*
X218155D01*
X217101Y28661D01*
X216156Y28115D01*
X215385Y27344D01*
X214839Y26399D01*
X214557Y25346D01*
Y24254D01*
X214839Y23201D01*
X215385Y22256D01*
X216156Y21485D01*
X217101Y20939D01*
X218155Y20657D01*
X219246D01*
X220299Y20939D01*
X221244Y21485D01*
X222016Y22256D01*
X222561Y23201D01*
X222843Y24254D01*
Y25346D01*
X222561Y26399D01*
X222016Y27344D01*
X221244Y28115D01*
X220299Y28661D01*
X219246Y28943D01*
D02*
G37*
G36*
X158396Y22855D02*
X155044D01*
Y19897D01*
X158396D01*
Y22855D01*
D02*
G37*
G36*
X65413Y26372D02*
X64776D01*
X64188Y26129D01*
X63738Y25679D01*
X63494Y25091D01*
Y24454D01*
X63738Y23866D01*
X64014Y23590D01*
Y21867D01*
X62567D01*
Y17124D01*
X67704D01*
Y21867D01*
X66257D01*
Y23673D01*
X66451Y23866D01*
X66694Y24454D01*
Y25091D01*
X66451Y25679D01*
X66001Y26129D01*
X65413Y26372D01*
D02*
G37*
G36*
X158396Y18897D02*
X155044D01*
Y15940D01*
X158396D01*
Y18897D01*
D02*
G37*
G36*
X210342Y11400D02*
X209658D01*
X208996Y11223D01*
X208404Y10881D01*
X207920Y10396D01*
X207577Y9804D01*
X207400Y9142D01*
Y8458D01*
X207577Y7796D01*
X207920Y7204D01*
X208404Y6719D01*
X208996Y6377D01*
X209658Y6200D01*
X210342D01*
X211004Y6377D01*
X211596Y6719D01*
X212081Y7204D01*
X212423Y7796D01*
X212600Y8458D01*
Y9142D01*
X212423Y9804D01*
X212081Y10396D01*
X211596Y10881D01*
X211004Y11223D01*
X210342Y11400D01*
D02*
G37*
%LPD*%
G36*
X231670Y209679D02*
Y190589D01*
X227034Y190185D01*
X226814Y190667D01*
X226814Y190836D01*
Y192960D01*
X223454D01*
X220095D01*
Y190594D01*
X220295Y190176D01*
Y189597D01*
X215444Y189174D01*
X214509Y190109D01*
Y209856D01*
X231301Y210173D01*
X231670Y209679D01*
D02*
G37*
%LPC*%
G36*
X221607Y208156D02*
X219240D01*
Y205100D01*
X221607D01*
Y208156D01*
D02*
G37*
G36*
X218240D02*
X215873D01*
Y205100D01*
X218240D01*
Y208156D01*
D02*
G37*
G36*
Y204100D02*
X215873D01*
Y201044D01*
X218240D01*
Y204100D01*
D02*
G37*
G36*
X223955Y202313D02*
Y199530D01*
X226737D01*
X226530Y200304D01*
X226095Y201056D01*
X225481Y201671D01*
X224728Y202105D01*
X223955Y202313D01*
D02*
G37*
G36*
X221607Y204100D02*
X219240D01*
Y201044D01*
X220307D01*
X220557Y200611D01*
X220379Y200304D01*
X220172Y199530D01*
X222955D01*
Y202313D01*
X222181Y202105D01*
X222040Y202024D01*
X221607Y202274D01*
Y204100D01*
D02*
G37*
G36*
X226737Y198530D02*
X223454D01*
X220172D01*
X220379Y197756D01*
X220814Y197004D01*
X220990Y196827D01*
X220783Y196327D01*
X220095D01*
Y193960D01*
X223454D01*
X226814D01*
Y196327D01*
X226126D01*
X225919Y196827D01*
X226095Y197004D01*
X226530Y197756D01*
X226737Y198530D01*
D02*
G37*
%LPD*%
G36*
X112144Y49152D02*
Y33531D01*
X111709Y33096D01*
X111600Y33204D01*
X110320D01*
Y34428D01*
X109847D01*
X109742Y34538D01*
X109559Y34928D01*
X109745Y35377D01*
Y36014D01*
X109502Y36602D01*
X109052Y37052D01*
X108464Y37295D01*
X107827D01*
X107239Y37052D01*
X106789Y36602D01*
X106545Y36014D01*
Y35377D01*
X106731Y34928D01*
X106549Y34538D01*
X106443Y34428D01*
X105971D01*
Y33204D01*
X98440D01*
Y44275D01*
X99614D01*
Y42714D01*
X104751D01*
Y47457D01*
X99614D01*
Y46110D01*
X98440D01*
Y47995D01*
X98323Y48112D01*
X98499Y48581D01*
X111778Y49493D01*
X112144Y49152D01*
D02*
G37*
%LPC*%
G36*
X104951Y41358D02*
X102682D01*
Y39287D01*
X104951D01*
Y41358D01*
D02*
G37*
G36*
X101682D02*
X99414D01*
Y39287D01*
X101682D01*
Y41358D01*
D02*
G37*
G36*
X104951Y38287D02*
X102682D01*
Y36215D01*
X104951D01*
Y38287D01*
D02*
G37*
G36*
X101682D02*
X99414D01*
Y36215D01*
X101682D01*
Y38287D01*
D02*
G37*
G36*
X50467Y228500D02*
X47805D01*
Y224460D01*
X50467D01*
Y228500D01*
D02*
G37*
G36*
X50664Y221926D02*
X49576D01*
Y218969D01*
X50664D01*
Y221926D01*
D02*
G37*
G36*
X167064Y217292D02*
X164835D01*
Y210299D01*
X167064D01*
Y217292D01*
D02*
G37*
G36*
X163835D02*
X161606D01*
Y210299D01*
X163835D01*
Y217292D01*
D02*
G37*
G36*
X120909Y205915D02*
X117754D01*
Y203352D01*
X120909D01*
Y205915D01*
D02*
G37*
G36*
X112654D02*
X109500D01*
Y203352D01*
X112654D01*
Y205915D01*
D02*
G37*
G36*
X116754D02*
X113600D01*
Y203352D01*
X116754D01*
Y205915D01*
D02*
G37*
G36*
X108500D02*
X105346D01*
Y203352D01*
X108500D01*
Y205915D01*
D02*
G37*
G36*
X104154Y205882D02*
X101000D01*
Y203319D01*
X104154D01*
Y205882D01*
D02*
G37*
G36*
X100000D02*
X96846D01*
Y203319D01*
X100000D01*
Y205882D01*
D02*
G37*
G36*
X127232Y205087D02*
X124963D01*
Y203015D01*
X127232D01*
Y205087D01*
D02*
G37*
G36*
X123963D02*
X121695D01*
Y203015D01*
X123963D01*
Y205087D01*
D02*
G37*
G36*
X167064Y209299D02*
X164835D01*
Y202306D01*
X167064D01*
Y209299D01*
D02*
G37*
G36*
X127232Y202015D02*
X124963D01*
Y199944D01*
X127232D01*
Y202015D01*
D02*
G37*
G36*
X123963D02*
X121695D01*
Y199944D01*
X123963D01*
Y202015D01*
D02*
G37*
G36*
X120909Y202352D02*
X117754D01*
Y199788D01*
X120909D01*
Y202352D01*
D02*
G37*
G36*
X116754D02*
X113600D01*
Y199788D01*
X116754D01*
Y202352D01*
D02*
G37*
G36*
X112654D02*
X109500D01*
Y199788D01*
X112654D01*
Y202352D01*
D02*
G37*
G36*
X108500D02*
X105346D01*
Y199788D01*
X108500D01*
Y202352D01*
D02*
G37*
G36*
X104154Y202319D02*
X101000D01*
Y199755D01*
X104154D01*
Y202319D01*
D02*
G37*
G36*
X100000D02*
X96846D01*
Y199755D01*
X100000D01*
Y202319D01*
D02*
G37*
G36*
X130666Y198665D02*
X130409Y198614D01*
X129818D01*
X129230Y198371D01*
X128995Y198136D01*
X127230D01*
X127230Y198136D01*
X127032Y198298D01*
Y198588D01*
X121895D01*
Y196887D01*
X120709D01*
Y198629D01*
X113800D01*
Y196887D01*
X112454D01*
Y198629D01*
X105546D01*
Y196854D01*
X103954D01*
Y198596D01*
X97046D01*
Y192868D01*
X99189D01*
Y189156D01*
X98954Y188921D01*
X98710Y188333D01*
Y187696D01*
X98954Y187108D01*
X99404Y186658D01*
X99992Y186415D01*
X100629D01*
X101217Y186658D01*
X101667Y187108D01*
X101910Y187696D01*
Y188333D01*
X101667Y188921D01*
X101432Y189156D01*
Y192868D01*
X103954D01*
Y194611D01*
X105546D01*
Y192901D01*
X112454D01*
Y194643D01*
X113800D01*
Y192901D01*
X120709D01*
Y194643D01*
X121895D01*
Y193845D01*
X127032D01*
Y195294D01*
X127225Y195423D01*
X127694Y195893D01*
X128995D01*
X129230Y195658D01*
X129818Y195414D01*
X130454D01*
X131043Y195658D01*
X131493Y196108D01*
X131736Y196696D01*
Y197287D01*
X131787Y197544D01*
X131702Y197973D01*
X131459Y198337D01*
X131095Y198580D01*
X130666Y198665D01*
D02*
G37*
G36*
X146528Y186648D02*
X136353D01*
X136235Y186599D01*
X136107Y186599D01*
X135962Y186540D01*
X135871Y186450D01*
X135753Y186403D01*
X135701Y186282D01*
X135608Y186190D01*
X135608Y186063D01*
X135558Y185945D01*
X135432Y173834D01*
X135433Y173832D01*
X135432Y173831D01*
X135526Y173603D01*
X135574Y173483D01*
X135136Y173302D01*
X134686Y172852D01*
X134442Y172264D01*
Y171627D01*
X134686Y171039D01*
X134921Y170805D01*
Y169691D01*
X135006Y169262D01*
X135249Y168898D01*
X135613Y168655D01*
X136042Y168570D01*
X136373Y168126D01*
Y167065D01*
X136411Y166874D01*
X136006Y166468D01*
X135815Y166506D01*
X133571D01*
X133122Y166417D01*
X133101Y166403D01*
X131701D01*
X131493Y166906D01*
X131043Y167356D01*
X130454Y167600D01*
X129818D01*
X129230Y167356D01*
X128780Y166906D01*
X128536Y166318D01*
Y165682D01*
X128780Y165094D01*
X128939Y164934D01*
X128732Y164434D01*
X128050D01*
X127765Y164720D01*
X127176Y164964D01*
X126540D01*
X125952Y164720D01*
X125502Y164270D01*
X125258Y163682D01*
Y163046D01*
X125502Y162458D01*
X125952Y162007D01*
X126014Y161982D01*
X125915Y161482D01*
X123112D01*
Y163150D01*
X118368D01*
Y158013D01*
X123112D01*
Y159341D01*
X127695D01*
X128105Y159422D01*
X128452Y159654D01*
X129123Y160325D01*
X132185D01*
X132198Y160313D01*
X132400Y159825D01*
X131977Y159402D01*
X131647D01*
X131572Y159478D01*
X130984Y159721D01*
X130347D01*
X129759Y159478D01*
X129309Y159028D01*
X129066Y158439D01*
Y157803D01*
X129309Y157215D01*
X129759Y156765D01*
X130347Y156521D01*
X130984D01*
X131572Y156765D01*
X132022Y157215D01*
X132041Y157261D01*
X132421D01*
X132831Y157343D01*
X133178Y157575D01*
X133856Y158253D01*
X135815D01*
X136006Y158291D01*
X136411Y157885D01*
X136373Y157694D01*
Y156077D01*
X135280Y154983D01*
X135071Y154942D01*
X134707Y154699D01*
X134464Y154335D01*
X134378Y153905D01*
Y152568D01*
X132695D01*
Y147432D01*
X137439D01*
Y152568D01*
X136622D01*
Y153729D01*
X137232Y154339D01*
X137547Y154277D01*
X137945Y154356D01*
X138040Y154337D01*
X138445Y154065D01*
Y152523D01*
X138394Y152267D01*
X138480Y151838D01*
X138723Y151474D01*
X139087Y151231D01*
X139516Y151145D01*
X139884D01*
Y150831D01*
X140128Y150243D01*
X140578Y149793D01*
X141166Y149550D01*
X141803D01*
X142391Y149793D01*
X142841Y150243D01*
X143084Y150831D01*
Y151468D01*
X143038Y151579D01*
X143085Y151649D01*
X143166Y152059D01*
X143166Y152059D01*
Y152583D01*
X143666Y152890D01*
X143739Y152853D01*
Y149278D01*
X148876D01*
Y154021D01*
X146811D01*
Y154335D01*
X146726Y154765D01*
X146483Y155129D01*
X146119Y155372D01*
X145690Y155457D01*
X145261Y155372D01*
X145099Y155264D01*
X144755Y155400D01*
X144626Y155485D01*
Y157694D01*
X144589Y157885D01*
X144994Y158291D01*
X145185Y158253D01*
X147429D01*
X147878Y158342D01*
X147899Y158356D01*
X149748D01*
Y155257D01*
X154885D01*
Y156507D01*
X157378D01*
Y146141D01*
X157144Y145906D01*
X156900Y145318D01*
Y144682D01*
X157144Y144094D01*
X157594Y143644D01*
X158182Y143400D01*
X158818D01*
X159406Y143644D01*
X159856Y144094D01*
X160100Y144682D01*
Y145318D01*
X159856Y145906D01*
X159622Y146141D01*
Y155900D01*
X160122Y156107D01*
X162749Y153480D01*
X162710Y153412D01*
X162499Y152624D01*
Y151807D01*
X162710Y151019D01*
X163118Y150312D01*
X163695Y149735D01*
X164402Y149327D01*
X165191Y149116D01*
X166007D01*
X166795Y149327D01*
X167502Y149735D01*
X168079Y150312D01*
X168487Y151019D01*
X168699Y151807D01*
Y152624D01*
X168487Y153412D01*
X168079Y154119D01*
X167502Y154696D01*
X166795Y155104D01*
X166007Y155316D01*
X165191D01*
X164402Y155104D01*
X164335Y155066D01*
X160979Y158421D01*
X160615Y158665D01*
X160186Y158750D01*
X160186Y158750D01*
X154885D01*
Y160000D01*
X154811D01*
X154604Y160500D01*
X154654Y160550D01*
X154898Y161139D01*
Y161775D01*
X154654Y162363D01*
X154204Y162813D01*
X153616Y163057D01*
X152980D01*
X152838Y162998D01*
X152338Y163332D01*
Y163364D01*
X152257Y163774D01*
X152025Y164121D01*
X151862Y164229D01*
X151685Y164762D01*
X151687Y164861D01*
X151767Y164978D01*
X154688D01*
Y170115D01*
X149944D01*
Y166761D01*
X149586Y166403D01*
X147899D01*
X147878Y166417D01*
X147429Y166506D01*
X145185D01*
X144994Y166468D01*
X144589Y166874D01*
X144626Y167065D01*
Y169309D01*
X144537Y169758D01*
X144472Y169855D01*
Y170502D01*
X147949Y173978D01*
X154432D01*
Y171346D01*
X159176D01*
Y176483D01*
X154813D01*
X154605Y176983D01*
X158983Y181360D01*
X161191D01*
X161211Y181285D01*
X161619Y180578D01*
X162197Y180001D01*
X162903Y179592D01*
X163692Y179381D01*
X164508D01*
X165297Y179592D01*
X166003Y180001D01*
X166581Y180578D01*
X166989Y181285D01*
X167200Y182073D01*
Y182889D01*
X166989Y183678D01*
X166581Y184385D01*
X166003Y184962D01*
X165297Y185370D01*
X164508Y185581D01*
X163692D01*
X162903Y185370D01*
X162197Y184962D01*
X161619Y184385D01*
X161211Y183678D01*
X161191Y183603D01*
X158518D01*
X158518Y183603D01*
X158089Y183517D01*
X157725Y183274D01*
X157725Y183274D01*
X151857Y177407D01*
X151614Y177043D01*
X151529Y176614D01*
X151235Y176222D01*
X147484D01*
X147484Y176222D01*
X147178Y176473D01*
Y177736D01*
X151179D01*
Y179600D01*
X152143D01*
X152143Y179600D01*
X152572Y179685D01*
X152936Y179928D01*
X155452Y182444D01*
X155784D01*
X156372Y182688D01*
X156822Y183138D01*
X157066Y183726D01*
Y184362D01*
X156822Y184951D01*
X156372Y185401D01*
X155784Y185644D01*
X155147D01*
X154559Y185401D01*
X154109Y184951D01*
X153866Y184362D01*
Y184030D01*
X151679Y181843D01*
X151179Y181844D01*
Y184644D01*
X147178D01*
Y185998D01*
X146988Y186457D01*
X146528Y186648D01*
D02*
G37*
G36*
X118231Y174865D02*
X112897D01*
Y172631D01*
X110472D01*
X110237Y172866D01*
X109649Y173110D01*
X109012D01*
X108424Y172866D01*
X107974Y172416D01*
X107730Y171828D01*
Y171191D01*
X107974Y170603D01*
X108424Y170153D01*
X109012Y169910D01*
X109649D01*
X110237Y170153D01*
X110472Y170388D01*
X112897D01*
Y168154D01*
X118231D01*
Y174865D01*
D02*
G37*
G36*
X125911Y175066D02*
X123544D01*
Y172010D01*
X125911D01*
Y175066D01*
D02*
G37*
G36*
X122544D02*
X120177D01*
Y172010D01*
X122544D01*
Y175066D01*
D02*
G37*
G36*
X125911Y171010D02*
X123544D01*
Y167954D01*
X125911D01*
Y171010D01*
D02*
G37*
G36*
X122544D02*
X120177D01*
Y167954D01*
X122544D01*
Y171010D01*
D02*
G37*
G36*
X160987Y170115D02*
X156244D01*
Y164978D01*
X160987D01*
Y166425D01*
X162500D01*
X162756Y166476D01*
X163888D01*
X164173Y166190D01*
X164761Y165947D01*
X165398D01*
X165986Y166190D01*
X166436Y166640D01*
X166680Y167228D01*
Y167865D01*
X166436Y168453D01*
X165986Y168903D01*
X165398Y169147D01*
X164761D01*
X164173Y168903D01*
X163888Y168617D01*
X162756D01*
X162500Y168668D01*
X160987D01*
Y170115D01*
D02*
G37*
G36*
X111034Y163740D02*
X105109D01*
Y157816D01*
X111034D01*
Y159460D01*
X112069D01*
Y158013D01*
X116813D01*
Y163150D01*
X112069D01*
Y161703D01*
X111034D01*
Y163740D01*
D02*
G37*
G36*
X102766D02*
X96841D01*
Y157816D01*
X99378D01*
Y155620D01*
X99144Y155385D01*
X98900Y154797D01*
Y154160D01*
X99144Y153572D01*
X99594Y153122D01*
X100182Y152879D01*
X100818D01*
X101406Y153122D01*
X101856Y153572D01*
X102100Y154160D01*
Y154797D01*
X101856Y155385D01*
X101622Y155620D01*
Y157816D01*
X102766D01*
Y163740D01*
D02*
G37*
G36*
X131139Y152568D02*
X126396D01*
Y149214D01*
X125503Y148322D01*
X123615D01*
Y150162D01*
X117690D01*
Y144238D01*
X123615D01*
Y146078D01*
X125968D01*
X125968Y146078D01*
X126397Y146164D01*
X126761Y146407D01*
X127785Y147432D01*
X131139D01*
Y152568D01*
D02*
G37*
G36*
X176441Y146315D02*
X173469D01*
Y145655D01*
X170860D01*
X170625Y145890D01*
X170037Y146134D01*
X169401D01*
X168812Y145890D01*
X168362Y145440D01*
X168119Y144852D01*
Y144216D01*
X168362Y143628D01*
X168812Y143177D01*
X169401Y142934D01*
X170037D01*
X170625Y143177D01*
X170860Y143412D01*
X173469D01*
Y142753D01*
X176441D01*
Y146315D01*
D02*
G37*
G36*
X180381Y146515D02*
X179195D01*
Y145034D01*
X180381D01*
Y146515D01*
D02*
G37*
G36*
X178195D02*
X177009D01*
Y145034D01*
X178195D01*
Y146515D01*
D02*
G37*
G36*
X105862Y154509D02*
X105225D01*
X104637Y154265D01*
X104187Y153815D01*
X103943Y153227D01*
Y152591D01*
X104187Y152003D01*
X104422Y151768D01*
Y150554D01*
X102680D01*
Y143646D01*
X108407D01*
Y146078D01*
X109423D01*
Y144238D01*
X115347D01*
Y150162D01*
X109423D01*
Y148322D01*
X108407D01*
Y150554D01*
X106665D01*
Y151768D01*
X106900Y152003D01*
X107143Y152591D01*
Y153227D01*
X106900Y153815D01*
X106450Y154265D01*
X105862Y154509D01*
D02*
G37*
G36*
X180381Y144034D02*
X179195D01*
Y142553D01*
X180381D01*
Y144034D01*
D02*
G37*
G36*
X178195D02*
X177009D01*
Y142553D01*
X178195D01*
Y144034D01*
D02*
G37*
G36*
X154885Y153701D02*
X149748D01*
Y148958D01*
X151309D01*
Y143621D01*
X151075Y143386D01*
X150831Y142798D01*
Y142161D01*
X151075Y141573D01*
X151524Y141123D01*
X152113Y140879D01*
X152749D01*
X153337Y141123D01*
X153787Y141573D01*
X154031Y142161D01*
Y142798D01*
X153787Y143386D01*
X153552Y143621D01*
Y148958D01*
X154885D01*
Y153701D01*
D02*
G37*
G36*
X148876Y147722D02*
X143739D01*
Y142979D01*
X145185D01*
Y141641D01*
X144951Y141406D01*
X144707Y140818D01*
Y140182D01*
X144951Y139594D01*
X145401Y139144D01*
X145989Y138900D01*
X146625D01*
X147213Y139144D01*
X147663Y139594D01*
X147907Y140182D01*
Y140818D01*
X147663Y141406D01*
X147429Y141641D01*
Y142979D01*
X148876D01*
Y147722D01*
D02*
G37*
G36*
X172625Y139243D02*
X172337D01*
X171949Y139165D01*
X171619Y138945D01*
X171398Y138615D01*
X171362Y138431D01*
X172625D01*
Y139243D01*
D02*
G37*
%LPD*%
G36*
X146528Y184644D02*
X145451D01*
Y177736D01*
X146528D01*
Y175731D01*
X142660Y171862D01*
X142417Y171498D01*
X142331Y171069D01*
X142354Y170954D01*
X142212Y170799D01*
X141984Y170647D01*
Y168187D01*
X140984D01*
Y170587D01*
X140957Y170581D01*
X140510Y170283D01*
X140490D01*
X140043Y170581D01*
X140016Y170587D01*
Y168187D01*
X139016D01*
Y170587D01*
X138989Y170581D01*
X138542Y170283D01*
X138008Y170385D01*
X137996Y170393D01*
X137904Y170412D01*
X137867Y170448D01*
X137656Y170589D01*
X137501Y170861D01*
X137466Y171201D01*
X137643Y171627D01*
Y172264D01*
X137399Y172852D01*
X136949Y173302D01*
X136361Y173546D01*
X136082Y173828D01*
X136207Y185939D01*
X136353Y185998D01*
X146528D01*
Y184644D01*
D02*
G37*
%LPC*%
G36*
X144292Y184844D02*
X141728D01*
Y181690D01*
X144292D01*
Y184844D01*
D02*
G37*
G36*
X140728D02*
X138165D01*
Y181690D01*
X140728D01*
Y184844D01*
D02*
G37*
G36*
X144292Y180690D02*
X141728D01*
Y177536D01*
X144292D01*
Y180690D01*
D02*
G37*
G36*
X140728D02*
X138165D01*
Y177536D01*
X140728D01*
Y180690D01*
D02*
G37*
G36*
X109330Y225853D02*
X109258D01*
Y222009D01*
X113101D01*
Y222081D01*
X112805Y223186D01*
X112233Y224176D01*
X111425Y224985D01*
X110434Y225557D01*
X109330Y225853D01*
D02*
G37*
G36*
X113101Y221009D02*
X109258D01*
Y217166D01*
X109330D01*
X110434Y217462D01*
X111425Y218034D01*
X112233Y218843D01*
X112805Y219833D01*
X113101Y220938D01*
Y221009D01*
D02*
G37*
G36*
X31254Y213968D02*
X29182D01*
Y211700D01*
X31254D01*
Y213968D01*
D02*
G37*
G36*
Y210700D02*
X29182D01*
Y208432D01*
X31254D01*
Y210700D01*
D02*
G37*
G36*
X31000Y207556D02*
X28732D01*
Y204500D01*
X31000D01*
Y207556D01*
D02*
G37*
G36*
Y203500D02*
X28732D01*
Y200444D01*
X31000D01*
Y203500D01*
D02*
G37*
G36*
X38951Y201413D02*
X37273D01*
Y199932D01*
X38951D01*
Y201413D01*
D02*
G37*
G36*
X20484Y197869D02*
X18413D01*
Y195600D01*
X20484D01*
Y197869D01*
D02*
G37*
G36*
X17413D02*
X15341D01*
Y195600D01*
X17413D01*
Y197869D01*
D02*
G37*
G36*
X34269Y197320D02*
X32000D01*
Y194264D01*
X34269D01*
Y197320D01*
D02*
G37*
G36*
X31000D02*
X28732D01*
Y194264D01*
X31000D01*
Y197320D01*
D02*
G37*
G36*
X20484Y194600D02*
X18413D01*
Y192332D01*
X20484D01*
Y194600D01*
D02*
G37*
G36*
X17413D02*
X15341D01*
Y192332D01*
X17413D01*
Y194600D01*
D02*
G37*
G36*
X34269Y193264D02*
X32000D01*
Y190208D01*
X34269D01*
Y193264D01*
D02*
G37*
G36*
X31000D02*
X28732D01*
Y190208D01*
X31000D01*
Y193264D01*
D02*
G37*
G36*
X20864Y191054D02*
X18300D01*
Y187900D01*
X20864D01*
Y191054D01*
D02*
G37*
G36*
X17300D02*
X14736D01*
Y187900D01*
X17300D01*
Y191054D01*
D02*
G37*
G36*
X20864Y186900D02*
X18300D01*
Y183746D01*
X20864D01*
Y186900D01*
D02*
G37*
G36*
X17300D02*
X14736D01*
Y183746D01*
X17300D01*
Y186900D01*
D02*
G37*
G36*
X26072Y181168D02*
X21329D01*
Y179518D01*
X20387D01*
X19948Y179956D01*
X19360Y180200D01*
X18723D01*
X18135Y179956D01*
X17685Y179506D01*
X17442Y178918D01*
Y178282D01*
X17685Y177694D01*
X18135Y177244D01*
X18723Y177000D01*
X19360D01*
X19948Y177244D01*
X20387Y177682D01*
X21329D01*
Y176031D01*
X26072D01*
Y181168D01*
D02*
G37*
G36*
X26579Y172939D02*
X21836D01*
Y171492D01*
X20297D01*
X20062Y171727D01*
X19474Y171971D01*
X18837D01*
X18249Y171727D01*
X17799Y171277D01*
X17556Y170689D01*
Y170053D01*
X17799Y169465D01*
X18249Y169014D01*
X18837Y168771D01*
X19474D01*
X20062Y169014D01*
X20297Y169249D01*
X21836D01*
Y167802D01*
X26579D01*
Y172939D01*
D02*
G37*
G36*
X20372Y165918D02*
X18300D01*
Y163650D01*
X20372D01*
Y165918D01*
D02*
G37*
G36*
X17300D02*
X15228D01*
Y163650D01*
X17300D01*
Y165918D01*
D02*
G37*
G36*
X20372Y162650D02*
X18300D01*
Y160381D01*
X20372D01*
Y162650D01*
D02*
G37*
G36*
X17300D02*
X15228D01*
Y160381D01*
X17300D01*
Y162650D01*
D02*
G37*
G36*
X179694Y115333D02*
X176639D01*
Y112966D01*
X179694D01*
Y115333D01*
D02*
G37*
G36*
X175639D02*
X172583D01*
Y112966D01*
X175639D01*
Y115333D01*
D02*
G37*
G36*
Y111966D02*
X172583D01*
Y109599D01*
X175639D01*
Y111966D01*
D02*
G37*
G36*
X179694D02*
X176639D01*
Y109599D01*
X177305D01*
Y106512D01*
X177153Y106471D01*
X176401Y106037D01*
X175786Y105422D01*
X175352Y104670D01*
X175145Y103896D01*
X178427D01*
X181710D01*
X181502Y104670D01*
X181068Y105422D01*
X180453Y106037D01*
X179701Y106471D01*
X179549Y106512D01*
Y109599D01*
X179694D01*
Y111966D01*
D02*
G37*
G36*
X177927Y102896D02*
X175145D01*
X175352Y102122D01*
X175786Y101370D01*
X176401Y100755D01*
X177153Y100321D01*
X177927Y100114D01*
Y102896D01*
D02*
G37*
G36*
X181710D02*
X178927D01*
Y100114D01*
X179701Y100321D01*
X180453Y100755D01*
X181068Y101370D01*
X181502Y102122D01*
X181710Y102896D01*
D02*
G37*
G36*
X180769Y94096D02*
X178500D01*
Y92024D01*
X180769D01*
Y94096D01*
D02*
G37*
G36*
X177500D02*
X175232D01*
Y92024D01*
X177500D01*
Y94096D01*
D02*
G37*
G36*
X180769Y91024D02*
X178500D01*
Y88953D01*
X180769D01*
Y91024D01*
D02*
G37*
G36*
X177500D02*
X175232D01*
Y88953D01*
X177500D01*
Y91024D01*
D02*
G37*
G36*
X192006Y51079D02*
Y51079D01*
X186672D01*
Y47321D01*
X192006D01*
Y47561D01*
X192506Y47894D01*
X192722Y47805D01*
X193359D01*
X193947Y48048D01*
X194397Y48498D01*
X194641Y49086D01*
Y49723D01*
X194397Y50311D01*
X193947Y50761D01*
X193359Y51005D01*
X192722D01*
X192506Y50915D01*
X192006Y51079D01*
D02*
G37*
G36*
X169318Y51233D02*
X168682D01*
X168094Y50990D01*
X167644Y50539D01*
X167400Y49951D01*
Y49315D01*
X167644Y48727D01*
X168094Y48277D01*
X168682Y48033D01*
X169318D01*
X169430Y48079D01*
X169433Y48078D01*
X170333D01*
Y47321D01*
X175667D01*
Y51079D01*
X170333D01*
X170333Y51079D01*
X169833Y51020D01*
X169318Y51233D01*
D02*
G37*
G36*
X183010Y45768D02*
X180938D01*
Y43500D01*
X183010D01*
Y45768D01*
D02*
G37*
G36*
X179938D02*
X177867D01*
Y43500D01*
X179938D01*
Y45768D01*
D02*
G37*
G36*
X183010Y42500D02*
X180938D01*
Y40231D01*
X183010D01*
Y42500D01*
D02*
G37*
G36*
X179938D02*
X177867D01*
Y40231D01*
X179938D01*
Y42500D01*
D02*
G37*
G36*
X165980Y16624D02*
Y13842D01*
X168763D01*
X168555Y14615D01*
X168121Y15368D01*
X167507Y15982D01*
X166754Y16417D01*
X165980Y16624D01*
D02*
G37*
G36*
X180769Y13284D02*
X178697D01*
Y11015D01*
X180769D01*
Y13284D01*
D02*
G37*
G36*
X177697D02*
X175625D01*
Y11015D01*
X177697D01*
Y13284D01*
D02*
G37*
G36*
X168763Y12842D02*
X165980D01*
Y10059D01*
X166754Y10267D01*
X167507Y10701D01*
X168121Y11315D01*
X168555Y12068D01*
X168763Y12842D01*
D02*
G37*
G36*
X184814Y20412D02*
X184178D01*
X183590Y20168D01*
X183140Y19718D01*
X182896Y19130D01*
Y18493D01*
X183140Y17905D01*
X183375Y17670D01*
Y13084D01*
X182124D01*
Y7947D01*
X186868D01*
Y13084D01*
X185618D01*
Y17670D01*
X185853Y17905D01*
X186096Y18493D01*
Y19130D01*
X185853Y19718D01*
X185402Y20168D01*
X184814Y20412D01*
D02*
G37*
G36*
X180769Y10015D02*
X178697D01*
Y7747D01*
X180769D01*
Y10015D01*
D02*
G37*
G36*
X177697D02*
X175625D01*
Y7747D01*
X177697D01*
Y10015D01*
D02*
G37*
G36*
X174171Y7851D02*
X172099D01*
Y5582D01*
X174171D01*
Y7851D01*
D02*
G37*
G36*
X171099D02*
X169028D01*
Y5582D01*
X171099D01*
Y7851D01*
D02*
G37*
G36*
X157000Y106780D02*
X154720D01*
Y104500D01*
X157000D01*
Y106780D01*
D02*
G37*
G36*
X152493Y89715D02*
X149711D01*
Y86932D01*
X150484Y87140D01*
X151237Y87574D01*
X151851Y88189D01*
X152286Y88941D01*
X152493Y89715D01*
D02*
G37*
G36*
X148711D02*
X145928D01*
X146135Y88941D01*
X146570Y88189D01*
X147184Y87574D01*
X147937Y87140D01*
X148711Y86932D01*
Y89715D01*
D02*
G37*
G36*
X130464Y86214D02*
X124540D01*
Y82258D01*
X130464D01*
Y86214D01*
D02*
G37*
G36*
X135957Y81654D02*
X133393D01*
Y78500D01*
X135957D01*
Y81654D01*
D02*
G37*
G36*
X130464Y81490D02*
X124540D01*
Y77534D01*
X130464D01*
Y81490D01*
D02*
G37*
G36*
X130664Y76965D02*
X128002D01*
Y75287D01*
X130664D01*
Y76965D01*
D02*
G37*
G36*
X127002D02*
X124340D01*
Y75287D01*
X127002D01*
Y76965D01*
D02*
G37*
G36*
X139521Y77500D02*
X136957D01*
Y74346D01*
X139521D01*
Y77500D01*
D02*
G37*
G36*
X135957D02*
X133393D01*
Y74346D01*
X135957D01*
Y77500D01*
D02*
G37*
G36*
X130664Y74287D02*
X128002D01*
Y72610D01*
X130664D01*
Y74287D01*
D02*
G37*
G36*
X127002D02*
X124340D01*
Y72610D01*
X127002D01*
Y74287D01*
D02*
G37*
G36*
X62589Y71547D02*
X60911D01*
Y68885D01*
X62589D01*
Y71547D01*
D02*
G37*
G36*
X59911D02*
X58233D01*
Y68885D01*
X59911D01*
Y71547D01*
D02*
G37*
G36*
X59911Y65740D02*
X57348D01*
Y62586D01*
X59911D01*
Y65740D01*
D02*
G37*
G36*
Y61586D02*
X57348D01*
Y58432D01*
X59911D01*
Y61586D01*
D02*
G37*
G36*
X63475D02*
X60911D01*
Y58432D01*
X63225D01*
X63475Y58431D01*
X63713Y58055D01*
X65797D01*
Y59733D01*
X63975D01*
X63725Y59733D01*
X63475Y60129D01*
Y61586D01*
D02*
G37*
G36*
X68868Y57055D02*
X66797D01*
Y55377D01*
X68868D01*
Y57055D01*
D02*
G37*
G36*
X65797D02*
X63725D01*
Y55377D01*
X65797D01*
Y57055D01*
D02*
G37*
G36*
X216556Y60460D02*
X209444D01*
Y58093D01*
X211878D01*
Y56642D01*
X211715Y56598D01*
X210962Y56164D01*
X210348Y55549D01*
X209913Y54797D01*
X209706Y54023D01*
X212988D01*
X216271D01*
X216064Y54797D01*
X215629Y55549D01*
X215015Y56164D01*
X214262Y56598D01*
X214122Y56636D01*
Y58093D01*
X216556D01*
Y60460D01*
D02*
G37*
G36*
X223043Y49143D02*
X219200D01*
Y45300D01*
X223043D01*
Y49143D01*
D02*
G37*
G36*
X216271Y53023D02*
X212988D01*
X209706D01*
X209913Y52249D01*
X210348Y51497D01*
X210962Y50882D01*
X211715Y50448D01*
X211899Y50398D01*
X211964Y50071D01*
X212207Y49707D01*
X214357Y47557D01*
Y45300D01*
X218200D01*
Y49143D01*
X215943D01*
X214791Y50295D01*
X214856Y50791D01*
X215015Y50882D01*
X215629Y51497D01*
X216064Y52249D01*
X216271Y53023D01*
D02*
G37*
G36*
X41939Y36196D02*
Y33413D01*
X44721D01*
X44514Y34187D01*
X44079Y34939D01*
X43465Y35554D01*
X42713Y35988D01*
X41939Y36196D01*
D02*
G37*
G36*
X53168Y34408D02*
X50900D01*
Y32336D01*
X53168D01*
Y34408D01*
D02*
G37*
G36*
X49900D02*
X47631D01*
Y32336D01*
X49900D01*
Y34408D01*
D02*
G37*
G36*
X59803Y34015D02*
X58125D01*
Y31943D01*
X59803D01*
Y34015D01*
D02*
G37*
G36*
X57125D02*
X55447D01*
Y31943D01*
X57125D01*
Y34015D01*
D02*
G37*
G36*
X44721Y32413D02*
X41939D01*
Y29631D01*
X42713Y29838D01*
X43465Y30272D01*
X44079Y30887D01*
X44514Y31639D01*
X44721Y32413D01*
D02*
G37*
G36*
X53168Y31336D02*
X50900D01*
Y29265D01*
X53168D01*
Y31336D01*
D02*
G37*
G36*
X49900D02*
X47631D01*
Y29265D01*
X49900D01*
Y31336D01*
D02*
G37*
G36*
X59803Y30943D02*
X58125D01*
Y28871D01*
X59803D01*
Y30943D01*
D02*
G37*
G36*
X57125D02*
X55447D01*
Y28871D01*
X57125D01*
Y30943D01*
D02*
G37*
G36*
X100128Y25005D02*
X98056D01*
Y22736D01*
X100128D01*
Y25005D01*
D02*
G37*
G36*
X97056D02*
X94985D01*
Y22736D01*
X97056D01*
Y25005D01*
D02*
G37*
G36*
X100128Y21736D02*
X98056D01*
Y19468D01*
X100128D01*
Y21736D01*
D02*
G37*
G36*
X97056D02*
X94985D01*
Y19468D01*
X97056D01*
Y21736D01*
D02*
G37*
G36*
X91227Y19072D02*
Y16290D01*
X94009D01*
X93802Y17064D01*
X93367Y17816D01*
X92753Y18431D01*
X92000Y18865D01*
X91227Y19072D01*
D02*
G37*
G36*
X100319Y15298D02*
X98247D01*
Y13029D01*
X100319D01*
Y15298D01*
D02*
G37*
G36*
X97247D02*
X95175D01*
Y13029D01*
X97247D01*
Y15298D01*
D02*
G37*
G36*
X94009Y15290D02*
X91227D01*
Y12507D01*
X92000Y12715D01*
X92753Y13149D01*
X93367Y13764D01*
X93802Y14516D01*
X94009Y15290D01*
D02*
G37*
G36*
X100319Y12030D02*
X98247D01*
Y9761D01*
X100319D01*
Y12030D01*
D02*
G37*
G36*
X97247D02*
X95175D01*
Y9761D01*
X97247D01*
Y12030D01*
D02*
G37*
%LPD*%
D12*
X176139Y119947D02*
X177579Y118507D01*
X183360Y109905D02*
Y117099D01*
X177579Y118507D02*
X181953D01*
X183360Y117099D01*
X176139Y122979D02*
X180605Y127446D01*
X176139Y120034D02*
Y122979D01*
X178427Y108276D02*
Y110178D01*
X194729Y111995D02*
X196887Y114153D01*
Y114547D01*
X193923Y111995D02*
X194729D01*
X192323Y110396D02*
X193923Y111995D01*
X198575Y123225D02*
X201873Y126523D01*
X198575Y120294D02*
Y123225D01*
X196887Y118606D02*
X198575Y120294D01*
X183946Y109319D02*
X187600D01*
X188676Y110396D02*
X192323D01*
X196887Y114547D02*
Y118606D01*
Y114547D02*
X197252Y114181D01*
X211223D01*
X187600Y109319D02*
X188676Y110396D01*
X188908Y163526D02*
X196373D01*
X197038Y164190D01*
X211223Y114181D02*
X211808Y114767D01*
Y155568D01*
X203996Y163380D02*
X211808Y155568D01*
X178427Y103396D02*
Y108276D01*
X176139Y112466D02*
X178427Y110178D01*
X183360Y109905D02*
X183946Y109319D01*
X182901Y133994D02*
X184257Y132638D01*
Y119499D02*
Y132638D01*
Y119499D02*
X189209Y114547D01*
X197523Y143108D02*
X198507D01*
X182589Y136431D02*
X190846D01*
X202338Y146939D02*
Y147924D01*
X198507Y143108D02*
X202338Y146939D01*
X190846Y136431D02*
X197523Y143108D01*
X169719Y144534D02*
X174955D01*
X178695D02*
X178715Y144514D01*
X147484Y175100D02*
X152650D01*
X143453Y171069D02*
X147484Y175100D01*
X127502Y98409D02*
X144722D01*
X147400Y106006D02*
Y106500D01*
X145308Y98995D02*
Y103914D01*
X147400Y106006D01*
X144722Y98409D02*
X145308Y98995D01*
X105803Y3000D02*
X111286Y8483D01*
X135776D01*
X140549Y13256D01*
X110350Y12090D02*
X129366D01*
X131888Y14611D01*
Y18905D01*
X65136Y65758D02*
Y72047D01*
Y65758D02*
X65200Y65693D01*
X114329Y20283D02*
X114347Y20265D01*
X71486Y7562D02*
X72237Y6811D01*
X106955D02*
X109720Y9577D01*
X66751Y7562D02*
X71486D01*
X72237Y6811D02*
X106955D01*
X102182Y38787D02*
X102535Y39139D01*
X90152Y15820D02*
X90607Y16275D01*
X97747Y12529D02*
X97756Y12538D01*
X60289Y62209D02*
X60411Y62086D01*
X60350Y71986D02*
X60411Y72047D01*
X57625Y31443D02*
X57795Y31272D01*
X78886Y28000D02*
X84819D01*
X84882Y27936D01*
X94136Y52033D02*
X94382Y52280D01*
X108145Y35695D02*
X108186Y35736D01*
X108145Y32253D02*
Y35695D01*
X184496Y10515D02*
Y18812D01*
X84793Y37547D02*
X84879Y37461D01*
X84982Y37358D01*
X98332Y65115D02*
Y71922D01*
Y59825D02*
Y65115D01*
X85436Y52033D02*
X85682Y52280D01*
X78300Y28586D02*
Y32701D01*
X77714Y49200D02*
X78300Y48614D01*
X70828Y49200D02*
X77714D01*
X78300Y32701D02*
Y48614D01*
X66297Y52043D02*
X66690D01*
X31037Y38135D02*
Y45980D01*
Y32171D02*
Y38135D01*
X77230Y59896D02*
Y61415D01*
X79309Y64780D02*
Y72047D01*
Y64780D02*
X79583Y64506D01*
X100310Y195543D02*
X100500Y195732D01*
X100310Y188015D02*
Y195543D01*
X121829Y124803D02*
X121920Y124895D01*
Y130692D02*
X122012Y130784D01*
X121920Y124895D02*
Y130692D01*
X74585Y130470D02*
X74620Y130505D01*
X74585Y124803D02*
Y130470D01*
X31960Y131256D02*
X32065Y131151D01*
Y124803D02*
Y131151D01*
X28402Y228414D02*
X40026D01*
X27817Y229000D02*
X28402Y228414D01*
X40026D02*
X40612Y229000D01*
X65902D02*
X66210Y228692D01*
X60100Y229000D02*
X65902D01*
X22837Y229085D02*
X22922Y229000D01*
X27817D01*
X165460Y193393D02*
X170651D01*
X169000Y57665D02*
Y58914D01*
X144043Y77387D02*
Y78000D01*
X117157Y195765D02*
X117206Y195716D01*
X107656Y72047D02*
X107863Y71840D01*
X107600Y72102D02*
X107656Y72047D01*
X163481Y57685D02*
X167378D01*
X159585D02*
X163481D01*
X147940Y73058D02*
X148092Y72906D01*
X144043Y73058D02*
X147940D01*
X149591Y94425D02*
X149782Y94616D01*
X149500Y90215D02*
X149591Y90306D01*
X149782Y94616D02*
X149898Y94500D01*
X152782Y94000D02*
X157500D01*
X149591Y90306D02*
Y94425D01*
X152282Y94500D02*
X152782Y94000D01*
X149898Y94500D02*
X152282D01*
X149849Y98559D02*
X150290Y99000D01*
X149578Y98559D02*
X149849D01*
X150290Y99000D02*
X157500D01*
X192836Y49200D02*
X193041Y49405D01*
X189339Y49200D02*
X192836D01*
X32057Y72040D02*
X32065Y72047D01*
X152431Y142479D02*
Y151214D01*
X152316Y151329D02*
X152431Y151214D01*
X165392Y193460D02*
X165460Y193393D01*
X150540Y219675D02*
X150615Y219750D01*
X150466Y219600D02*
X150540Y219675D01*
X148860Y215337D02*
X148939Y215416D01*
X148860Y206823D02*
Y215337D01*
X56163Y206103D02*
X56500Y206440D01*
X54891Y204831D02*
X56163Y206103D01*
X51550Y204045D02*
X51820D01*
X51548D02*
X51550D01*
X18979Y170194D02*
X19155Y170371D01*
X24208D01*
X64993Y220030D02*
X69755D01*
X69917Y220192D01*
X56163Y219748D02*
X56445Y220030D01*
X64993D01*
X47325Y202700D02*
X50203D01*
X52606Y204831D02*
X54891D01*
X50203Y202700D02*
X51548Y204045D01*
X51820D02*
X52606Y204831D01*
X49128Y33108D02*
X50400Y31836D01*
X67010Y49464D02*
Y51330D01*
Y45156D02*
Y49464D01*
X70564D02*
X70828Y49200D01*
X67010Y49464D02*
X70564D01*
X66297Y52043D02*
X67010Y51330D01*
X65620Y56878D02*
X66297Y57555D01*
X70828Y31836D02*
X72695Y29969D01*
X70227Y31443D02*
X70670Y31000D01*
X63136Y31443D02*
X70227D01*
X40612Y229000D02*
X47305D01*
X222300Y68700D02*
Y85617D01*
X221417Y86500D02*
X222300Y85617D01*
X213000Y50500D02*
Y60960D01*
Y50500D02*
X218700Y44800D01*
X222300Y57099D02*
Y62991D01*
X213000Y68440D02*
X213260Y68700D01*
X222300D01*
X188016Y95199D02*
X188372Y95555D01*
X198583D01*
Y86500D02*
X221417D01*
X144043Y73058D02*
Y76909D01*
X143543Y78000D02*
X144043D01*
X53385Y222526D02*
X56163Y219748D01*
X144132Y81954D02*
X146263D01*
X146907Y79179D02*
X149698Y76387D01*
X168914D01*
X146263Y81954D02*
X146907Y81310D01*
X143543Y82543D02*
X144132Y81954D01*
X146907Y79179D02*
Y81310D01*
X143543Y82543D02*
Y93936D01*
X145622Y154268D02*
X145690Y154335D01*
X122689Y216806D02*
X122695Y216800D01*
X127230Y197014D02*
X130136D01*
X126432Y196216D02*
X127230Y197014D01*
X124463Y196216D02*
X126432D01*
X124012Y195765D02*
X124463Y196216D01*
X150466Y219329D02*
Y219600D01*
X148276Y206239D02*
X148860Y206823D01*
X136042Y169691D02*
Y171946D01*
X155466Y184044D02*
X155657Y184236D01*
X24685Y219748D02*
X31754D01*
X121243Y71461D02*
X121829Y72047D01*
X157315Y67800D02*
X164201D01*
X144880Y13471D02*
Y18905D01*
Y5697D02*
Y13471D01*
X148035D02*
X148829Y14264D01*
X144880Y13471D02*
X148035D01*
X152650Y175100D02*
X155618D01*
X152650Y176614D02*
X158518Y182481D01*
X164100D01*
X152650Y175100D02*
Y176614D01*
X152143Y180721D02*
X155466Y184044D01*
X148458Y180721D02*
X152143D01*
X165480Y12897D02*
Y13342D01*
X165035D02*
X165480D01*
X166150Y14012D01*
X31037Y52280D02*
Y59006D01*
X31038Y59006D01*
X55328Y218914D02*
X56163Y219748D01*
X55328Y213200D02*
Y218914D01*
Y213200D02*
X56163Y214035D01*
Y219748D01*
X100500Y195732D02*
X108967D01*
X158500Y157628D02*
X160186D01*
X152316D02*
X158500D01*
Y145000D02*
Y157628D01*
X130136Y197014D02*
X130666Y197544D01*
X65136Y139000D02*
X65136Y139000D01*
X59886Y139000D02*
X65136D01*
X160186Y157628D02*
X165599Y152216D01*
X155618Y175100D02*
X156804Y173914D01*
X162614Y198561D02*
X171894D01*
X161128D02*
X162614D01*
X173665Y205035D02*
X185252D01*
X173665D02*
Y209799D01*
Y200333D02*
Y205035D01*
X160341Y199349D02*
X161128Y198561D01*
X171894D02*
X173665Y200333D01*
X139516Y152267D02*
X140367D01*
X141484Y151150D01*
X109330Y171510D02*
X115564D01*
X163103Y173914D02*
X165244D01*
X165244Y173915D01*
X168586D01*
X167378Y57685D02*
X168980D01*
X78300Y28586D02*
X78886Y28000D01*
X70828Y61099D02*
Y66672D01*
X98332Y59825D02*
X98457Y59700D01*
X98207Y72047D02*
X98332Y71922D01*
X136457Y78000D02*
Y78591D01*
X136579Y95199D02*
X142280D01*
X135065Y93685D02*
X136579Y95199D01*
X127502Y93685D02*
X135065D01*
X142280Y95199D02*
X143543Y93936D01*
X125640Y75665D02*
X126518Y74787D01*
X125640Y75665D02*
Y75840D01*
X150086Y84000D02*
X157500D01*
X65136Y19496D02*
Y24731D01*
X65095Y24772D02*
X65136Y24731D01*
X145494Y5082D02*
X156632D01*
X144880Y5697D02*
X145494Y5082D01*
X156632D02*
X156632Y5082D01*
X156632D01*
X165300D01*
X180104Y43000D02*
X180438D01*
X180104Y43000D02*
X180104Y43000D01*
X159585Y43118D02*
X173942D01*
X53522Y3586D02*
Y13196D01*
X54108Y3000D02*
X105803D01*
X53522Y3586D02*
X54108Y3000D01*
X84034Y66247D02*
X85500Y64780D01*
X84034Y66247D02*
Y72047D01*
X53522Y19496D02*
Y26150D01*
X104046Y12529D02*
X109720Y18204D01*
Y24772D01*
X108145Y26347D02*
X109720Y24772D01*
X122641Y14270D02*
X123226Y14855D01*
X119093Y14270D02*
X122641D01*
X53522Y13196D02*
X53522Y13196D01*
X64722Y12782D02*
X65136Y13196D01*
X109720Y9577D02*
Y11460D01*
X63291Y12782D02*
X64722D01*
X140549Y13256D02*
Y18905D01*
X65136Y9177D02*
X66751Y7562D01*
X65136Y9177D02*
Y13196D01*
X109720Y11460D02*
X110350Y12090D01*
X123226Y14855D02*
Y18905D01*
X158896Y19397D02*
X166479D01*
X168980Y57685D02*
X169000Y57665D01*
X158000Y20293D02*
X158896Y19397D01*
X178197Y10515D02*
X178197Y10515D01*
X201000Y193811D02*
Y205035D01*
X211000D01*
X196500Y187100D02*
X197581Y188181D01*
X198619Y187143D02*
X206000D01*
X197581Y188181D02*
X198619Y187143D01*
X158615Y167547D02*
X162500D01*
X150102Y165332D02*
X152316Y167547D01*
X150518Y159427D02*
X152316Y157628D01*
X146307Y140500D02*
Y145350D01*
X145690Y152267D02*
Y154335D01*
Y152267D02*
X146307Y151650D01*
X91952Y147100D02*
X98457D01*
X91852Y147200D02*
X91952Y147100D01*
X105543D02*
Y152909D01*
X100500Y154479D02*
Y160082D01*
X99804Y160778D02*
X100500Y160082D01*
X105543Y147100D02*
X105643Y147200D01*
X112385D01*
X120652D02*
X125968D01*
X128768Y150000D01*
X135500Y151150D02*
Y153905D01*
X108071Y160778D02*
X108268Y160581D01*
X114441D01*
X117590Y216806D02*
X122689D01*
X117590Y210506D02*
X119304Y208793D01*
X124701D01*
X117254Y195765D02*
X124012D01*
X109000D02*
X117157D01*
X108967Y195732D02*
X109000Y195765D01*
X108967Y202819D02*
X109000Y202852D01*
X117254D02*
X117590Y202516D01*
X150615Y219750D02*
X156000D01*
Y209042D02*
Y213450D01*
X124463Y202516D02*
X125554Y203606D01*
X206000Y175100D02*
Y180057D01*
X196500Y175100D02*
Y180013D01*
X197581Y188181D02*
X200650Y191250D01*
Y193460D02*
X201000Y193811D01*
X200650Y193460D02*
Y193811D01*
Y191250D02*
Y193460D01*
X191655Y191115D02*
X194350Y193811D01*
X184015Y191115D02*
X191655D01*
X181670Y193460D02*
X184015Y191115D01*
X176815Y193460D02*
X181670D01*
X131000Y208793D02*
X131407Y209200D01*
X136199D01*
X138176Y207223D01*
X176815Y193460D02*
X177165Y193811D01*
X162906Y204600D02*
X164335Y206029D01*
Y209799D01*
X155466Y121152D02*
Y124803D01*
Y117500D02*
Y121152D01*
X159848D02*
X160000Y121000D01*
X155466Y121152D02*
X159848D01*
X144203Y109658D02*
X144914Y110369D01*
X138738Y109658D02*
X144203D01*
X144914Y110369D02*
Y116914D01*
X145500Y117500D01*
X149167D01*
X140086Y124500D02*
X148863D01*
X139500Y123914D02*
X140086Y124500D01*
X139500Y120262D02*
Y123914D01*
X138738Y119500D02*
X139500Y120262D01*
X148863Y124500D02*
X149167Y124803D01*
X131305Y117307D02*
X133498Y119500D01*
X127502Y117307D02*
X131305D01*
X133498Y119500D02*
X138738D01*
X133000Y109498D02*
Y111500D01*
X133498Y109000D02*
X138081D01*
X133000Y109498D02*
X133498Y109000D01*
X138081D02*
X138738Y109658D01*
X131917Y112583D02*
X133000Y111500D01*
X127502Y112583D02*
X131917D01*
X127502Y117307D02*
X127695Y117500D01*
X169500Y76973D02*
Y98414D01*
X168914Y76387D02*
X169500Y76973D01*
X168914Y99000D02*
X169500Y98414D01*
X162500Y99000D02*
X168914D01*
X188753Y64490D02*
X189339Y63904D01*
X178000Y64490D02*
X188753D01*
X189339Y57665D02*
Y63904D01*
X173000Y63478D02*
X174012Y64490D01*
X178000D01*
X173000Y57665D02*
Y63478D01*
X169000Y49633D02*
X169433Y49200D01*
X173000D01*
X170500Y70204D02*
X171086Y70789D01*
X170500Y67800D02*
Y70204D01*
X171086Y70789D02*
X178000D01*
Y80239D01*
Y85225D01*
X177739Y80500D02*
X178000Y80239D01*
X174500Y80500D02*
X177739D01*
X102931Y66500D02*
Y72047D01*
X136042Y77086D02*
X136957Y78000D01*
X134407Y84637D02*
Y88375D01*
X134357Y84586D02*
X134407Y84637D01*
X136457Y78000D02*
X136957D01*
X98207Y131500D02*
X98350Y131644D01*
X98207Y124803D02*
Y131500D01*
X84000Y72014D02*
X84034Y72047D01*
X70828Y49200D02*
Y61099D01*
X69860Y67640D02*
Y72047D01*
Y67640D02*
X70828Y66672D01*
X133822Y88961D02*
X134407Y88375D01*
X127502Y88961D02*
X133822D01*
X162500Y79512D02*
Y84000D01*
X147400Y108400D02*
X148000Y109000D01*
X161914D01*
X162500Y108414D01*
Y104000D02*
Y108414D01*
X70828Y33750D02*
Y39644D01*
Y31836D02*
Y33750D01*
X74278D01*
X72695Y26667D02*
Y29969D01*
X74563Y24800D02*
X87522D01*
X72695Y26667D02*
X74563Y24800D01*
X88108Y25386D02*
Y28012D01*
X87522Y24800D02*
X88108Y25386D01*
X50400Y38135D02*
Y45400D01*
X59128D02*
X59372Y45156D01*
X50400Y45400D02*
X59128D01*
X59300Y43086D02*
X59886Y42500D01*
X70243D01*
X59300Y45084D02*
X59372Y45156D01*
X59300Y43086D02*
Y45084D01*
X70243Y42500D02*
X70828Y43086D01*
Y45156D01*
X59372Y39644D02*
X63191D01*
X91257Y28012D02*
X91257Y28012D01*
Y22236D02*
Y28012D01*
X20200Y211200D02*
X25454D01*
X54057Y153760D02*
X54250Y153568D01*
Y147100D02*
Y153568D01*
X24099Y163150D02*
X30500D01*
D16*
X180605Y127446D02*
Y132026D01*
Y135962D02*
X182121D01*
X180605Y133994D02*
X182901D01*
X182121Y135962D02*
X182589Y136431D01*
X166206Y133972D02*
X166217Y133983D01*
X173114D01*
X168461Y135962D02*
X173124D01*
X173114Y133983D02*
X173125Y133994D01*
X175881D01*
X143453Y168187D02*
Y171069D01*
X31500Y204000D02*
X32583Y205083D01*
X36280D01*
X39451Y201913D01*
X44984Y193107D02*
Y193965D01*
X44288Y194660D02*
Y206553D01*
X48018Y192276D02*
X48515Y191779D01*
X45815Y192276D02*
X48018D01*
X44288Y194660D02*
X44984Y193965D01*
Y193107D02*
X45815Y192276D01*
X37253Y191863D02*
X37721Y192332D01*
X37253Y180202D02*
Y191863D01*
X41462Y192332D02*
X42015Y191779D01*
X37721Y192332D02*
X41462D01*
X36280Y179229D02*
X37253Y180202D01*
X30629Y179229D02*
X36280D01*
X30000Y178600D02*
X30629Y179229D01*
X48515Y195968D02*
X52350Y199803D01*
X56163D01*
X48515Y191779D02*
Y195968D01*
X42015Y198952D02*
X42488Y199425D01*
X42015Y191779D02*
Y198952D01*
X44288Y206553D02*
X47128Y209393D01*
X41787Y214884D02*
X42171Y214500D01*
Y211916D02*
Y214500D01*
X43971Y212550D02*
X47128Y209393D01*
X43971Y212550D02*
Y217283D01*
X41787Y214884D02*
Y218081D01*
X43971Y217283D02*
X44288Y217600D01*
X41399Y218468D02*
X41787Y218081D01*
X39648Y209393D02*
X42171Y211916D01*
X43896Y184108D02*
X44365Y183639D01*
X42015Y185479D02*
X43387Y184108D01*
X43896D01*
X46165Y183639D02*
X46634Y184108D01*
X47143D02*
X48515Y185479D01*
X46634Y184108D02*
X47143D01*
X40950Y180099D02*
Y180136D01*
X49250Y180099D02*
Y180136D01*
X40950D02*
X41536Y180721D01*
X48664D02*
X49250Y180136D01*
X44365Y181355D02*
Y183639D01*
X46165Y181190D02*
Y183639D01*
Y181190D02*
X46634Y180721D01*
X48664D01*
X43731D02*
X44365Y181355D01*
X41536Y180721D02*
X43731D01*
X42488Y199425D02*
Y206553D01*
X39785Y179229D02*
X40080D01*
X40950Y180099D01*
X49250D02*
X50120Y179229D01*
X50415D01*
X36280Y205083D02*
Y211200D01*
X38840Y213760D01*
X31754Y211200D02*
X36280D01*
X49076Y213624D02*
X49400Y213300D01*
X49076Y213624D02*
Y218468D01*
X38840Y213760D02*
Y218468D01*
X47128Y209393D02*
X47325D01*
X39451D02*
X39648D01*
X42488Y206553D01*
D19*
X143758Y154268D02*
X145622D01*
X143453Y154573D02*
X143758Y154268D01*
X152114Y207223D02*
X154181D01*
X156000Y209042D01*
X37721Y166648D02*
Y171791D01*
Y166648D02*
X38840Y165529D01*
X39785Y167547D02*
X40137Y167195D01*
X39785Y167547D02*
Y170371D01*
X40137Y167195D02*
X53706D01*
X37721Y171791D02*
X38073Y172143D01*
X39785D01*
X36416Y172957D02*
X37374Y173914D01*
X36416Y170905D02*
Y172957D01*
X36416Y170905D02*
X36416Y170905D01*
X37374Y173914D02*
X39785D01*
X36416Y163321D02*
Y170905D01*
X34666Y174167D02*
X36185Y175686D01*
X34666Y160877D02*
Y174167D01*
X31979Y171843D02*
Y174418D01*
X35018Y177457D01*
X36185Y175686D02*
X39785D01*
X30507Y170371D02*
X31979Y171843D01*
X35018Y177457D02*
X39785D01*
X30507Y163156D02*
Y170371D01*
X69860Y162750D02*
Y165340D01*
Y124803D02*
Y162750D01*
X55628Y175814D02*
X59300Y172143D01*
X63058D01*
X52912Y175814D02*
X55628D01*
X65136Y139000D02*
Y164535D01*
Y124803D02*
Y139000D01*
X63058Y172143D02*
X69860Y165340D01*
X34666Y160877D02*
X40572D01*
X33804D02*
X34666D01*
X40572D02*
X40966Y161271D01*
X30500Y156850D02*
Y157047D01*
X33453Y160000D01*
Y160526D02*
X33804Y160877D01*
X33453Y160000D02*
Y160526D01*
X36416Y163321D02*
X36566Y163171D01*
X143453Y155608D02*
Y156572D01*
Y154573D02*
Y155608D01*
X135500Y153905D02*
X137547Y155953D01*
Y156572D01*
X102075Y45193D02*
X102182Y45086D01*
X94382Y45193D02*
X102075D01*
X85682D02*
X94382D01*
Y37485D02*
X94407Y37461D01*
X94382Y37485D02*
Y45193D01*
X85682Y39886D02*
X88108Y37461D01*
X85682Y39886D02*
Y45193D01*
X52783Y175686D02*
X52912Y175814D01*
X50415Y175686D02*
X52783D01*
X50415Y173914D02*
X53706D01*
X50415Y170371D02*
X59300D01*
X65136Y164535D01*
X53706Y167195D02*
X54057Y166844D01*
Y162028D02*
Y166844D01*
X45887Y162028D02*
X46238Y162380D01*
Y163576D01*
X41723Y162028D02*
X45887D01*
X40966Y161271D02*
X41723Y162028D01*
X43132Y147100D02*
X47950D01*
X36487Y154479D02*
X36980Y154972D01*
X40966D01*
X30500Y163150D02*
X30507Y163156D01*
X19042Y178600D02*
X23701D01*
X39785Y172143D02*
X42443D01*
X6459Y195100D02*
X11613D01*
X6413Y187400D02*
X10713D01*
D25*
X201873Y126523D02*
D03*
Y146602D02*
D03*
D26*
X221417Y86500D02*
D03*
D27*
X198583Y77445D02*
D03*
Y86500D02*
D03*
Y95555D02*
D03*
D28*
X48108Y102538D02*
D03*
X56840D02*
D03*
X48108Y93947D02*
D03*
X56840D02*
D03*
X96360Y101727D02*
D03*
X107600D02*
D03*
X96360Y90215D02*
D03*
X107600D02*
D03*
D29*
X127502Y79512D02*
D03*
Y122031D02*
D03*
Y117307D02*
D03*
Y112583D02*
D03*
Y107858D02*
D03*
Y103134D02*
D03*
Y98409D02*
D03*
Y93685D02*
D03*
Y88961D02*
D03*
Y84236D02*
D03*
Y74787D02*
D03*
D30*
X32065Y124803D02*
D03*
X36789D02*
D03*
X41514D02*
D03*
X46238D02*
D03*
X50963D02*
D03*
X55687D02*
D03*
X60411D02*
D03*
X65136D02*
D03*
X69860D02*
D03*
X74585D02*
D03*
X79309D02*
D03*
X84034D02*
D03*
X88758D02*
D03*
X93482D02*
D03*
X98207D02*
D03*
X102931D02*
D03*
X107656D02*
D03*
X112380D02*
D03*
X117104D02*
D03*
X121829D02*
D03*
Y72047D02*
D03*
X117104D02*
D03*
X112380D02*
D03*
X107656D02*
D03*
X102931D02*
D03*
X98207D02*
D03*
X93482D02*
D03*
X88758D02*
D03*
X84034D02*
D03*
X79309D02*
D03*
X74585D02*
D03*
X69860D02*
D03*
X65136D02*
D03*
X60411D02*
D03*
X55687D02*
D03*
X50963D02*
D03*
X46238D02*
D03*
X41514D02*
D03*
X36789D02*
D03*
X32065D02*
D03*
D33*
X196887Y114547D02*
D03*
X189209D02*
D03*
D34*
X176139Y119947D02*
D03*
Y112466D02*
D03*
X213000Y68440D02*
D03*
Y60960D02*
D03*
D35*
X97556Y22236D02*
D03*
X91257D02*
D03*
X31754Y211200D02*
D03*
X25454D02*
D03*
X17913Y195100D02*
D03*
X11613D02*
D03*
X30000Y178600D02*
D03*
X23701D02*
D03*
X30507Y170371D02*
D03*
X24208D02*
D03*
X170500Y67800D02*
D03*
X164201D02*
D03*
X149167Y117500D02*
D03*
X155466D02*
D03*
X149167Y124803D02*
D03*
X155466D02*
D03*
X178197Y10515D02*
D03*
X184496D02*
D03*
X54250Y147100D02*
D03*
X47950D02*
D03*
X17800Y163150D02*
D03*
X24099D02*
D03*
X156804Y173914D02*
D03*
X163103D02*
D03*
X104046Y12529D02*
D03*
X97747D02*
D03*
X171599Y5082D02*
D03*
X165300D02*
D03*
X174139Y43000D02*
D03*
X180438D02*
D03*
X194350Y193811D02*
D03*
X200650D02*
D03*
X176815Y193460D02*
D03*
X170516D02*
D03*
X131000Y208793D02*
D03*
X124701D02*
D03*
X135067Y150000D02*
D03*
X128768D02*
D03*
X120740Y160581D02*
D03*
X114441D02*
D03*
X158615Y167547D02*
D03*
X152316D02*
D03*
D36*
X66297Y57555D02*
D03*
Y52043D02*
D03*
D37*
X189339Y57665D02*
D03*
X173000D02*
D03*
Y49200D02*
D03*
X189339D02*
D03*
D38*
X94407Y37461D02*
D03*
X91257D02*
D03*
X88108D02*
D03*
X84879D02*
D03*
X84958Y28012D02*
D03*
X88108D02*
D03*
X91257D02*
D03*
X94407D02*
D03*
D39*
X212988Y53523D02*
D03*
X165599Y152216D02*
D03*
X69860Y134000D02*
D03*
X69917Y220192D02*
D03*
X59886Y139000D02*
D03*
X164100Y182481D02*
D03*
X165480Y13342D02*
D03*
X166763Y43118D02*
D03*
X53522Y6500D02*
D03*
X31037Y38135D02*
D03*
X71486Y7562D02*
D03*
X156632Y5082D02*
D03*
X138738Y85225D02*
D03*
X149211Y90215D02*
D03*
X147400Y106500D02*
D03*
X169500Y78500D02*
D03*
X178000Y77086D02*
D03*
X70828Y61099D02*
D03*
X70670Y31000D02*
D03*
X90727Y15790D02*
D03*
X77230Y59896D02*
D03*
X78300Y32701D02*
D03*
X98332Y65115D02*
D03*
X41439Y32913D02*
D03*
X167378Y57685D02*
D03*
X178427Y103396D02*
D03*
X223454Y199030D02*
D03*
D40*
X39451Y201913D02*
D03*
X47325Y209393D02*
D03*
X39451D02*
D03*
D41*
X47325Y202700D02*
D03*
D42*
X31500Y193764D02*
D03*
Y204000D02*
D03*
D43*
X122301Y61523D02*
D03*
X145805D02*
D03*
D44*
X159585Y43118D02*
D03*
Y57685D02*
D03*
D45*
X158896Y19397D02*
D03*
D46*
X149211Y18905D02*
D03*
X144880D02*
D03*
X140549D02*
D03*
X136219D02*
D03*
X131888D02*
D03*
X127557D02*
D03*
X123226D02*
D03*
D47*
X119093D02*
D03*
D48*
X114329Y20283D02*
D03*
D49*
X108071Y160778D02*
D03*
X99804D02*
D03*
X120652Y147200D02*
D03*
X112385D02*
D03*
D50*
X54250Y161836D02*
D03*
Y153568D02*
D03*
D51*
X108145Y26347D02*
D03*
Y32253D02*
D03*
D52*
X47305Y229000D02*
D03*
X40612D02*
D03*
D53*
X60100D02*
D03*
X27817D02*
D03*
D54*
X56163Y219748D02*
D03*
X31754D02*
D03*
D55*
X49076Y218468D02*
D03*
X46517D02*
D03*
X43958D02*
D03*
X41399D02*
D03*
X38840D02*
D03*
D56*
X203996Y163380D02*
D03*
X197494D02*
D03*
D57*
X178695Y144534D02*
D03*
X174955D02*
D03*
D58*
X173125Y137931D02*
D03*
Y135962D02*
D03*
Y133994D02*
D03*
Y132026D02*
D03*
X180605D02*
D03*
Y133994D02*
D03*
Y135962D02*
D03*
Y137931D02*
D03*
D60*
X201000Y205035D02*
D03*
X185252D02*
D03*
D61*
X39785Y179229D02*
D03*
Y177457D02*
D03*
Y175686D02*
D03*
Y173914D02*
D03*
Y172143D02*
D03*
Y170371D02*
D03*
X50415D02*
D03*
Y172143D02*
D03*
Y173914D02*
D03*
Y175686D02*
D03*
Y177457D02*
D03*
Y179229D02*
D03*
D62*
X45100Y174800D02*
D03*
D63*
X164335Y209799D02*
D03*
X173665D02*
D03*
D64*
X222300Y68700D02*
D03*
Y62991D02*
D03*
X223454Y193460D02*
D03*
Y187752D02*
D03*
D65*
X148315Y181190D02*
D03*
X141228D02*
D03*
X17800Y187400D02*
D03*
X10713D02*
D03*
X60411Y62086D02*
D03*
X53325D02*
D03*
X136457Y78000D02*
D03*
X143543D02*
D03*
X105543Y147100D02*
D03*
X98457D02*
D03*
D66*
X152316Y157628D02*
D03*
Y151329D02*
D03*
X42015Y191779D02*
D03*
Y185479D02*
D03*
X48515D02*
D03*
Y191779D02*
D03*
X40966Y161271D02*
D03*
Y154972D02*
D03*
X56163Y199803D02*
D03*
Y206103D02*
D03*
X124463Y196216D02*
D03*
Y202516D02*
D03*
X156000Y219750D02*
D03*
Y213450D02*
D03*
X117590Y216806D02*
D03*
Y210506D02*
D03*
X30500Y163150D02*
D03*
Y156850D02*
D03*
X53522Y13196D02*
D03*
Y19496D02*
D03*
X31037Y45980D02*
D03*
Y52280D02*
D03*
X65136Y13196D02*
D03*
Y19496D02*
D03*
X178000Y85225D02*
D03*
Y91524D02*
D03*
Y64490D02*
D03*
Y70789D02*
D03*
X146307Y145350D02*
D03*
Y151650D02*
D03*
X50400Y31836D02*
D03*
Y38135D02*
D03*
X102182Y38787D02*
D03*
Y45086D02*
D03*
D67*
X50400Y45400D02*
D03*
Y52487D02*
D03*
X85682Y52280D02*
D03*
Y45193D02*
D03*
X94382Y52280D02*
D03*
Y45193D02*
D03*
D68*
X70828Y45156D02*
D03*
X67010D02*
D03*
X63191D02*
D03*
X59372D02*
D03*
Y39644D02*
D03*
X63191D02*
D03*
X67010D02*
D03*
X70828D02*
D03*
D69*
X138738Y119500D02*
D03*
Y109658D02*
D03*
D70*
X100500Y195732D02*
D03*
Y202819D02*
D03*
X109000Y195765D02*
D03*
Y202852D02*
D03*
X117254Y195765D02*
D03*
Y202852D02*
D03*
X196500Y187100D02*
D03*
Y180013D02*
D03*
X206000Y187143D02*
D03*
Y180057D02*
D03*
D71*
X218740Y204600D02*
D03*
X211260D02*
D03*
X123044Y171510D02*
D03*
X115564D02*
D03*
D72*
X57625Y31443D02*
D03*
X63136D02*
D03*
D133*
X143453Y168187D02*
D03*
X141484D02*
D03*
X139516D02*
D03*
X137547D02*
D03*
Y156572D02*
D03*
X139516D02*
D03*
X141484D02*
D03*
X143453D02*
D03*
D134*
X134693Y165332D02*
D03*
Y163364D02*
D03*
Y161395D02*
D03*
Y159427D02*
D03*
X146307D02*
D03*
Y161395D02*
D03*
Y163364D02*
D03*
Y165332D02*
D03*
D135*
X140500Y162380D02*
D03*
D136*
X10000Y44420D02*
D03*
X207500Y227500D02*
D03*
X210000Y8800D02*
D03*
D137*
X176865Y134978D02*
D03*
D138*
X146307Y203286D02*
D03*
D139*
X140500Y207223D02*
D03*
Y205254D02*
D03*
Y203286D02*
D03*
Y201317D02*
D03*
Y199349D02*
D03*
X152114D02*
D03*
Y201317D02*
D03*
Y203286D02*
D03*
Y205254D02*
D03*
Y207223D02*
D03*
D140*
X143354Y201317D02*
X144339Y200333D01*
X142469Y160411D02*
X143453Y161395D01*
X153298Y161457D02*
X153359Y161519D01*
X153236Y161395D02*
X153298Y161457D01*
X140500Y201317D02*
X143354D01*
X135675D02*
X140500D01*
Y199349D02*
X143354D01*
X137477D02*
X140500D01*
X134993Y200932D02*
X135290D01*
X135675Y201317D01*
X134865Y198498D02*
X136626D01*
X134654Y198288D02*
X134865Y198498D01*
X136626D02*
X137477Y199349D01*
X81787Y223629D02*
X83907Y221509D01*
X88758D01*
X91752Y147100D02*
X91852Y147200D01*
X223454Y179275D02*
Y187752D01*
X141484Y151447D02*
X142096Y152059D01*
X141484Y151150D02*
Y151447D01*
Y156572D02*
X141523Y156534D01*
Y153627D02*
Y156534D01*
X142096Y152059D02*
Y153054D01*
X141523Y153627D02*
X142096Y153054D01*
X143453Y161395D02*
X146307D01*
X143354Y199349D02*
X144339Y200333D01*
X162500Y167547D02*
X165080D01*
X136199Y205254D02*
X140500D01*
X162500Y198675D02*
Y200161D01*
Y198675D02*
X162614Y198561D01*
X161344Y201317D02*
X162500Y200161D01*
X151145Y161395D02*
X153236D01*
X146307D02*
X151145D01*
X151268Y161519D01*
Y163364D01*
X152114Y201317D02*
X161344D01*
X139516Y152267D02*
Y156572D01*
X146307Y163364D02*
X151268D01*
X126858D02*
X134693D01*
X130136Y166000D02*
X130804Y165332D01*
X146307D02*
X150102D01*
X146307Y159427D02*
X150518D01*
X130876Y158332D02*
X132421D01*
X130666Y158121D02*
X130876Y158332D01*
X132421D02*
X133516Y159427D01*
X134693D01*
X128679Y161395D02*
X134693D01*
X127695Y160411D02*
X128679Y161395D01*
X120740Y160581D02*
X120910Y160411D01*
X127695D01*
X130804Y165332D02*
X134693D01*
X137547Y168187D02*
Y169254D01*
X136042Y169691D02*
X137110D01*
X137547Y169254D01*
X138176Y207223D02*
X140500D01*
X152114Y199349D02*
X160341D01*
D141*
X39400Y201862D02*
X39451Y201913D01*
X39203Y201862D02*
X39400D01*
X52414Y213200D02*
X55328D01*
X49500D02*
X52414D01*
X49400Y213300D02*
X49500Y213200D01*
D142*
X145323Y209388D02*
D03*
X147291D02*
D03*
Y197184D02*
D03*
X145323D02*
D03*
D143*
X218700Y24800D02*
D03*
Y34800D02*
D03*
X108758Y221509D02*
D03*
X98758D02*
D03*
D144*
X218700Y44800D02*
D03*
D145*
X162500Y84000D02*
D03*
X157500D02*
D03*
Y94000D02*
D03*
Y89000D02*
D03*
X162500Y94000D02*
D03*
Y89000D02*
D03*
Y99000D02*
D03*
Y104000D02*
D03*
X157500Y99000D02*
D03*
D146*
Y104000D02*
D03*
D147*
X88758Y221509D02*
D03*
D148*
X9252Y9252D02*
D03*
X226969D02*
D03*
X9252Y226969D02*
D03*
X226969D02*
D03*
D149*
X142469Y164348D02*
D03*
X138531Y164348D02*
D03*
X138531Y160411D02*
D03*
X142469Y160411D02*
D03*
X140500Y162380D02*
D03*
X176865Y136553D02*
D03*
Y133404D02*
D03*
X146307Y203286D02*
D03*
X148276Y206239D02*
D03*
X144339D02*
D03*
Y200333D02*
D03*
X148276D02*
D03*
X47069Y178343D02*
D03*
Y174800D02*
D03*
Y171257D02*
D03*
X43132D02*
D03*
Y174800D02*
D03*
Y178343D02*
D03*
D150*
X207101Y68262D02*
D03*
X203451Y68242D02*
D03*
X199760Y68303D02*
D03*
X229789Y207632D02*
D03*
X216436Y192106D02*
D03*
X216480Y197172D02*
D03*
X229866Y194970D02*
D03*
X188908Y163526D02*
D03*
X169719Y144534D02*
D03*
X166206Y133972D02*
D03*
X168461Y135962D02*
D03*
X94147Y58952D02*
D03*
X31981Y65382D02*
D03*
X81014Y37392D02*
D03*
X98897Y29133D02*
D03*
X207144Y71046D02*
D03*
X203118Y71424D02*
D03*
X199784D02*
D03*
X229733Y199111D02*
D03*
X226100Y205869D02*
D03*
X229673Y203851D02*
D03*
X109330Y171510D02*
D03*
X105543Y152909D02*
D03*
X100500Y154479D02*
D03*
X141466Y173896D02*
D03*
X145401Y175997D02*
D03*
X138759Y172079D02*
D03*
X138068Y175437D02*
D03*
X128605Y224014D02*
D03*
X122397Y224296D02*
D03*
X116866Y224183D02*
D03*
X187014Y104369D02*
D03*
X199234Y104327D02*
D03*
X206000Y104205D02*
D03*
X183748Y97362D02*
D03*
X177640D02*
D03*
X172826Y97434D02*
D03*
X141248Y89986D02*
D03*
X135725Y90669D02*
D03*
X149497Y102210D02*
D03*
X151782Y102295D02*
D03*
X189309Y42911D02*
D03*
X186845Y4296D02*
D03*
X178103D02*
D03*
X133933Y13940D02*
D03*
X135005Y11654D02*
D03*
X137291Y13007D02*
D03*
X140959Y68659D02*
D03*
X134417Y68736D02*
D03*
X127685Y68850D02*
D03*
X60297Y66928D02*
D03*
X65200Y65693D02*
D03*
X57701Y26664D02*
D03*
X114347Y14325D02*
D03*
X90856Y9889D02*
D03*
X101948Y17001D02*
D03*
X102266Y22149D02*
D03*
X107140Y38981D02*
D03*
X107006Y42690D02*
D03*
X106956Y46834D02*
D03*
X56910Y56433D02*
D03*
X65628Y61836D02*
D03*
X49422Y27203D02*
D03*
X45618Y27415D02*
D03*
X46231Y32983D02*
D03*
X61323Y56878D02*
D03*
X91078Y39977D02*
D03*
X108145Y35695D02*
D03*
X184496Y18812D02*
D03*
X80347Y28161D02*
D03*
X77483Y52033D02*
D03*
X79583Y64506D02*
D03*
X100310Y188015D02*
D03*
X122012Y130784D02*
D03*
X74585Y130470D02*
D03*
X32065Y131151D02*
D03*
X22922Y229000D02*
D03*
X66056Y228846D02*
D03*
X107835Y66324D02*
D03*
X148092Y72906D02*
D03*
X157315Y67800D02*
D03*
X150086Y84000D02*
D03*
X149782Y94616D02*
D03*
X149578Y98559D02*
D03*
X169000Y49633D02*
D03*
X163481Y57685D02*
D03*
X193041Y49405D02*
D03*
X166479Y19397D02*
D03*
X74602Y65228D02*
D03*
X56818Y52343D02*
D03*
X46883Y62086D02*
D03*
X152431Y142479D02*
D03*
X153298Y161457D02*
D03*
X165080Y167547D02*
D03*
X223454Y179275D02*
D03*
X165392Y193460D02*
D03*
X134993Y200932D02*
D03*
X134654Y198288D02*
D03*
X148939Y215416D02*
D03*
X150540Y219675D02*
D03*
X19155Y170371D02*
D03*
X64993Y220030D02*
D03*
X81787Y223629D02*
D03*
X51550Y204045D02*
D03*
X24685Y219748D02*
D03*
X222300Y57099D02*
D03*
X188016Y95199D02*
D03*
X194641Y104291D02*
D03*
X211926Y105327D02*
D03*
X136042Y171946D02*
D03*
X126858Y163364D02*
D03*
X38840Y165529D02*
D03*
X34666Y174167D02*
D03*
X172966Y11460D02*
D03*
X148829Y14264D02*
D03*
X155466Y184044D02*
D03*
X31038Y59006D02*
D03*
X158500Y145000D02*
D03*
X136199Y205254D02*
D03*
X130136Y197014D02*
D03*
X36566Y163171D02*
D03*
X168586Y173915D02*
D03*
X98457Y59700D02*
D03*
X139049Y92200D02*
D03*
X65095Y24772D02*
D03*
X85500Y64780D02*
D03*
X53522Y26150D02*
D03*
X119093Y14270D02*
D03*
X31037Y32171D02*
D03*
X130136Y166000D02*
D03*
X146307Y140500D02*
D03*
X141484Y151150D02*
D03*
X91852Y147200D02*
D03*
X130666Y158121D02*
D03*
X122695Y216800D02*
D03*
X130136Y203606D02*
D03*
X206000Y175100D02*
D03*
X196500D02*
D03*
X184015Y191115D02*
D03*
X160000Y121000D02*
D03*
X174500Y80500D02*
D03*
X102931Y66500D02*
D03*
X134357Y84586D02*
D03*
X151444Y105807D02*
D03*
X62810Y52149D02*
D03*
X98207Y131500D02*
D03*
X162500Y79512D02*
D03*
X74278Y33750D02*
D03*
X53706Y173914D02*
D03*
X20200Y211200D02*
D03*
X52414Y213200D02*
D03*
X46202Y163613D02*
D03*
X43132Y147100D02*
D03*
X36487Y154479D02*
D03*
X19042Y178600D02*
D03*
X6459Y195100D02*
D03*
X6413Y187400D02*
D03*
X31754Y189000D02*
D03*
X25454Y190208D02*
D03*
X22647D02*
D03*
X25454Y195831D02*
D03*
X22647D02*
D03*
M02*
